<svg width="56" height="67" viewBox="0 0 56 67" fill="none" xmlns="http://www.w3.org/2000/svg">
<!-- <path d="M0.000488281 37.4019L27.7194 50.1907L55.4565 37.4019L27.7194 36.2559L0.000488281 37.4019Z" fill="#FCBF91"/> -->
<path d="M0 33.4737H33.3499V2.78431L27.8279 0.000976562L0 13.863V33.4737Z" fill="#9D5125"/>
<path d="M27.8282 33.4726H42.487V12.5886L38.182 10.8604L27.8282 13.8984V33.4726Z" fill="#9D5125"/>
<path d="M38.1821 33.473H49.5167V19.902L46.2653 18.9561L38.1821 20.3204V33.473Z" fill="#9D5125"/>
<path d="M46.2655 33.4726H55.4567L55.5475 17.8095L52.7684 16.6816L46.2655 17.8641V33.4726Z" fill="#9D5125"/>
<path d="M27.8168 33.4727H33.3388V2.78333L27.8168 0V33.4727Z" fill="#F58532"/>
<path d="M38.1886 33.4726H42.4754V12.5886L38.1886 10.8604V33.4726Z" fill="#F58532"/>
<path d="M46.272 33.473H49.5234V19.902L46.272 18.9561V33.473Z" fill="#F58532"/>
<path d="M55.5541 33.4726H52.7749V16.6816L55.5541 17.8095V33.4726Z" fill="#F58532"/>
<path d="M27.7261 40.1847L55.445 37.4014V43.2591L27.7261 50.1901V40.1847Z" fill="#F58532"/>
<path d="M27.7261 67.0004L55.554 53.0656V47.2988L27.7261 57.1405V67.0004Z" fill="#F58532"/>
<path d="M27.7194 67.0004L0.000488281 53.1384V47.2988L27.7194 57.0678V67.0004Z" fill="#9D5125"/>
<path d="M27.7194 50.1901L0.000488281 43.2591V37.4014L27.7194 40.1847V50.1901Z" fill="#9D5125"/>
</svg>
