<svg version="1.1" id="Layer_1" fill="none" xmlns="http://www.w3.org/2000/svg" xmlns:xlink="http://www.w3.org/1999/xlink" x="0px" y="0px" viewBox="0 0 324.38 324.38" xml:space="preserve" height="56" width="56">
<g id="logo_x5F_white_11_">
	<path d="M154.88,101.61c3.95,12,8.25,26.87,12.81,44.21c-17.28-0.27-34.77-0.46-51.7-0.66l-8.57-0.1
		c9.69-37.87,21.5-66.6,30.14-73.39c0.55-0.35,1.41-0.77,2.35-0.77c1.13,0,2.16,0.62,3.06,1.81
		C145.22,76.22,149.12,84.07,154.88,101.61z M324.38,162.19c0,89.57-72.61,162.19-162.19,162.19S0,251.76,0,162.19
		C0,72.61,72.61,0,162.19,0S324.38,72.61,324.38,162.19z M282.79,157.97c0-4.19-2.95-7.69-6.93-8.48c-0.02-0.01-0.05-0.01-0.07-0.02
		c-0.05-0.01-0.09-0.02-0.14-0.03l-0.16-0.01c-0.42-0.07-0.85-0.11-1.29-0.12l-1.15-0.11c-27.35-1.96-55.48-2.73-81.88-3.26
		l-0.05-0.19c-12.85-48.19-28.89-97.45-50.53-97.45c-20.16,0.09-38.34,32.46-54.03,96.22c-11.09-0.14-21.2-0.29-30.73-0.46
		c-0.54-0.01-1.03-0.01-1.46-0.01c-2.03,0-3.02,0.08-3.52,0.15c-5.37,0.95-9.26,5.64-9.26,11.14c0,5.61,4.19,10.43,9.65,11.21
		l0.11,0.11h30.4c-2.78,12.71-5.22,25.28-7.25,37.4l-0.89,5.33l-0.01,0.26c0.02,4.11,3.38,7.46,7.49,7.46
		c2.61,0,4.97-1.36,6.32-3.48l0.22,0.17l14.73-47.13h70.94c5.42,20.48,11.04,41.62,18.47,61.47c3.97,10.61,13.27,35.46,28.82,35.59
		l0.15,0c23.76,0,33.02-38.38,39.15-63.78c1.32-5.47,2.46-10.19,3.53-13.65l0.43-1.43l0,0c0.2-0.66,0.22-1.41-0.01-2.17
		c-0.39-1.28-1.49-2.26-2.8-2.5c-1.87-0.35-3.55,0.72-4.15,2.32l-0.01,0l-0.51,1.42c-2.02,5.58-3.88,10.86-5.53,15.54l-0.12,0.35
		c-10.28,29.12-14.98,42.42-24.17,42.42l0.05,0l-0.13,0.02l-0.23-0.01c-11.96,0-23.22-48.62-27.46-66.92
		c-0.73-3.17-1.41-6.08-2.03-8.64c0,0,77.22,0,77.34,0c1.45,0,2.82-0.36,4.02-0.99c0.01,0,0.01-0.01,0.02-0.01
		c0.12-0.06,0.24-0.13,0.36-0.2c0.13-0.08,0.26-0.15,0.38-0.23c0.06-0.04,0.12-0.08,0.18-0.12c0.19-0.13,0.37-0.26,0.54-0.41
		c0.01-0.01,0.02-0.02,0.04-0.03C281.54,163.07,282.79,160.65,282.79,157.97z"></path>
</g>
</svg>