<svg version="1.1" id="Layer_1" fill="none" width="500" height="500" viewBox="0 0 500 500" xmlns="http://www.w3.org/2000/svg" xml:space="preserve" height="56" width="56">
<g >
<path d="M500 250C500 388.078 388.078 500 250 500C111.922 500 0 388.078 0 250C0 111.922 111.937 0 250 0C388.063 0 500 111.938 500 250" fill="#1A1918"/>
<path style="fill:white" d="M254.219 152.719L318.906 312.391L221.187 235.414L254.219 152.719ZM369.062 349.18L269.625 109.687C266.781 102.781 261.031 99.1249 254.211 99.1249C247.391 99.1249 241.211 102.781 238.367 109.687L129.062 372.375H166.43L209.664 264.07L338.687 368.312C343.875 372.508 347.625 374.406 352.492 374.406C362.242 374.406 370.758 367.094 370.758 356.547C370.758 354.828 370.148 352.094 369.055 349.172L369.062 349.18Z"/>
</g>
<defs>
<clipPath>
<rect width="500" height="500" fill="white"/>
</clipPath>
</defs>
</svg>
