<svg width="52" height="56" viewBox="0 0 52 56" fill="none" xmlns="http://www.w3.org/2000/svg">
<path d="M23.0546 50.3546L6.52203 16.2266C2.53514 19.854 0 25.0054 0 30.8222C0 41.7045 8.94884 50.5907 19.9561 50.5907C21.0178 50.5907 21.9929 50.5048 23.0546 50.3546Z" fill="white"/>
<path d="M16.2939 11.376C17.5073 11.1399 18.7424 11.054 19.9558 11.054C30.9414 11.054 39.9119 19.9187 39.9119 30.8225C39.9119 36.7896 37.2251 42.1985 32.9132 45.826L37.8101 56C45.7839 50.4408 51.0059 41.2327 51.0059 30.8225C51.0709 13.8015 37.1384 0 19.9558 0C17.0306 0 14.0838 0.407819 11.397 1.20199L16.2939 11.376Z" fill="white"/>
</svg>
