<svg xmlns="http://www.w3.org/2000/svg" width="32" height="33" viewBox="0 0 32 33">
  <path d="M15.428 12.745v4.833c0 3.919-.026 4.86-.136 4.953-.093.076-.356-.034-1.111-.475-2.75-1.586-4.583-2.756-4.592-2.951 0-.085 0-.34.009-.568.008-.23-.068-.628-.17-.908a5.677 5.677 0 0 1-.186-.55c0-.103 5.482-5.08 5.592-5.08.025 0 .17.169.322.372l.272.373Zm6.679 6.199c-.043.17-.722.627-4.354 2.909-.67.424-1.247.771-1.264.763-.162 0-.195-.73-.22-5.055l-.026-4.825.56-.373c.305-.204.602-.373.662-.373.17 0 .9.797 2.885 3.146l1.85 2.197-.026.712c-.008.398-.042.797-.067.899Z"/>
  <path fill-rule="evenodd" d="M15.988.134c-.05-.076-.085-.119-.119-.119-.025 0-.05.034-.068.102-.017.068-3.564 4.317-7.9 9.456-4.337 5.14-7.884 9.37-7.9 9.413-.018.043 3.504 2.943 7.823 6.462 4.32 3.52 7.9 6.446 7.96 6.505.102.102.12.093.4-.136.16-.135 3.733-3.044 7.934-6.462 4.2-3.418 7.646-6.242 7.654-6.267.017-.025-3.513-4.274-7.841-9.439-4.328-5.164-7.9-9.447-7.943-9.515Zm-2.037 25.628c.246.475.84.984 1.333 1.162.483.178.831.178 1.408.017.569-.17 1.222-.72 1.485-1.272.238-.5.264-1.298.051-1.806-.22-.518-.186-.645.238-.993.696-.56 3.827-2.705 4.03-2.756.12-.034.408.068.782.271.5.272.679.323 1.154.323.679 0 1.052-.144 1.561-.602.722-.653 1.019-1.739.68-2.545-.527-1.255-1.86-1.814-3.124-1.314-.271.102-.56.187-.645.187-.085 0-.34-.212-.568-.475-1.299-1.51-3.751-4.47-3.895-4.716-.17-.28-.17-.288.008-.746.662-1.654-.569-3.502-2.334-3.502-.755 0-1.145.127-1.671.542-.968.764-1.248 2.036-.696 3.18l.271.569-.908.865c-1.315 1.247-4.04 3.731-4.379 3.986-.288.22-.297.22-.755.068-.84-.28-1.714-.06-2.368.593-.483.484-.636.874-.636 1.629 0 .78.17 1.161.755 1.704.815.755 1.85.823 2.843.195.306-.195.475-.254.577-.195.077.043 1.188.645 2.461 1.331 1.273.688 2.402 1.315 2.495 1.383.17.127.17.144-.093.687-.34.73-.365 1.645-.06 2.23Z" clip-rule="evenodd"/>
</svg>