<svg width="100%" height="100%" viewBox="0 0 80 70" fill="none" xmlns="http://www.w3.org/2000/svg">
<path d="M80 34.7875L62.1657 3.76605C60.8264 1.43648 58.3513 0 55.6727 0H24.3327C21.6541 0 19.179 1.43648 17.8397 3.76605L15.5682 7.71502H55.5709L51.1351 15.43H11.1324L6.69658 23.1451H46.6993L42.2634 30.8601H2.26076L0 34.7875L2.18041 38.5751H42.1831L46.6189 46.2901H6.61622L11.052 54.0052H51.0547L55.4905 61.7202H15.4878L17.8397 65.809C19.179 68.1386 21.6541 69.5751 24.3327 69.5751H55.6727C58.3513 69.5751 60.8264 68.1386 62.1657 65.809L80 34.7875Z" fill="#EF54AC"/>
</svg>
