<svg width="54" height="55" viewBox="0 0 54 55" fill="none" xmlns="http://www.w3.org/2000/svg">
<path d="M26.4108 33.5908C29.9864 33.5908 32.8849 30.7023 32.8849 27.1391C32.8849 23.576 29.9864 20.6875 26.4108 20.6875C22.8352 20.6875 19.9366 23.576 19.9366 27.1391C19.9366 30.7023 22.8352 33.5908 26.4108 33.5908Z" fill="white"/>
<path d="M26.411 0C13.7349 0 3.05557 8.66276 0.0302532 20.3545C0.0302532 20.4756 0 20.5665 0 20.6876C0 21.4146 0.57481 21.9901 1.30089 21.9901H12.2828C12.7971 21.9901 13.2509 21.6872 13.4627 21.2329L13.4929 21.2026C15.7317 16.2957 20.6629 12.9336 26.411 12.9336C34.2769 12.9336 40.6603 19.2943 40.6603 27.1696C40.6603 35.0448 34.2769 41.4056 26.411 41.4056C20.6932 41.4056 15.7317 38.0132 13.4627 33.1669C13.4627 33.1366 13.4324 33.1063 13.4324 33.1063C13.2206 32.6217 12.7668 32.3188 12.2828 32.3188H1.30089C0.57481 32.3188 0 32.8943 0 33.6212C0 33.7424 0.0302532 33.8332 0.0302532 33.9544C3.05557 45.6764 13.7047 54.3089 26.3808 54.3089C41.4166 54.3089 53.5784 42.1628 53.5784 27.1696C53.5784 12.1763 41.4166 0 26.411 0Z" fill="white"/>
</svg>
