<svg xmlns="http://www.w3.org/2000/svg" xmlns:xlink="http://www.w3.org/1999/xlink" viewBox="0 0 510 200"><defs><linearGradient id="linear-gradient" x1="83.1" y1="102.44" x2="54.45" y2="131.08" gradientUnits="userSpaceOnUse"><stop offset="0.2" stop-color="#0052cc"/><stop offset="1" stop-color="#2684ff"/></linearGradient></defs><g id="Logo_Lock-up" data-name="Logo Lock-up"><path class="cls-1" d="M168.53,147.45c-3.61,2.37-9.33,3.43-15.32,3.43-19,0-29.74-11.44-29.74-29.66,0-17.6,10.74-29.91,29.57-29.91,5.63,0,11.26,1,15.4,4V103C164.3,100.37,159.73,99,153,99c-13.55,0-21.65,9-21.65,22.26s8.36,22.09,22.09,22.09a32.53,32.53,0,0,0,15.05-3.52Z"/><path class="cls-1" d="M175.83,127.91c0-13.2,7.74-22.79,20.94-22.79s20.77,9.59,20.77,22.79-7.65,23-20.77,23S175.83,141.11,175.83,127.91Zm7.39,0c0,8.36,4.14,15.93,13.55,15.93s13.38-7.57,13.38-15.93-4.05-15.75-13.38-15.75S183.22,119.55,183.22,127.91Z"/><path class="cls-1" d="M263.74,150h-7.57V123.42c0-7.92-3.17-11.44-10.38-11.44-7,0-11.88,4.67-11.88,13.56V150h-7.57V106h7.57v7.22a15.42,15.42,0,0,1,13.9-8.1c7.48,0,12.59,3.78,14.79,10.74,2.46-6.78,8.36-10.74,15.66-10.74,9.86,0,15.31,6.69,15.31,19.1V150H286V125.54c0-9.07-3.16-13.56-10.38-13.56-7,0-11.88,4.67-11.88,13.56Z"/><path class="cls-1" d="M312.58,142.26v24.9H305V106h7.57v7.92c2.82-5.81,8.1-8.8,14.87-8.8,11.71,0,17.6,9.94,17.6,22.88,0,12.41-6.16,22.88-18.48,22.88C320.15,150.88,315.22,148,312.58,142.26Zm12.85-30.1c-6.78,0-12.85,4.31-12.85,14.08v3.52c0,9.77,5.54,14.08,12,14.08,8.53,0,12.93-5.63,12.93-15.84C337.48,117.44,333.26,112.16,325.43,112.16Z"/><path class="cls-1" d="M384.56,142.08c-2.81,5.81-8.09,8.8-14.87,8.8-11.7,0-17.6-9.94-17.6-22.88,0-12.41,6.16-22.88,18.48-22.88,6.43,0,11.35,2.9,14,8.62V106h7.57v44h-7.57Zm-12.85,1.76c6.78,0,12.85-4.31,12.85-14.08v-3.52c0-9.77-5.54-14.08-12-14.08-8.54,0-12.94,5.63-12.94,15.84C359.66,138.56,363.88,143.84,371.71,143.84Z"/><path class="cls-1" d="M417.39,150.88a33.87,33.87,0,0,1-15.31-3.26v-8a34.37,34.37,0,0,0,15.66,4.31c5.81,0,8.8-2.38,8.8-5.81s-2.55-5.28-10.91-7.3c-9.77-2.38-13.91-6.16-13.91-13.38,0-7.66,5.9-12.32,15.93-12.32a31.27,31.27,0,0,1,14.17,3.17v7.83c-5.28-2.64-9.59-4.05-14.26-4.05-5.54,0-8.53,1.94-8.53,5.37,0,3.08,2.11,5,10.2,7,9.77,2.38,14.7,6,14.7,13.64C433.93,145.34,429.18,150.88,417.39,150.88Z"/><path class="cls-1" d="M456.46,150.88a33.87,33.87,0,0,1-15.31-3.26v-8a34.37,34.37,0,0,0,15.66,4.31c5.81,0,8.8-2.38,8.8-5.81s-2.55-5.28-10.91-7.3c-9.77-2.38-13.91-6.16-13.91-13.38,0-7.66,5.9-12.32,15.93-12.32a31.27,31.27,0,0,1,14.17,3.17v7.83c-5.28-2.64-9.59-4.05-14.26-4.05-5.54,0-8.53,1.94-8.53,5.37,0,3.08,2.11,5,10.21,7,9.76,2.38,14.69,6,14.69,13.64C473,145.34,468.25,150.88,456.46,150.88Z"/><path class="cls-2" d="M69.2,116.33v16.84H52.37V116.33H69.2V99.5H38.48a3,3,0,0,0-2.95,3v44.6A3,3,0,0,0,38.48,150h44.6a3,3,0,0,0,3-2.95V116.33Z"/><path class="cls-3" d="M69.2,82.67V99.5H86v16.83h16.83V85.62a3,3,0,0,0-3-3Z"/></g><g id="Attribution"><path class="cls-4" d="M224.86,63.74c0-4-2.55-5.75-7.38-7-3-.76-3.73-1.41-3.73-2.42,0-1.2,1.06-1.81,3.05-1.81a16.51,16.51,0,0,1,7,1.85v-5A15.8,15.8,0,0,0,217,47.87c-5.26,0-8.18,2.53-8.18,6.6,0,3.9,2.58,5.89,7,6.87,3.05.68,4,1.19,4,2.5,0,1-.73,1.82-3,1.82a16.46,16.46,0,0,1-8.06-2.3v5.28a17.49,17.49,0,0,0,8,1.86C222.23,70.5,224.86,67.81,224.86,63.74Z"/><path class="cls-4" d="M285.28,48.19v22H290V53.43l2,4.44,6.6,12.31h5.88v-22h-4.67v14.2L298,58.28l-5.32-10.09Z"/><path class="cls-4" d="M255.61,48.19h-5.12v22h5.12Z"/><path class="cls-4" d="M169.16,48.19v22h10.46l1.65-4.76h-7V48.19Z"/><path class="cls-4" d="M148.43,48.19V53h5.67V70.18h5.11V53h6.08V48.19Z"/><path class="cls-4" d="M141,48.19h-6.74l-7.66,22h5.85l1.09-3.72a14.84,14.84,0,0,0,4.11.61,13.87,13.87,0,0,0,4.11-.61l1.09,3.72h5.85Zm-3.39,14.35a10.85,10.85,0,0,1-2.82-.4l2.82-9.63,2.82,9.63A10.61,10.61,0,0,1,137.59,62.54Z"/><path class="cls-4" d="M197.74,48.19H191l-7.67,22h5.85l1.09-3.72a14.86,14.86,0,0,0,4.12.61,13.87,13.87,0,0,0,4.11-.61l1.09,3.72h5.85Zm-3.39,14.35a11,11,0,0,1-2.82-.4l2.82-9.63,2.83,9.63A11,11,0,0,1,194.35,62.54Z"/><path class="cls-4" d="M274,48.19h-6.74l-7.66,22h5.85l1.08-3.72a15,15,0,0,0,4.12.61,13.87,13.87,0,0,0,4.11-.61l1.09,3.72h5.85Zm-3.35,14.35a10.85,10.85,0,0,1-2.82-.4l2.82-9.63,2.82,9.63A11.16,11.16,0,0,1,270.62,62.54Z"/><path class="cls-4" d="M245.23,63.74c0-4-2.55-5.75-7.38-7-3-.76-3.73-1.41-3.73-2.42,0-1.2,1.06-1.81,3-1.81a16.51,16.51,0,0,1,7,1.85v-5a15.8,15.8,0,0,0-6.88-1.49c-5.26,0-8.18,2.53-8.18,6.6,0,3.9,2.58,5.89,7,6.87,3.05.68,4,1.19,4,2.5,0,1-.74,1.82-3,1.82a16.46,16.46,0,0,1-8.06-2.3v5.28a17.49,17.49,0,0,0,8,1.86C242.6,70.5,245.23,67.81,245.23,63.74Z"/></g></svg>