<svg width="32" height="32" viewBox="0 0 32 32" fill="none" xmlns="http://www.w3.org/2000/svg">
<path d="M15.9904 16.0094V24.007H7.99758V16.0094H15.9904V8.0166H1.401C1.02727 8.02283 0.670948 8.17568 0.40887 8.4422C0.146792 8.70872 -5.19048e-05 9.06756 1.37626e-08 9.44135V30.6226C0.0121427 30.9881 0.164367 31.3349 0.42516 31.5913C0.685954 31.8477 1.03534 31.994 1.401 31.9998H22.5822C22.956 31.9999 23.3149 31.8531 23.5814 31.591C23.8479 31.3289 24.0008 30.9726 24.007 30.5988V16.0094H15.9904Z" fill="url(#paint0_linear_7592_16391)"/>
<path d="M15.9897 0.0237436V8.01658H23.9683V16.0094H31.9612V1.42475C31.9612 1.04688 31.8111 0.68449 31.5439 0.417298C31.2767 0.150106 30.9143 0 30.5364 0L15.9897 0.0237436Z" fill="#2684FF"/>
<defs>
<linearGradient id="paint0_linear_7592_16391" x1="22.5917" y1="9.41285" x2="8.98541" y2="23.0144" gradientUnits="userSpaceOnUse">
<stop offset="0.2" stop-color="#0052CC"/>
<stop offset="1" stop-color="#2684FF"/>
</linearGradient>
</defs>
</svg>
