<svg width="40" height="32" viewBox="0 0 40 32" fill="none" xmlns="http://www.w3.org/2000/svg">
<path fill-rule="evenodd" clip-rule="evenodd" d="M7.771 0.415114V7.69952C7.771 7.71358 7.77784 7.72677 7.78934 7.73486L23.5247 18.8102L15.8677 23.9197C15.853 23.9295 15.8339 23.9294 15.8193 23.9195L0.0675827 13.1727C0.0388922 13.1531 0 13.1737 0 13.2084V20.4928C0 20.5069 0.00684336 20.5201 0.0183448 20.5282L15.8189 31.6494C15.8337 31.6598 15.8533 31.6599 15.8681 31.6498L32.2101 20.5281C32.2219 20.5201 32.229 20.5067 32.229 20.4924V13.0827C32.229 13.0577 32.2087 13.0399 32.1866 13.0395L39.9811 7.73482C39.9929 7.72677 40 7.71339 40 7.69908V0.413595C40 0.379168 39.9617 0.358558 39.933 0.377516L23.6386 11.1267C23.624 11.1363 23.6049 11.1362 23.5905 11.1263L7.83858 0.37941C7.80989 0.359836 7.771 0.380382 7.771 0.415114Z" fill="#58595B"/>
</svg>