<svg width="51" height="52" viewBox="0 0 51 52" fill="none" xmlns="http://www.w3.org/2000/svg">
<path d="M17.0701 4.27654C16.415 7.73194 15.6131 12.8644 15.1726 18.0756C14.4045 27.2488 14.8789 33.4055 14.8789 33.4055L1.91216 45.6851C1.91216 45.6851 0.929491 38.808 0.409918 31.0418C0.116246 26.2358 0.0032959 22.015 0.0032959 19.46C0.0032959 19.3137 0.0710662 19.1674 0.0710662 19.0211C0.0710662 18.841 0.285672 17.1302 1.96864 15.5207C3.80973 13.7873 17.2847 3.26356 17.0701 4.27654Z" fill="#1496FF"/>
<path d="M17.0701 4.2752C16.415 7.7306 15.6131 12.8631 15.1726 18.0743C15.1726 18.0743 0.81654 16.3635 0.0032959 19.8189C0.0032959 19.6388 0.263082 17.5228 1.93475 15.9245C3.77584 14.1799 17.2847 3.26222 17.0701 4.2752Z" fill="#1284EA"/>
<path d="M0.00327854 18.9861C0.00327854 19.245 0.00327854 19.4926 0.00327854 19.7852C0.150114 19.1662 0.409901 18.7272 0.918178 18.0406C1.97991 16.69 3.69676 16.3298 4.38576 16.251C7.89852 15.7783 13.083 15.2268 18.3126 15.0805C27.5519 14.7878 33.6625 15.5532 33.6625 15.5532L46.6293 3.28484C46.6293 3.28484 39.8296 2.01299 32.0812 1.1013C26.9985 0.482257 22.5482 0.155851 20.0181 0.00953093C19.8374 0.00953093 18.0415 -0.204321 16.3585 1.39394C14.5287 3.13852 5.25548 11.9177 1.52811 15.4519C-0.143557 17.0614 0.00327854 18.8398 0.00327854 18.9861Z" fill="#B4DC00"/>
<path d="M46.155 34.6883C42.6422 35.161 37.4578 35.7463 32.2282 35.9263C22.9888 36.219 16.8443 35.4536 16.8443 35.4536L3.87756 47.7557C3.87756 47.7557 10.745 49.1064 18.4934 49.973C23.2486 50.5246 27.4503 50.8059 30.003 50.9523C30.1837 50.9523 30.4774 50.8059 30.6581 50.8059C30.8389 50.8059 32.6348 50.4795 34.3177 48.8813C36.1475 47.1367 47.1828 34.5757 46.155 34.6883Z" fill="#6F2DA8"/>
<path d="M46.155 34.6882C42.6422 35.161 37.4578 35.7462 32.2282 35.9263C32.2282 35.9263 33.2109 50.3107 29.7433 50.9297C29.924 50.9297 32.296 50.8172 33.9789 49.2189C35.82 47.4631 47.1828 34.5757 46.155 34.6882Z" fill="#591F91"/>
<path d="M30.5225 50.997C30.2627 50.997 30.0143 50.9633 29.7206 50.9633C30.3757 50.8507 30.8162 50.6369 31.5165 50.1304C32.9058 49.1511 33.3463 47.4403 33.4931 46.7425C34.1144 43.2871 34.9502 38.1547 35.3568 32.9434C36.091 23.7703 35.6505 17.6474 35.6505 17.6474L48.6059 5.33398C48.6059 5.33398 49.5547 12.1773 50.1082 19.9322C50.4357 24.9971 50.5487 29.4768 50.5826 31.9529C50.5826 32.133 50.7294 33.9226 49.0464 35.5209C47.2166 37.2655 37.9434 46.0784 34.2499 49.6126C32.4879 51.2109 30.7033 50.997 30.5225 50.997Z" fill="#73BE28"/>
</svg>
