<svg width="54" height="54" viewBox="0 0 54 54" fill="none" xmlns="http://www.w3.org/2000/svg">
<path d="M21.2218 22.9999L33.0444 28.3401L44.951 17.9656C45.1331 17.1034 45.2171 16.2412 45.2031 15.3651C45.2031 9.566 41.407 4.44833 35.8319 2.7239C30.2568 0.999468 24.2055 3.09938 20.8996 7.88329L18.9105 18.1047L21.2218 22.9999Z" />
<path d="M8.99302 35.4061C8.81092 36.2822 8.72687 37.1723 8.74088 38.0623C8.75489 43.8892 12.579 49.0208 18.1821 50.7313C23.7852 52.4418 29.8646 50.328 33.1564 45.5163L35.1175 35.3505L32.4981 30.3719L20.6335 25.0039L8.99302 35.4061Z"/>
<path d="M8.92311 15.1168L17.0196 17.022L18.7986 7.88529C16.5433 6.17476 13.4196 6.14695 11.1223 7.81575C8.82505 9.48456 7.94256 12.4606 8.92311 15.1168Z" />
<path d="M8.22235 17.0352C4.63636 18.2033 2.17099 21.4992 2.08695 25.254C2.0029 29.0088 4.30018 32.4021 7.84414 33.7371L19.2044 23.5435L17.1313 19.1212L8.22235 17.0352Z" />
<path d="M35.2155 45.5151C37.4707 47.2118 40.5804 47.2257 42.8637 45.5569C45.147 43.8881 46.0435 40.9259 45.0769 38.2837L36.9944 36.4062L35.2155 45.5151Z" />
<path d="M36.8546 34.2951L45.7495 36.3533C49.3355 35.1852 51.8009 31.8893 51.8849 28.1345C51.969 24.3796 49.6717 20.9864 46.1278 19.6514L34.4873 29.7754L36.8546 34.2951Z" />
</svg>
