<svg width="56" height="55" viewBox="0 0 56 55" fill="none" xmlns="http://www.w3.org/2000/svg">
<path fill-rule="evenodd" clip-rule="evenodd" d="M28.0505 0C12.57 0 0 12.5644 0 28.038C0 40.4499 8.04531 50.9308 19.1664 54.615C20.5645 54.8691 21.0856 53.9925 21.0856 53.2684C21.0856 52.5951 21.0856 50.8292 21.0347 48.4916C13.2436 50.2067 11.5786 44.7566 11.5786 44.7566C10.2822 41.5298 8.46473 40.6532 8.46473 40.6532C5.92277 38.8873 8.66809 38.9381 8.66809 38.9381C11.477 39.1414 12.9767 41.8474 12.9767 41.8474C15.4678 46.1541 19.5223 44.9091 21.1364 44.1849C21.3906 42.3682 22.1278 41.1232 22.9031 40.4499C16.6753 39.7258 10.1297 37.3374 10.1297 26.5897C10.1297 23.528 11.2228 21.038 13.0403 19.0562C12.7225 18.332 11.7947 15.4736 13.2945 11.637C13.2945 11.637 15.6331 10.862 20.9839 14.4954C23.2208 13.8729 25.6103 13.5553 27.9997 13.5553C30.3891 13.5553 32.7786 13.8729 35.0155 14.4954C40.3663 10.862 42.7049 11.637 42.7049 11.637C44.2174 15.4736 43.2769 18.332 42.9591 19.0562C44.7766 21.0253 45.8697 23.5153 45.8697 26.5897C45.8697 37.3374 39.3241 39.7258 33.0455 40.3991C34.0368 41.2757 34.9647 42.9907 34.9647 45.5951C34.9647 49.3301 34.9138 52.341 34.9138 53.2811C34.9138 54.0052 35.4349 54.8945 36.833 54.6277C47.9541 50.8927 55.9994 40.3991 55.9994 28.0507C56.1011 12.5644 43.5311 0 28.0505 0Z" fill="white"/>
</svg>
