<svg width="60" height="56" viewBox="0 0 60 56" fill="none" xmlns="http://www.w3.org/2000/svg">
<path d="M30.0043 55.1741L41.0485 21.2275H18.9565L30.0043 55.1741Z" fill="#E24329"/>
<path d="M29.9972 55.1759L18.9494 21.2275H3.48688L29.9972 55.1759Z" fill="#FC6D26"/>
<path d="M3.47463 21.2441L0.11197 31.5587C-0.0373234 32.0166 -0.0373234 32.5117 0.11197 32.9696C0.261264 33.4293 0.550965 33.8286 0.940195 34.1125L29.9921 55.1978L3.47463 21.2441Z" fill="#FCA326"/>
<path d="M3.47827 21.2406H18.9604L12.2973 0.794185C12.2208 0.565248 12.0751 0.368256 11.8778 0.22628C11.6823 0.0860779 11.4477 0.00976562 11.206 0.00976562C10.9643 0.00976562 10.7297 0.0860779 10.5342 0.22628C10.3387 0.366481 10.1929 0.565248 10.1147 0.794185L3.47827 21.2406Z" fill="#E24329"/>
<path d="M30.0046 55.1759L41.0488 21.2275H56.5291L30.0046 55.1759Z" fill="#FC6D26"/>
<path d="M56.5236 21.2441L59.888 31.5587C60.0373 32.0166 60.0373 32.5117 59.888 32.9696C59.7387 33.4293 59.449 33.8286 59.0598 34.1125L30.0062 55.1783L56.5236 21.2441Z" fill="#FCA326"/>
<path d="M56.5325 21.2406H41.0486L47.6993 0.794185C47.7758 0.565248 47.9215 0.368256 48.1188 0.22628C48.3143 0.0860779 48.5489 0.00976562 48.7906 0.00976562C49.0323 0.00976562 49.2669 0.0860779 49.4624 0.22628C49.6579 0.366481 49.8037 0.565248 49.8819 0.794185L56.5325 21.2406Z" fill="#E24329"/>
</svg>
