<svg xmlns="http://www.w3.org/2000/svg" width="32" height="32" viewBox="0 0 32 32">
  <path d="M30.4 14.122a12.065 12.065 0 0 0-.318-1.842 11.273 11.273 0 0 0-.829-2.204 12.267 12.267 0 0 0-1.542-2.363 11.369 11.369 0 0 0-.838-.899c.45-1.79-.546-3.34-.546-3.34-1.72-.107-2.812.537-3.218.828-.07-.027-.132-.062-.203-.088-.29-.115-.59-.23-.908-.326a14.982 14.982 0 0 0-.952-.265c-.326-.08-.652-.14-.987-.194l-.176-.026c-.75-2.398-2.9-3.403-2.9-3.403-2.407 1.525-2.857 3.658-2.857 3.658l-.026.124c-.133.035-.265.08-.397.114-.185.053-.37.124-.546.194-.186.07-.362.141-.547.22-.361.16-.723.336-1.076.53-.343.194-.678.405-1.005.626l-.088-.036c-3.332-1.27-6.285.256-6.285.256-.273 3.544 1.331 5.774 1.648 6.18a15.29 15.29 0 0 0-.811 3.508C1.908 16.9 1 20.011 1 20.011c2.565 2.953 5.563 3.138 5.563 3.138l.008-.009c.38.68.82 1.323 1.314 1.931.211.256.423.494.652.732-.934 2.68.132 4.901.132 4.901 2.857.106 4.734-1.252 5.131-1.56a9.7 9.7 0 0 0 .864.255c.882.23 1.78.362 2.68.397.22.009.45.018.67.009h.316l.141-.009v.009C19.821 31.727 22.183 32 22.183 32c1.684-1.772 1.781-3.535 1.781-3.914v-.159a9.78 9.78 0 0 0 1.005-.802 10.83 10.83 0 0 0 1.754-2.054l.133-.212c1.904.106 3.252-1.18 3.252-1.18-.317-1.984-1.445-2.954-1.683-3.14 0 0-.009-.008-.027-.017-.017-.008-.017-.017-.017-.017-.01-.01-.027-.018-.044-.027l.026-.361c.018-.212.018-.432.018-.644v-.335l-.01-.132-.008-.176c0-.062-.009-.115-.017-.168-.01-.053-.01-.114-.018-.167l-.018-.168-.026-.167a8.453 8.453 0 0 0-.124-.653 8.663 8.663 0 0 0-.97-2.397 8.093 8.093 0 0 0-1.613-1.922 8.023 8.023 0 0 0-4.284-1.948 7.018 7.018 0 0 0-1.137-.062h-.282l-.141.009c-.053 0-.106.009-.15.009a6.278 6.278 0 0 0-2.671.873 6.443 6.443 0 0 0-1.613 1.374 6.297 6.297 0 0 0-1.023 1.728 6.08 6.08 0 0 0-.405 1.852c-.01.15-.01.308-.01.458v.115l.01.123c.008.07.008.15.017.22a4.821 4.821 0 0 0 .926 2.425c.326.44.723.802 1.137 1.093.414.282.864.485 1.305.617.44.132.881.185 1.296.185h.228c.026 0 .053 0 .08-.009.043 0 .087-.009.131-.009.01 0 .027 0 .035-.008l.045-.01c.026 0 .053-.008.079-.008l.15-.027a.662.662 0 0 0 .14-.035c.098-.017.186-.053.274-.08a3.74 3.74 0 0 0 .503-.21c.158-.08.3-.177.44-.265.036-.027.08-.053.115-.088a.335.335 0 0 0 .053-.468.325.325 0 0 0-.414-.079l-.106.053a2.866 2.866 0 0 1-.794.264 7.4 7.4 0 0 1-.22.027c-.035 0-.07.009-.115.009h-.211c-.044 0-.088 0-.132-.01h-.053c-.018 0-.044 0-.062-.008-.044-.009-.08-.009-.123-.018a3.425 3.425 0 0 1-.961-.282 3.364 3.364 0 0 1-.89-.582 3.378 3.378 0 0 1-1.076-1.965 3.319 3.319 0 0 1-.035-.59c0-.054.008-.107.008-.16v-.07c0-.027.01-.053.01-.08.008-.105.026-.211.043-.317a4.242 4.242 0 0 1 1.226-2.3c.167-.16.344-.3.529-.433a4.109 4.109 0 0 1 1.252-.582c.22-.061.449-.096.687-.123.115-.009.23-.018.353-.018h.273l.097.01c.256.017.502.052.75.114.493.106.978.29 1.427.538a5.27 5.27 0 0 1 2.134 2.212 4.923 4.923 0 0 1 .529 1.887l.008.097.01.097v.379c0 .062-.01.167-.01.229a7.173 7.173 0 0 1-.114.855 7.396 7.396 0 0 1-.361 1.234 7.18 7.18 0 0 1-.83 1.508 6.816 6.816 0 0 1-2.662 2.177 6.427 6.427 0 0 1-1.657.503 5.635 5.635 0 0 1-.864.088h-.44c-.158 0-.308-.009-.467-.027a9.21 9.21 0 0 1-1.825-.326 9.25 9.25 0 0 1-1.71-.687 9.038 9.038 0 0 1-2.82-2.337 9.093 9.093 0 0 1-.988-1.533 9.112 9.112 0 0 1-.652-1.684 9.307 9.307 0 0 1-.3-1.772l-.009-.115v-.784a10.568 10.568 0 0 1 .22-1.807 11.853 11.853 0 0 1 .847-2.6c.502-1.076 1.155-2.037 1.94-2.804.193-.194.396-.37.607-.547a9.12 9.12 0 0 1 .662-.476c.22-.15.458-.282.696-.405.115-.062.238-.124.361-.177l.185-.079.186-.08c.246-.105.502-.193.767-.273.061-.017.132-.035.194-.061.061-.018.132-.036.194-.053.132-.035.264-.07.396-.097.062-.018.132-.027.203-.044.07-.018.132-.027.203-.044.07-.01.132-.027.202-.036l.097-.017.106-.018.203-.026.23-.027c.06-.009.167-.017.228-.026.044-.009.097-.009.141-.018l.097-.009.044-.008h.053c.08-.01.15-.01.23-.018l.114-.009h.088c.062 0 .133-.009.194-.009a10.393 10.393 0 0 1 2.274.167 10.817 10.817 0 0 1 4.963 2.363c.045.036.08.07.124.106.035.035.08.07.115.106.079.07.15.14.229.211.08.071.15.141.22.212.07.07.141.141.212.22a11.377 11.377 0 0 1 1.983 2.847c.036.071.07.142.097.212.036.07.062.133.097.203.027.07.062.132.088.203.106.264.212.52.291.758.133.388.23.732.309 1.031a.235.235 0 0 0 .264.186.243.243 0 0 0 .23-.247c.008-.318 0-.697-.045-1.129Z"/>
</svg>