<svg width="48" height="55" viewBox="0 0 48 55" fill="none" xmlns="http://www.w3.org/2000/svg">
<path fill-rule="evenodd" clip-rule="evenodd" d="M17.0743 8.66258L17.1886 9.60093L31.0171 9.99L31.04 9.76113L31.0629 9.34917L31.0857 8.93722V8.73124L26.1943 5.84753C24.8457 5.06938 23.2 5.06938 21.8743 5.84753L17.0743 8.66258ZM18.0343 14.7962L30.4914 15.2081L30.5143 15.0251L30.5371 14.8648L30.5829 14.5673L30.6057 14.3385L30.6286 14.1096L30.6743 13.7892L30.72 13.4688L30.8343 12.4389L30.9257 11.3632L17.4629 11.6836L18.0343 14.7962ZM19.52 19.9457L29.6 20.3347L29.8514 19.0989L29.9657 18.4123L29.9886 18.2978L30.0114 18.1834L30.1029 17.6799L30.1486 17.3366L30.1943 17.0391L30.2629 16.5585L18.5371 16.9246L18.9029 18.2063L19.52 19.9457ZM25.8514 26.1937C26.1029 26.125 26.3543 26.0335 26.5829 25.8962C26.7657 25.7817 26.9257 25.6673 27.0857 25.53C27.2686 25.3698 27.4514 25.1867 27.6114 24.9807L27.7257 24.8205L27.7943 24.729L27.9086 24.5688C28.0229 24.4086 28.1371 24.2255 28.2286 24.0424L28.2514 23.9966L28.2743 23.9508L28.64 23.2642L28.8457 22.8065L28.9371 22.5776L29.0743 22.2114L29.2571 21.6393L20.4343 21.9597L20.8686 22.7149C21.1429 23.1498 21.44 23.6075 21.8057 23.9966C22.2857 24.5459 22.8343 25.0494 23.4971 25.3698C23.68 25.4613 23.8857 25.53 24.0686 25.5987L24.2514 25.6444L24.4343 25.6902L24.5486 25.7131L24.8914 25.8046C25.12 25.8733 25.3257 25.9648 25.5543 26.0564L25.8514 26.1937ZM17.7371 37.9116L29.28 37.4997L28.9143 36.1951L28.2286 34.2269L18.4686 33.7921L18.4229 33.998L18.1714 35.2797L18.0571 36.0349L18.0114 36.218L17.9429 36.6071L17.8743 37.1106L17.8286 37.4081L17.7371 37.9116ZM17.12 43.1298L30.4 42.7178L29.8514 39.8341L29.8057 39.6281L17.5543 39.1933L17.3943 40.4292L17.12 43.1298ZM14.0343 44.4801L14.1029 43.6104L14.1257 43.3815L14.1486 43.1756L14.24 42.3745L14.4914 40.4978L14.6057 39.7883L14.6286 39.6739L14.9943 37.9116L15.0629 37.6828L15.2457 36.9504L15.3143 36.6758L15.36 36.5156L15.7029 35.4628L15.7257 35.3941L16.1371 34.3871L16.16 34.3642L16.7086 33.2199L17.0514 32.5562L17.0743 32.5104L17.7143 31.5034L17.9657 31.1372L18.08 30.9999C18.4 30.5879 18.72 30.1989 19.0857 29.8327C19.1086 29.8098 19.1314 29.8098 19.1314 29.7869L19.1771 29.7411L19.4057 29.5352L19.7486 29.2605L19.84 29.1919L19.9771 29.1003L20.4114 28.8257L20.7086 28.6655L21.0743 28.5053C21.2571 28.4366 21.4171 28.3679 21.6 28.3222C21.7143 28.2993 21.8514 28.2764 21.9886 28.2535C22.08 28.2535 22.1486 28.2306 22.24 28.2535L22.2629 28.2764L22.24 28.2993C22.2171 28.2993 22.2171 28.2993 22.1943 28.2993H22.1257C21.8743 28.345 21.6229 28.4366 21.3943 28.551C21.1886 28.6655 21.0286 28.7799 20.8457 28.9401L20.64 29.1232C20.5714 29.2147 20.4571 29.3521 20.3657 29.4894L20.2514 29.6496L20.2057 29.6954L20.0686 29.9013L19.7714 30.382L19.7486 30.4277L19.7257 30.4735L19.4514 30.977L19.1771 31.6178L19.1086 31.778L18.9714 32.1671L18.8571 32.5333L27.3143 32.1671C27.1086 31.7552 26.8571 31.3661 26.6057 30.9999C26.3543 30.6337 26.1029 30.2904 25.8057 29.97C25.3943 29.5352 24.9371 29.1461 24.3886 28.8943C24.2286 28.8257 24.0686 28.757 23.9086 28.7112L23.5886 28.6426L23.4743 28.6197L23.0629 28.5053C22.8114 28.4366 22.5829 28.345 22.3543 28.2306C22.1257 28.1162 21.8971 28.0017 21.6686 27.8873L21.1886 27.5669C20.1829 26.8574 19.3371 25.9191 18.6514 24.9121L18.3543 24.4543L17.9429 23.7677L17.4857 22.8294L16.96 21.6393L16.32 19.9686L15.6571 17.7714L14.9714 14.842L14.3314 11.1114L14.24 10.3333L6.69714 14.7504C5.34857 15.5286 4.52571 16.9933 4.52571 18.5496V36.3325C4.52571 37.9116 5.34857 39.3535 6.69714 40.1316L14.0343 44.4801ZM33.76 44.5945L41.3486 40.1545C42.6971 39.3764 43.52 37.9116 43.52 36.3554V18.5496C43.52 16.9704 42.6971 15.5286 41.3486 14.7504L33.9657 10.4248L33.92 10.8597L33.3943 14.7733L33.3486 15.0251L33.12 16.1465L33.0286 16.5356L32.9829 16.7644L32.9143 17.062L32.6857 17.9088L32.6629 17.9545L32.2743 19.076L32.2286 19.1675L32.1371 19.4193L31.8629 20.083L31.7943 20.2203L31.7486 20.3347L31.5429 20.7238L31.1314 21.502L30.9257 21.8681L30.9029 21.891L30.24 22.898L29.9886 23.2413L29.8743 23.3787C29.5543 23.7906 29.2114 24.1797 28.8686 24.5459C28.8457 24.5688 28.8229 24.5688 28.8229 24.5916L28.6857 24.729L28.2286 25.118L28.1829 25.1409C27.8857 25.3469 27.5657 25.5529 27.2457 25.736L26.9943 25.8504L26.5829 26.0106C26.4229 26.0793 26.2629 26.125 26.1029 26.1479L25.8971 26.1937L26.08 26.2853L26.4686 26.537C27.4743 27.2007 28.2971 28.1162 28.9829 29.1003L29.3029 29.6038L29.7143 30.2904L30.1943 31.2288L30.7429 32.4417L31.3829 34.1354L32.1143 36.5156L32.8686 39.651L33.5543 43.6104L33.76 44.5945ZM16.9371 46.1737L21.8286 49.0574C23.1771 49.8356 24.8229 49.8356 26.1486 49.0574L30.88 46.2881L30.6971 44.8692L17.0057 44.4343L16.9371 46.1737ZM33.4857 4.8634L45.8514 12.0956C47.1771 12.8966 48 14.3385 48 15.9176V38.9873C48 40.5665 47.1771 42.0084 45.8286 42.7865L26.1486 54.3213C24.8 55.0995 23.1543 55.0995 21.8286 54.3213L2.17143 42.7865C0.822857 42.0084 0 40.5665 0 38.9873V15.9176C0 14.3385 0.822857 12.8966 2.17143 12.1185L21.8514 0.583608C23.2 -0.194536 24.8457 -0.194536 26.1714 0.583608L33.2114 4.7032L33.3029 4.72608L33.4857 4.8634Z" fill="#DB0A5B"/>
</svg>
