<svg width="52" height="49" viewBox="0 0 52 49" fill="none" xmlns="http://www.w3.org/2000/svg">
<path fill-rule="evenodd" clip-rule="evenodd" d="M27.6416 0C31.8398 0 35.2274 3.43827 35.2274 7.69919C35.2274 11.9601 31.819 15.3984 27.6416 15.3984C23.4641 15.3984 20.0557 11.9601 20.0557 7.69919C20.0557 3.43827 23.4433 0 27.6416 0Z" fill="#7B83EB"/>
<path fill-rule="evenodd" clip-rule="evenodd" d="M27.1017 9.34473H20.2224L20.264 9.49238V9.51348L20.3055 9.66113C21.3447 13.6478 25.2935 16.1158 29.2631 15.2299V11.5385C29.2631 10.3361 28.2863 9.34473 27.1017 9.34473Z" fill="black" fill-opacity="0.1"/>
<path fill-rule="evenodd" clip-rule="evenodd" d="M25.4593 10.9883H20.7831C22.0301 13.6672 24.7111 15.3969 27.6416 15.3969V13.2031C27.6208 11.9797 26.6647 11.0094 25.4593 10.9883Z" fill="black" fill-opacity="0.2"/>
<path fill-rule="evenodd" clip-rule="evenodd" d="M44.7049 4.40918C47.8431 4.40918 50.3995 7.0037 50.3995 10.1888C50.3995 13.374 47.8431 15.9685 44.7049 15.9685C41.5666 15.9685 39.0103 13.374 39.0103 10.1888C39.0103 7.0037 41.5666 4.40918 44.7049 4.40918Z" fill="#5059C9"/>
<path fill-rule="evenodd" clip-rule="evenodd" d="M49.5681 17.5908H36.7864C36.2045 17.5908 35.7472 18.0549 35.7472 18.6455V32.0189C35.6641 36.0056 38.3659 39.5071 42.19 40.4142C46.5961 41.3423 50.8982 38.4946 51.8335 34.0228C51.9582 33.4743 51.9997 32.9048 51.9997 32.3353V20.0799C52.0205 18.7088 50.919 17.5908 49.5681 17.5908Z" fill="#5059C9"/>
<path fill-rule="evenodd" clip-rule="evenodd" d="M40.6313 20.0815V35.7541C40.6313 43.0314 34.812 48.9377 27.6418 48.9588C22.9864 48.9588 18.705 46.4486 16.3773 42.3564C16.0655 41.8291 15.7954 41.2807 15.5667 40.7111C15.3589 40.1627 15.1719 39.6143 15.0264 39.0658C14.7562 37.9901 14.6315 36.8721 14.6107 35.7752V20.0815C14.6107 18.7104 15.6914 17.6136 17.0424 17.6136H38.1789C39.5506 17.5925 40.6313 18.7104 40.6313 20.0815Z" fill="#7B83EB"/>
<path fill-rule="evenodd" clip-rule="evenodd" d="M29.2629 17.5908V38.4946C29.2629 39.5282 28.5563 40.4142 27.5795 40.6251C27.434 40.6673 27.2677 40.6884 27.1015 40.6884H15.5667C15.3589 40.161 15.1719 39.5915 15.0264 39.0431C14.7562 37.9673 14.6315 36.8493 14.6107 35.7525V20.0799C14.6107 18.7088 15.6914 17.6119 17.0424 17.6119H29.2629V17.5908Z" fill="black" fill-opacity="0.1"/>
<path fill-rule="evenodd" clip-rule="evenodd" d="M27.6418 17.5908V40.1399C27.6418 40.3087 27.621 40.4564 27.5795 40.6251C27.3716 41.6165 26.4987 42.3337 25.4804 42.3337H16.3773C16.0655 41.8063 15.7954 41.2579 15.5667 40.6884C15.3589 40.161 15.1719 39.5915 15.0264 39.0431C14.7562 37.9673 14.6315 36.8493 14.6107 35.7525V20.0799C14.6107 18.7088 15.6914 17.6119 17.0424 17.6119H27.6418V17.5908Z" fill="black" fill-opacity="0.2"/>
<path fill-rule="evenodd" clip-rule="evenodd" d="M27.6418 17.5908V36.8493C27.6418 38.0517 26.665 39.0431 25.4804 39.0431H15.0264C14.7562 37.9673 14.6315 36.8493 14.6107 35.7525V20.0799C14.6107 18.7088 15.6914 17.6119 17.0424 17.6119H27.6418V17.5908Z" fill="black" fill-opacity="0.2"/>
<path opacity="0.2" fill-rule="evenodd" clip-rule="evenodd" d="M17.0632 17.5908C15.7123 17.5908 14.6316 18.6877 14.6316 20.0588V35.7314C14.6316 36.8493 14.7771 37.9462 15.0473 39.022H23.8594C25.044 39.022 26.0208 38.0306 26.0208 36.8282V17.5908H17.0632Z" fill="black"/>
<path fill-rule="evenodd" clip-rule="evenodd" d="M2.16146 10.9883H23.8384C25.0438 10.9883 25.9998 11.9797 25.9998 13.182V35.1827C25.9998 36.4062 25.023 37.3765 23.8384 37.3765H2.16146C0.976813 37.3976 0 36.4062 0 35.2038V13.2031C0 11.9797 0.976813 10.9883 2.16146 10.9883Z" fill="#4B53BC"/>
<path fill-rule="evenodd" clip-rule="evenodd" d="M19.474 19.2158H14.6107V32.4415H11.4308V19.2158H6.526V15.9463H19.474V19.2158Z" style="fill:white"/>
</svg>
