<svg width="60" height="49" viewBox="0 0 60 49" fill="none" xmlns="http://www.w3.org/2000/svg">
<path d="M59.5566 17.9798C56.75 4.96156 41.2323 -2.68848 24.8988 0.87388C8.56528 4.43624 -2.36725 17.8977 0.439309 30.9159C3.24587 43.9341 18.7635 51.5841 35.0971 48.0053C51.4306 44.4265 62.3794 31.0144 59.5566 17.9798ZM30.0061 36.4482C23.4139 36.4482 18.0782 31.08 18.0782 24.4478C18.0782 17.8156 23.4139 12.4474 30.0061 12.4474C36.5982 12.4474 41.934 17.8156 41.934 24.4478C41.934 27.6326 40.6775 30.686 38.4421 32.9351C36.1903 35.1841 33.1716 36.4482 30.0061 36.4482Z" fill="#008C99"/>
<path d="M32.6327 7.65625C23.1851 7.65625 15.516 15.372 15.516 24.877C15.516 34.3821 23.1851 42.0978 32.6327 42.0978C42.0804 42.0978 49.7495 34.3821 49.7495 24.877C49.7495 20.3133 47.9383 15.9301 44.7401 12.6961C41.5419 9.46205 37.1852 7.65625 32.6327 7.65625ZM29.9894 34.9239C24.2294 34.9239 19.579 30.2288 19.579 24.4502C19.579 18.6716 24.2457 13.9766 29.9894 13.9766C35.733 13.9766 40.3997 18.6716 40.3997 24.4502C40.416 30.2288 35.7493 34.9239 29.9894 34.9239Z" fill="#70CCD3"/>
</svg>
