<svg width="32" height="32" viewBox="0 0 32 32" fill="none" xmlns="http://www.w3.org/2000/svg">
<path fill-rule="evenodd" clip-rule="evenodd" d="M17.5948 0.230753L16.9368 8.33207C16.6258 8.29596 16.3148 8.2779 15.9958 8.2779C15.5966 8.2779 15.2053 8.30398 14.8221 8.36618L14.449 4.44191C14.441 4.31752 14.5393 4.20919 14.6636 4.20919H15.3297L15.0087 0.240784C15.0007 0.116395 15.099 0.00805664 15.2134 0.00805664H17.3902C17.5146 0.00805664 17.6129 0.116395 17.5948 0.230753ZM14.2624 8.46448C13.5602 8.62498 12.8941 8.88179 12.2802 9.21884L10.5829 5.65771C10.5307 5.55138 10.5829 5.41897 10.6993 5.37282L11.3292 5.1421L9.66804 1.51878C9.61587 1.41245 9.66804 1.28003 9.7844 1.23389L11.8288 0.487555C11.9431 0.443417 12.0675 0.515643 12.1036 0.63C12.1117 0.63 14.2624 8.46448 14.2624 8.46448ZM7.09199 2.88705L11.7927 9.51176C11.1968 9.90298 10.6551 10.3644 10.1937 10.8981L7.37487 8.12743C7.2866 8.03915 7.29663 7.89671 7.3849 7.81646L7.90051 7.38912L5.09976 4.55627C5.01149 4.46799 5.02152 4.32555 5.11782 4.2453L6.78102 2.85094C6.87732 2.77069 7.01174 2.78875 7.08196 2.88705H7.09199ZM9.83857 11.3415C9.41123 11.9012 9.06616 12.5232 8.80735 13.1892L5.21813 11.5461C5.10177 11.502 5.05763 11.3595 5.11982 11.2532L5.45688 10.6754L1.8496 8.97006C1.74327 8.9179 1.69913 8.78348 1.76133 8.67715L2.84471 6.79527C2.90691 6.68893 3.04935 6.65282 3.14766 6.72304L9.83857 11.3415ZM0.489354 11.839C0.50741 11.7146 0.631799 11.6444 0.746156 11.6705L8.61073 13.7229C8.40609 14.389 8.29174 15.0912 8.27368 15.8195L4.33738 15.4985C4.21299 15.4904 4.12271 15.3741 4.1508 15.2497L4.26515 14.5936L0.292739 14.2205C0.168351 14.2104 0.090106 14.0961 0.106156 13.9717L0.479322 11.831L0.489354 11.839ZM0.188413 17.1496L8.28371 16.4033C8.31982 17.1235 8.46227 17.8257 8.68296 18.4818L4.88108 19.5311C4.76471 19.5571 4.64033 19.4869 4.62227 19.3625L4.50791 18.7045L0.649855 19.7076C0.535498 19.7357 0.411109 19.6635 0.393053 19.5391L0.00985522 17.3984C-0.00820121 17.274 0.0720496 17.1597 0.196438 17.1496H0.188413ZM1.46039 22.7812C1.39819 22.6749 1.44233 22.5425 1.54866 22.4883L8.8896 19.0074C9.16446 19.6635 9.53763 20.2774 9.98102 20.8271L6.76497 23.1183C6.66666 23.1905 6.52421 23.1624 6.46202 23.0561L6.12496 22.4703L2.84672 24.7353C2.74841 24.8055 2.60597 24.7714 2.54377 24.6651C2.54377 24.6651 1.45036 22.7812 1.46039 22.7812ZM12.0073 22.5946L9.76835 25.8448C9.69813 25.9531 9.55569 25.9692 9.45738 25.8909L8.94177 25.4556L6.63255 28.7057C6.56033 28.804 6.42791 28.8221 6.3296 28.7418L4.65838 27.3475C4.56208 27.2672 4.55205 27.1248 4.64033 27.0365L10.3542 21.2545C10.8437 21.7681 11.4035 22.2215 12.0073 22.5946ZM9.22666 30.5355C9.11029 30.4913 9.05813 30.3569 9.11029 30.2506L12.4969 22.8615C13.1188 23.1805 13.7949 23.4212 14.4971 23.5536L13.5 27.3736C13.4739 27.4879 13.3415 27.5602 13.2252 27.516L12.5952 27.2853L11.5379 31.1313C11.5018 31.2457 11.3774 31.3179 11.261 31.2718L9.21863 30.5274L9.22666 30.5355ZM15.9978 23.7141C16.3971 23.7141 16.7883 23.6861 17.1695 23.6239L17.5426 27.5501C17.5527 27.6745 17.4544 27.7808 17.33 27.7808H16.6639L16.9829 31.7513C17.001 31.8756 16.9047 31.982 16.7803 31.982H14.6015C14.4871 31.982 14.3888 31.8756 14.3968 31.7513L15.0549 23.6519C15.3658 23.6961 15.6768 23.7141 15.9978 23.7141ZM19.4988 9.10248C18.8768 8.79151 18.2107 8.55075 17.4985 8.41031L18.4936 4.59038C18.5297 4.47401 18.6541 4.40379 18.7705 4.44793L19.4005 4.67865L20.4578 0.832633C20.4939 0.718276 20.6183 0.64605 20.7346 0.690188L22.777 1.43652C22.8934 1.48066 22.9475 1.60505 22.8934 1.72141L19.4988 9.10248ZM27.3553 4.94549L21.6394 10.7276C21.1599 10.2119 20.6102 9.76053 19.9963 9.38737L22.2353 6.1352C22.3075 6.0389 22.45 6.01082 22.5463 6.09107L23.0619 6.52643L25.3731 3.27627C25.4433 3.17796 25.5858 3.15991 25.6741 3.24016L27.3453 4.63451C27.4436 4.71477 27.4436 4.85721 27.3553 4.94549ZM30.4389 9.50173L23.098 12.9846C22.8131 12.3266 22.45 11.7126 22.0046 11.1629L25.2206 8.87176C25.3189 8.79151 25.4614 8.82762 25.5236 8.93395L25.8606 9.51176L29.1409 7.24668C29.2392 7.18448 29.3796 7.21057 29.4418 7.3169L30.5352 9.20078C30.5974 9.30712 30.5633 9.43953 30.447 9.4937L30.4389 9.50173ZM31.6026 12.4409L31.9757 14.5816C31.9938 14.706 31.9136 14.8123 31.7892 14.8304L23.6939 15.5847C23.6578 14.8565 23.5153 14.1643 23.2946 13.5062L27.0985 12.459C27.2129 12.4229 27.3373 12.5031 27.3553 12.6275L27.4717 13.2855L31.3277 12.2804C31.4441 12.2543 31.5685 12.3266 31.5845 12.4509L31.6026 12.4409ZM31.2294 20.2914L23.3648 18.239C23.5695 17.5729 23.6858 16.8728 23.7039 16.1445L27.6402 16.4635C27.7646 16.4815 27.8448 16.5879 27.8268 16.7123L27.7104 17.3703L31.6828 17.7435C31.8072 17.7595 31.8875 17.8659 31.8694 17.9903L31.4963 20.1309C31.4782 20.2553 31.3538 20.3276 31.2394 20.3015L31.2294 20.2914ZM29.1409 25.1847C29.0787 25.2911 28.9363 25.3171 28.8379 25.255L22.147 20.6365C22.5744 20.0768 22.9194 19.4548 23.1783 18.7887L26.7675 20.4319C26.8838 20.4861 26.928 20.6185 26.8658 20.7248L26.5287 21.3026L30.136 23.0079C30.2423 23.0621 30.2865 23.1945 30.2243 23.3008L29.1409 25.1847ZM20.1829 22.4582C20.7788 22.077 21.3124 21.6055 21.7839 21.0739L24.6007 23.8445C24.689 23.9328 24.689 24.0753 24.5907 24.1555L24.0751 24.5808L26.8758 27.4157C26.9561 27.504 26.9561 27.6464 26.8578 27.7247L25.1966 29.121C25.1063 29.1993 24.9638 29.1832 24.8936 29.0849L20.1929 22.4582H20.1829ZM20.1468 31.4824C20.0324 31.5266 19.908 31.4563 19.8719 31.34L17.7212 23.5075C18.4234 23.347 19.0895 23.0902 19.7034 22.7511L21.4007 26.3143C21.4529 26.4286 21.4007 26.563 21.2843 26.5971L20.6544 26.8279L22.3156 30.4532C22.3677 30.5676 22.3156 30.6919 22.1992 30.7361L20.1568 31.4824H20.1468Z" fill="black"/>
</svg>
