
<svg width="121" height="121" viewBox="0 0 121 121" fill="none" xmlns="http://www.w3.org/2000/svg">
<path fill-rule="evenodd" clip-rule="evenodd" d="M60.5 121C93.9132 121 121 93.9132 121 60.5C121 27.0868 93.9132 0 60.5 0C27.0868 0 0 27.0868 0 60.5C0 93.9132 27.0868 121 60.5 121ZM39.5279 61.5714C39.5279 50.0509 49.0476 40.5279 61.0191 40.5279C67.863 40.5279 73.9306 43.6501 77.8637 48.5017C80.2162 51.4036 84.4757 51.8489 87.3776 49.4964C90.2794 47.1439 90.7248 42.8844 88.3723 39.9826C81.9512 32.062 72.0682 27 61.0191 27C41.7808 27 26 42.3767 26 61.5714C26 80.7661 41.7808 96.1429 61.0191 96.1429C72.0682 96.1429 81.9512 91.0809 88.3723 83.1603C90.7248 80.2584 90.2794 75.9989 87.3776 73.6464C84.4757 71.2939 80.2162 71.7393 77.8637 74.6411C73.9306 79.4927 67.863 82.6149 61.0191 82.6149C49.0476 82.6149 39.5279 73.092 39.5279 61.5714ZM88.3789 68.3354C92.1145 68.3354 95.1429 65.3071 95.1429 61.5714C95.1429 57.8358 92.1145 54.8074 88.3789 54.8074C84.6432 54.8074 81.6149 57.8358 81.6149 61.5714C81.6149 65.3071 84.6432 68.3354 88.3789 68.3354Z" fill="#97A0B4"/>
</svg>
