<svg viewBox="0 0 485 256" fill="none" xmlns="http://www.w3.org/2000/svg">
<path d="M256.012 143.766V8.8763C256.01 7.68008 255.766 6.49668 255.295 5.39678C254.825 4.29688 254.138 3.30306 253.275 2.47501C252.411 1.64696 251.39 1.00167 250.271 0.577603C249.153 0.153538 247.96 -0.0405556 246.765 0.00704128C112.641 4.72472 4.77191 112.63 0.00705309 246.753C-0.0405438 247.949 0.153118 249.141 0.577182 250.26C1.00125 251.378 1.64668 252.4 2.47473 253.263C3.30279 254.126 4.29689 254.814 5.39679 255.284C6.49669 255.754 7.68009 255.998 8.87631 256H473.98C477.258 256 480.402 254.698 482.72 252.38C485.038 250.062 486.341 246.918 486.341 243.64V8.93532C486.343 7.74847 486.107 6.57318 485.646 5.47928C485.186 4.38537 484.51 3.39503 483.66 2.56686C482.81 1.7387 481.802 1.08954 480.696 0.657939C479.591 0.226341 478.41 0.0211188 477.224 0.0542641C430.785 1.6964 385.667 15.9373 346.7 41.2523C307.734 66.5673 276.386 102.003 256.012 143.766Z" fill="#353840"/>
</svg>