<svg xmlns="http://www.w3.org/2000/svg" xmlns:xlink="http://www.w3.org/1999/xlink" height="55.6" width="56.21" viewBox="0 0 55.6 56.21"><pattern id="New_Pattern_Swatch_5" data-name="New Pattern Swatch 5" width="102" height="91" viewBox="0 0 102 91"><rect class="cls-1" width="102" height="91"/><g id="bJJ3q6"><rect class="cls-1" width="102" height="91"/><g id="bJJ3q6-2"><use id="image" class="cls-2" transform="matrix(1, 0, 0, -1, 0, 91)" xlink:href="#image-2"/></g></g></pattern><pattern id="New_Pattern_Swatch_5-3" data-name="New Pattern Swatch 5" width="102" height="91" patternUnits="userSpaceOnUse" viewBox="0 0 102 91"><rect class="cls-1" width="102" height="91"/><g id="bJJ3q6-2-2" data-name="bJJ3q6"><rect class="cls-1" width="102" height="91"/><g id="bJJ3q6-2-3" data-name="bJJ3q6-2"><use id="image-3" data-name="image" class="cls-2" transform="matrix(1, 0, 0, -1, 0, 91)" xlink:href="#image-2"/></g></g></pattern><g id="Layer_2" data-name="Layer 2"><g id="Layer_1-2" data-name="Layer 1"><ellipse id="Oval" class="cls-3" cx="27.86" cy="28.54" rx="8.33" ry="8.4" transform="translate(-1.39 55.66) rotate(-88.53)"/><path class="cls-4" d="M29.3,8.61a17.9,17.9,0,0,0,2.09,8.56l-6.24-.09a17.87,17.87,0,0,0,2-7.77A18.3,18.3,0,0,0,24.64,0l7,.11A17.81,17.81,0,0,0,29.3,8.61Z"/><path class="cls-4" d="M42.76,15.3a17.92,17.92,0,0,0-4.42,7.62l-4.4-4.44a17.67,17.67,0,0,0,6.78-4.2,18.21,18.21,0,0,0,4.65-8.43l5,5A17.81,17.81,0,0,0,42.76,15.3Z"/><path class="cls-4" d="M47.12,29.59a17.68,17.68,0,0,0-8.48,2.24V25.56a17.6,17.6,0,0,0,7.75,1.86,17.9,17.9,0,0,0,9.21-2.66v7.07A17.68,17.68,0,0,0,47.12,29.59Z"/><path class="cls-4" d="M41,42.92a17.77,17.77,0,0,0-7.52-4.5L38,34a17.64,17.64,0,0,0,4.1,6.86,18.05,18.05,0,0,0,8.33,4.73l-5,5A17.81,17.81,0,0,0,41,42.92Z"/><path class="cls-4" d="M29.43,47.68a18,18,0,0,0,2.23,8.53H25.42a17.77,17.77,0,0,0,1.85-7.8,18.18,18.18,0,0,0-2.64-9.27h7A18,18,0,0,0,29.43,47.68Z"/><path class="cls-4" d="M13.71,41.32a17.84,17.84,0,0,0,4.42-7.61l4.41,4.43a17.63,17.63,0,0,0-6.79,4.2,18.24,18.24,0,0,0-4.64,8.43l-5-5A17.65,17.65,0,0,0,13.71,41.32Z"/><path class="cls-4" d="M8.48,27.46A17.65,17.65,0,0,0,17,25.22V31.5a17.4,17.4,0,0,0-7.74-1.87A18,18,0,0,0,0,32.29V25.22A17.68,17.68,0,0,0,8.48,27.46Z"/><path class="cls-4" d="M15.25,13.75a17.75,17.75,0,0,0,7.57,4.45l-4.41,4.44a17.76,17.76,0,0,0-4.17-6.84,18,18,0,0,0-8.38-4.67l5-5A17.88,17.88,0,0,0,15.25,13.75Z"/></g></g></svg>
