<svg width="50" height="52" viewBox="0 0 50 52" fill="none" xmlns="http://www.w3.org/2000/svg">
<path d="M0.213131 20.0545C0.0708023 19.8284 0.0423365 19.5598 0.099268 19.3054C1.46562 13.977 4.49722 9.19988 8.78132 5.69474C15.5846 0.140231 24.8075 -1.48513 33.1195 1.41226C33.3615 1.49706 33.5607 1.6808 33.6746 1.92107C33.7742 2.16134 33.7742 2.42988 33.6746 2.67015L32.4363 5.96328C32.2655 6.45796 31.7247 6.71236 31.2265 6.54276C24.7079 4.28138 17.4634 5.56754 12.1403 9.93483C8.82402 12.705 6.46136 16.4363 5.40813 20.6057C5.29426 21.0297 4.90998 21.3265 4.48299 21.3265H4.2695L0.85361 20.5068C0.597418 20.4502 0.383925 20.2806 0.241597 20.0686" fill="#52BE96"/>
<path d="M49.8009 28.2511C49.6444 28.0532 49.4024 27.9119 49.1462 27.8836L45.6592 27.5161C45.1468 27.4737 44.6771 27.8271 44.6202 28.3359C43.9939 33.0565 41.7167 37.3955 38.2011 40.618C32.6646 45.7202 24.6799 47.2467 17.6346 44.5472C17.1507 44.3634 16.5956 44.5896 16.4106 45.0842L15.0443 48.3774C14.9446 48.6176 14.9446 48.8862 15.0443 49.1264C15.1439 49.3667 15.3432 49.5646 15.5851 49.6494C18.5029 50.7942 21.6199 51.3737 24.7511 51.3737C31.0989 51.3737 37.2048 48.9992 41.859 44.7026C46.3424 40.5756 49.2174 35.007 49.986 28.986C50.0287 28.7316 49.9433 28.4631 49.7867 28.2652" fill="#52BE96"/>
<path d="M30.501 33.0433V29.4957C30.501 28.9587 30.0741 28.5346 29.5332 28.5205H0.967835C0.426986 28.5205 0 28.9587 0 29.4957V33.0433C0 33.5804 0.426986 34.0044 0.967835 34.0185H29.5332C30.0741 34.0185 30.501 33.5804 30.501 33.0433Z" fill="#52BE96"/>
<path d="M19.5132 16.6057V20.1532C19.5132 20.6762 19.9402 21.1143 20.4668 21.1284H49.0322C49.573 21.1284 50 20.6903 50 20.1532V16.6057C49.9858 16.0827 49.5588 15.6729 49.0322 15.6729H20.4668C19.9402 15.687 19.5132 16.111 19.5132 16.6481" fill="#52BE96"/>
<path d="M40.3928 4.81882C38.7702 4.79055 37.4466 6.07671 37.4181 7.67381C37.3897 9.2709 38.6849 10.5995 40.2932 10.6277C41.9157 10.656 43.2394 9.36984 43.2678 7.77274C43.2678 7.75861 43.2678 7.74447 43.2678 7.73034C43.2821 6.14738 42.0011 4.84708 40.3928 4.81882Z" fill="#52BE96"/>
<path d="M8.59671 39.9966C6.97417 39.9683 5.65051 41.2544 5.62204 42.8515C5.59358 44.4628 6.88877 45.7772 8.49708 45.8055C10.1196 45.8337 11.4433 44.5476 11.4718 42.9505C11.4718 42.9363 11.4718 42.9222 11.4718 42.9081C11.486 41.311 10.205 40.0107 8.59671 39.9966Z" fill="#52BE96"/>
</svg>
