<svg width="78" height="41" viewBox="0 0 78 41" fill="none" xmlns="http://www.w3.org/2000/svg">
<path d="M12.6499 36.5761C8.26574 36.5826 4.0122 35.0703 0.600245 32.2922C-0.107311 31.7377 -0.220515 31.3212 0.428077 30.6072C1.53658 29.3863 2.58612 28.1035 3.58142 26.7826C4.09793 26.0972 4.44699 26.1852 5.06492 26.6541C7.59325 28.5723 10.3622 29.8575 13.6311 29.6647C14.4585 29.6449 15.2726 29.4495 16.0202 29.0912C18.1264 28.0178 18.3481 25.3475 16.4542 23.9338C15.6618 23.3412 14.749 22.9818 13.8598 22.582C11.7749 21.68 9.66403 20.8351 7.59561 19.895C2.0979 17.3961 -0.305422 11.8912 1.9163 6.76003C3.50359 3.09014 6.51541 1.13621 10.2725 0.362721C15.3764 -0.68922 19.9543 0.56739 24.0109 3.86601C24.7185 4.4491 24.7845 4.87749 24.1666 5.57005C23.2694 6.56244 22.4322 7.60834 21.6595 8.70208C21.0887 9.51841 20.6642 9.63741 19.8057 9.01386C17.4684 7.31695 14.8669 6.46968 11.9518 7.09085C10.3386 7.43356 9.37629 8.33794 9.18525 9.61836C8.99421 10.8988 9.56969 11.9983 11.1735 12.7623C13.4046 13.8095 15.7066 14.7091 17.9754 15.6754C18.7325 15.999 19.4943 16.3108 20.2349 16.663C27.7963 20.2496 27.3718 30.136 21.3599 34.1581C18.6995 35.924 15.7844 36.6095 12.6499 36.5761Z" fill="white"/>
<path d="M47.5303 22.2822H42.1057C40.384 22.2822 38.66 22.3179 36.9382 22.2679C36.1505 22.2465 35.9406 22.544 35.9453 23.3008C35.9736 27.1349 35.9311 30.9667 35.9783 34.8008C35.9783 35.7361 35.7118 36.0384 34.7991 36.0074C32.9122 35.9455 31.0396 35.967 29.1598 36.0074C28.4193 36.0074 28.1339 35.7956 28.1362 34.9959C28.1598 23.8895 28.1598 12.783 28.1362 1.67654C28.1362 0.891153 28.4028 0.662677 29.1551 0.665057C35.814 0.688857 42.4721 0.688857 49.1294 0.665057C49.9077 0.665057 50.153 0.948271 50.1318 1.7051C50.0941 3.24493 50.0823 4.78715 50.1318 6.32698C50.1625 7.17187 49.8441 7.39796 49.0445 7.39082C45.0893 7.3575 41.1317 7.40748 37.1788 7.35274C36.1835 7.33846 35.9076 7.65023 35.9429 8.62363C36.0113 10.5966 35.9854 12.5744 35.9429 14.5497C35.9429 15.2637 36.1788 15.5303 36.8863 15.516C38.4123 15.4827 39.9524 15.516 41.4666 15.516C41.8534 15.516 42.2826 15.4494 42.5586 15.8111C44.1695 17.8769 45.7567 19.9618 47.5303 22.2822Z" fill="white"/>
<path d="M62.955 25.8658C62.955 26.3084 63.3064 26.5583 63.5305 26.863C66.4472 30.8296 69.3686 34.789 72.2947 38.7413C72.5636 39.1078 72.948 39.4172 73.0211 40.0908C70.6956 40.0908 68.4008 39.9813 66.1201 40.1289C64.5257 40.2312 63.547 39.7052 62.6814 38.3534C61.3913 36.34 59.8747 34.4741 58.37 32.4297C56.686 34.7168 55.0445 36.8731 53.4926 39.0936C52.9549 39.8599 52.3699 40.1312 51.4572 40.1098C48.8841 40.0527 46.3109 40.0908 43.4901 40.0908C43.9146 39.5196 44.1977 39.1198 44.5066 38.7318C47.4713 34.9572 50.4171 31.1636 53.4266 27.4246C53.9926 26.7107 53.9313 26.2942 53.4266 25.6254C51.2095 22.7123 49.0491 19.7564 46.8699 16.8196C46.6152 16.4768 46.3746 16.1198 46.1411 15.789C46.3911 15.3844 46.7378 15.513 47.0255 15.513C49.4124 15.513 51.8015 15.5296 54.1884 15.4915C54.4958 15.4698 54.8033 15.5321 55.0785 15.6721C55.3537 15.812 55.5864 16.0242 55.7521 16.2865C57.8276 19.1567 59.9408 21.9983 62.0517 24.8543C62.3252 25.2232 62.5045 25.692 62.9691 25.8967L62.955 25.8658Z" fill="white"/>
<path d="M62.955 25.8875C62.955 22.6912 62.9786 19.4926 62.955 16.2963C62.9261 15.5548 63.1793 14.8303 63.6625 14.271C65.3277 12.2313 66.9503 10.156 68.5494 8.06403C68.7096 7.82602 68.9291 7.63475 69.1858 7.50942C69.4424 7.38409 69.7273 7.32913 70.0117 7.35004C72.6674 7.38812 75.3254 7.3667 77.9764 7.3667C78.0943 7.80937 77.7405 7.96882 77.5684 8.19016C72.9237 13.8878 68.2719 19.579 63.613 25.264C63.422 25.502 63.2993 25.8233 62.9456 25.8804L62.955 25.8875Z" fill="white"/>
</svg>
