<svg width="54" height="55" viewBox="0 0 54 55" fill="none" xmlns="http://www.w3.org/2000/svg">
<path d="M13.5628 31.6237C13.129 30.2218 12.8093 28.705 12.8093 27.1881C12.8093 22.5227 15.0698 18.3169 18.6317 15.6969L12.4896 4.20577C4.95476 9.10101 0 17.5585 0 27.1881C0 30.8653 0.753488 34.4506 2.05497 37.6911L13.5628 31.6237ZM27.0114 41.3682C28.7239 41.3682 30.4592 41.0465 31.9662 40.4949L38.1082 51.9861C34.7746 53.5029 31.0072 54.3763 27.0343 54.3763C18.4262 54.3763 10.8913 50.3773 5.93657 44.0802L16.6909 36.8177C19.271 39.6446 22.9243 41.3682 27.0114 41.3682ZM27.0114 12.8931C25.2989 12.8931 23.5636 13.2149 22.0567 13.7664L15.9374 2.39016C19.271 0.873329 23.0385 0 27.0114 0C36.4871 0 44.8668 4.98717 49.7074 12.4564L38.2909 18.6387C35.6194 15.1684 31.6465 12.8931 27.0114 12.8931ZM41.0994 27.1881C41.0994 25.1197 40.6655 23.1892 39.912 21.4425L50.7806 14.295C52.8355 18.0871 54 22.5227 54 27.1881C54 36.8177 49.0452 45.2752 41.5104 50.1475L35.3683 38.6563C38.8389 36.0593 41.0994 31.8535 41.0994 27.1881ZM29.1577 25.993C28.6097 24.9129 27.2169 24.4762 26.0296 25.0278L17.3074 29.5783C17.1019 28.8199 16.9877 27.9465 16.9877 27.1881C16.9877 21.6724 21.3945 17.2138 26.8973 17.2138C32.4 17.2138 36.8068 21.6494 36.8068 27.1881C36.8068 32.7269 32.4 37.1625 26.8973 37.1625C24.3171 37.1625 21.9425 36.1972 20.23 34.4506L28.4042 29.0267C29.386 28.3832 29.7057 27.0732 29.1577 25.993Z" fill="#3B7EF4"/>
</svg>
