<svg xmlns="http://www.w3.org/2000/svg" width="32" height="32" viewBox="0 0 32 32">
  <path fill-rule="evenodd" d="M10.545 16.687a1.96 1.96 0 0 0 .09-.642 2.064 2.064 0 0 0-.072-.465 1.958 1.958 0 0 0-.917-1.182l-6.69-3.863a1.968 1.968 0 0 0-2.69.722 1.963 1.963 0 0 0 .72 2.69l3.738 2.162-3.738 2.155a1.97 1.97 0 1 0 1.97 3.413l6.69-3.865a1.96 1.96 0 0 0 .9-1.125Zm1.816 3.62a1.939 1.939 0 0 0-1.144.257l-6.694 3.86a1.977 1.977 0 0 0-.72 2.697 1.966 1.966 0 0 0 2.689.718l3.75-2.164v4.323a1.97 1.97 0 1 0 3.942 0V22.27c0-1.038-.805-1.89-1.823-1.963Zm6.855-8.4c.384.032.782-.05 1.141-.256l6.694-3.864a1.974 1.974 0 0 0 .72-2.695 1.967 1.967 0 0 0-2.689-.72l-3.748 2.166V2.214a1.97 1.97 0 0 0-3.94 0v7.728c0 1.037.801 1.89 1.822 1.966ZM4.523 7.788l6.694 3.864c.36.206.76.288 1.143.257a1.973 1.973 0 0 0 1.824-1.966V2.214a1.971 1.971 0 0 0-3.941 0v4.324L6.492 4.372a1.968 1.968 0 0 0-2.69.72 1.974 1.974 0 0 0 .72 2.695Zm12.58 8.305a.59.59 0 0 0-.147-.351l-.806-.802a.568.568 0 0 0-.348-.145h-.031a.561.561 0 0 0-.347.145l-.805.802a.577.577 0 0 0-.143.351v.032a.56.56 0 0 0 .143.347l.805.804c.08.08.235.145.347.145h.031a.568.568 0 0 0 .348-.145l.806-.804a.573.573 0 0 0 .147-.347v-.032Zm2.224.772-2.782 2.778a.553.553 0 0 1-.35.15h-.818a.564.564 0 0 1-.349-.15l-2.78-2.778a.562.562 0 0 1-.145-.347v-.819c0-.114.065-.271.144-.35l2.781-2.78a.561.561 0 0 1 .35-.146h.817a.56.56 0 0 1 .349.146l2.782 2.78a.57.57 0 0 1 .144.35v.819a.562.562 0 0 1-.144.347Zm7.723 7.56-6.693-3.86a1.923 1.923 0 0 0-1.14-.257 1.967 1.967 0 0 0-1.824 1.963v7.728a1.97 1.97 0 1 0 3.941 0v-4.323l3.748 2.163a1.965 1.965 0 0 0 2.69-.717 1.977 1.977 0 0 0-.721-2.697Zm3.54-10.477-3.739 2.162 3.738 2.155a1.97 1.97 0 1 1-1.969 3.413l-6.694-3.865a1.953 1.953 0 0 1-.894-1.125 1.935 1.935 0 0 1-.02-1.107c.135-.481.449-.911.914-1.182l6.694-3.863a1.97 1.97 0 0 1 1.97 3.412Z" clip-rule="evenodd"/>
</svg>