<svg xmlns="http://www.w3.org/2000/svg" data-name="Layer 1" viewBox="0 0 592.48 528"><path fill="#014477" d="M414.02 273H296.24a8.72 8.72 0 0 1-7.71-4.19l-58.9-100.64a8.82 8.82 0 0 1 0-8.89L318.51 4.61a8.933 8.933 0 0 1 15.48 8.92l-86.3 150.41L301.36 256h107.53l86.3-147.91A8.9 8.9 0 1 1 510.6 117l-88.88 151.83a8.69 8.69 0 0 1-7.7 4.17z"/><path fill="#014477" d="M326.23 527.55a8.92 8.92 0 0 1-7.73-4.46l-88.89-153.72a8.92 8.92 0 0 1 0-9l58.9-100.17a8.75 8.75 0 0 1 7.7-4.22h117.81a8.75 8.75 0 0 1 7.71 4.24l87.72 150.55a8.87 8.87 0 0 1-3.22 12.16 9 9 0 0 1-12.2-3.48L408.89 273H301.31l-53.68 91.7L333.94 514a9 9 0 0 1-7.71 13.55z"/><path fill="#014477" d="M237.31 374H62.02c-4.93 0-8.93-4.57-8.93-9.5s4-9.5 8.93-9.5h170.2l53.69-91.5-53.7-91.5H62.02a9 9 0 0 1 0-18h175.29a8.93 8.93 0 0 1 7.71 4.43l58.9 100.93a8.93 8.93 0 0 1 0 9l-58.9 101.07a9.07 9.07 0 0 1-7.71 4.57z"/><path fill="#014477" d="M173.31 527.91c-16.51 0-35.91-11.25-44.16-25.54L6.2 289.37c-8.25-14.29-8.25-36.68 0-51l122.95-213C137.31 11.24 156.74 0 173.31 0h245.87c16.55 0 36 11.24 44.16 25.45L586.31 238.3c8.26 14.3 8.26 36.72 0 51l-123 213.09c-8.25 14.3-27.65 25.61-44.16 25.61zM419.18 520zM173.31 18c-10.24 0-23.65 7.7-28.7 16.45L21.65 247.35c-5.09 8.82-5.09 24.29 0 33.11L144.6 493.39c5.09 8.83 18.5 16.61 28.71 16.61h245.87c10.19 0 23.61-7.78 28.7-16.6l122.95-213c5.1-8.83 5.1-24.32 0-33.15L447.89 34.46C442.84 25.71 429.42 18 419.19 18H173.31z"/><path fill="#014477" d="M355.13 374H237.31a9.06 9.06 0 0 1-7.71-4.57l-58.89-101a9 9 0 0 1 0-9l58.89-100.95a8.94 8.94 0 0 1 7.71-4.48h117.82a8.92 8.92 0 0 1 7.71 4.43l58.89 100.93a8.93 8.93 0 0 1 0 9l-58.89 101.07a9.06 9.06 0 0 1-7.71 4.57zm-112.66-19H350l53.68-91.5L350 172H242.46l-53.68 91.5z"/></svg>