<svg width="52" height="52" viewBox="0 0 52 52" fill="none" xmlns="http://www.w3.org/2000/svg">
<path d="M36.57 0.00173362C32.69 0.00173362 28.97 1.54173 26.23 4.28173C23.49 7.02173 21.95 10.7417 21.95 14.6217V17.3617H29.26V14.6217C29.26 13.1717 29.69 11.7617 30.49 10.5617C31.29 9.36173 32.44 8.42173 33.77 7.87173C35.11 7.32173 36.58 7.17173 38 7.46173C39.42 7.74173 40.72 8.44173 41.74 9.46173C42.76 10.4817 43.46 11.7917 43.74 13.2117C44.02 14.6317 43.88 16.1017 43.32 17.4417C42.77 18.7817 41.83 19.9217 40.63 20.7217C39.43 21.5217 38.01 21.9517 36.57 21.9517H14.63C10.75 21.9517 7.03 23.4917 4.29 26.2317C1.54 28.9817 0 32.7017 0 36.5817C0 40.4617 1.54 44.1817 4.28 46.9217C7.02 49.6617 10.74 51.2017 14.62 51.2017H17.36V43.8917H14.62C12.68 43.8917 10.82 43.1217 9.45 41.7517C8.08 40.3817 7.31 38.5217 7.31 36.5817C7.31 34.6417 8.08 32.7817 9.45 31.4117C10.82 30.0417 12.68 29.2717 14.62 29.2717H21.93V51.2117H29.24V29.2617H36.55C38.49 29.2917 40.42 28.9317 42.22 28.2117C44.02 27.4917 45.66 26.4217 47.05 25.0517C48.43 23.6917 49.53 22.0617 50.28 20.2717C51.03 18.4817 51.42 16.5617 51.42 14.6217C51.42 12.6817 51.03 10.7617 50.28 8.97173C49.53 7.18173 48.43 5.56173 47.05 4.19173C45.67 2.83173 44.03 1.76173 42.22 1.03173C40.44 0.331734 38.52 -0.0282664 36.57 0.00173362Z" fill="white"/>
</svg>
