<svg width="47" height="48" viewBox="0 0 47 48" fill="none" xmlns="http://www.w3.org/2000/svg">
<path d="M38.0104 6.14258H29.3309C27.7782 6.14258 26.5137 7.41102 26.5137 8.98002V23.9874C26.5137 25.5513 27.7731 26.8248 29.3309 26.8248H38.0104C39.5631 26.8248 40.8276 25.5564 40.8276 23.9874V8.97493C40.8276 7.41102 39.5682 6.14258 38.0104 6.14258Z" fill="white"/>
<path d="M17.5965 6.14258H8.91712C7.36434 6.14258 6.09985 7.41102 6.09985 8.98002V35.8007C6.09985 37.3646 7.35928 38.6382 8.91712 38.6382H17.5965C19.1493 38.6382 20.4138 37.3697 20.4138 35.8007V8.97493C20.4138 7.41102 19.1544 6.14258 17.5965 6.14258Z" fill="white"/>
</svg>
