<svg width="30" height="30" viewBox="0 0 30 30" fill="none" xmlns="http://www.w3.org/2000/svg">
<path fill-rule="evenodd" clip-rule="evenodd" d="M21.2555 29.7952C21.728 29.9792 22.2668 29.9674 22.7437 29.738L28.9202 26.766C29.5692 26.4537 29.9819 25.7968 29.9819 25.0762V4.92404C29.9819 4.20341 29.5692 3.54656 28.9202 3.23426L22.7437 0.262157C22.1178 -0.0390082 21.3853 0.0347585 20.836 0.434113C20.7575 0.491164 20.6828 0.55486 20.6126 0.625054L8.78846 11.4125L3.63809 7.50293C3.15866 7.13897 2.48802 7.16882 2.04273 7.57385L0.390843 9.07649C-0.153832 9.57197 -0.154456 10.4289 0.389493 10.9251L4.85606 15L0.389493 19.075C-0.154456 19.5713 -0.153832 20.4282 0.390843 20.9236L2.04273 22.4262C2.48802 22.8313 3.15866 22.8611 3.63809 22.4972L8.78846 18.5876L20.6126 29.3751C20.7997 29.5622 21.0193 29.7032 21.2555 29.7952ZM22.4865 8.18972L13.5147 15L22.4865 21.8104V8.18972Z" fill="url(#paint0_linear_9904_18933)"/>
<defs>
<linearGradient id="paint0_linear_9904_18933" x1="14.9819" y1="0.0773924" x2="14.9819" y2="29.9227" gradientUnits="userSpaceOnUse">
<stop stop-color="white"/>
<stop offset="1" stop-color="white" stop-opacity="0"/>
</linearGradient>
</defs>
</svg>
