<svg width="50" height="47" viewBox="0 0 50 47" fill="none" xmlns="http://www.w3.org/2000/svg">
<path d="M24.6465 0H25.7832C27.5717 0.166918 29.3435 0.63429 30.9231 1.53565C33.7981 3.12138 35.9795 5.96734 36.7484 9.15548C37.2665 11.2253 37.1495 13.4369 36.4475 15.44C35.0601 15.0394 33.656 14.6721 32.2603 14.3049C32.4275 13.3368 32.5445 12.352 32.4442 11.3671C32.2269 8.82999 30.6055 6.43471 28.2988 5.34974C26.644 4.5986 24.7218 4.38161 22.975 4.91575C20.7352 5.56673 18.8798 7.35276 18.1192 9.56443C17.4841 11.3505 17.4673 13.4202 18.3867 15.1145C19.4732 17.1342 21.4456 18.4695 23.443 19.4961C21.4205 22.9346 19.3478 26.3648 17.3002 29.7866C16.8656 30.471 16.5981 31.3389 16.899 32.1401C17.3336 33.3086 17.5175 34.6105 17.1163 35.8124C16.3307 38.4163 13.1715 39.9519 10.6225 39.0506C8.39933 38.2994 6.91167 35.9125 7.1624 33.584C7.31284 32.1485 8.19874 30.8632 9.36881 30.062C10.355 29.361 11.5585 29.0605 12.7453 29.0271L17.3169 21.3572C16.0465 20.0719 14.9099 18.6364 14.141 16.9923C12.1018 12.6941 13.0211 7.18584 16.3474 3.77236C18.4703 1.48557 21.5208 0.116843 24.6465 0Z" fill="#C73C64"/>
<path d="M22.858 7.76961C24.1284 7.10194 25.6996 7.05186 27.0201 7.60269C28.7084 8.27036 29.962 9.90617 30.196 11.7089C30.3632 12.9942 29.845 14.2127 29.3603 15.3644C30.8312 17.9349 32.3189 20.5472 33.7982 23.1511C36.1717 22.4334 38.7542 22.2498 41.1612 22.9175C44.2703 23.7521 47.0199 25.8886 48.5577 28.7346C49.7612 30.9713 50.2292 33.6002 49.8949 36.104C49.5439 38.7413 48.307 41.2701 46.368 43.1063C44.3956 45.0091 41.763 46.1942 39.0384 46.4613H36.9657C34.1241 46.1609 31.4413 44.7921 29.4188 42.7891C30.5554 41.8377 31.692 40.9029 32.8287 39.9348C34.4835 40.9864 36.3389 41.8544 38.3364 41.8877C41.412 42.0213 44.1449 39.6177 45.0642 36.7717C45.7663 34.6184 45.4153 32.1564 44.1449 30.3036C42.9414 28.5677 41.0191 27.2156 38.8545 27.1155C36.5144 26.9986 34.2996 28.0669 32.3774 29.3188C30.5387 26.0472 28.6666 22.7839 26.853 19.4956C26.4853 18.828 26.0841 18.1603 25.4322 17.743C24.6299 17.1922 23.5935 17.2422 22.741 16.7916C21.0361 15.957 19.9997 14.0541 20.0833 12.1929C20.0917 10.3568 21.2032 8.57082 22.858 7.76961Z" fill="white"/>
<path d="M32.7117 32.2495C33.2968 31.2479 34.0991 30.4634 34.8513 29.9961C36.9908 28.5606 40.3757 29.3951 41.7964 31.4649C43.1671 33.301 42.9999 36.0635 41.4789 37.7494C40.0414 39.452 37.4338 39.9861 35.4363 38.9846C34.2997 38.4839 33.5475 37.4657 32.8789 36.4808H23.9111C23.2258 39.3351 21.688 42.081 19.2727 43.8336C16.5815 45.8533 13.0128 46.7213 9.70319 46.0536C4.43789 45.0771 0.234013 40.2031 0 34.8701V33.6516C0.183868 31.4482 0.902623 29.2533 2.1897 27.4339C3.8445 25.0302 6.41029 23.2525 9.2686 22.6016C9.65305 23.987 10.0375 25.3724 10.422 26.7829C8.90086 27.5841 7.41321 28.5188 6.25986 29.8208C5.17337 31.0226 4.48804 32.625 4.5549 34.2692C4.63848 36.3223 5.49096 38.3754 7.02876 39.7691C9.70319 42.2395 14.2748 42.2896 16.9827 39.8693C19.0387 37.933 19.4565 34.9035 19.3395 32.1994" fill="white"/>
</svg>
