<svg width="32" height="25" viewBox="0 0 32 25" fill="none" xmlns="http://www.w3.org/2000/svg">
<mask id="mask0_7321_16764" style="mask-type:alpha" maskUnits="userSpaceOnUse" x="0" y="0" width="15" height="8">
<path d="M0 0H14.7826V7.39116H0V0Z" fill="#03363D"/>
</mask>
<g mask="url(#mask0_7321_16764)">
<path fill-rule="evenodd" clip-rule="evenodd" d="M14.7826 -0.000244141C14.7826 4.08207 11.4736 7.39107 7.39131 7.39107C3.309 7.39107 0 4.08207 0 -0.000244141H14.7826Z" fill="#03363D"/>
</g>
<path fill-rule="evenodd" clip-rule="evenodd" d="M14.7826 6.40552V24.251H0L14.7826 6.40552Z" fill="#03363D"/>
<path fill-rule="evenodd" clip-rule="evenodd" d="M17.2192 24.2514C17.2192 20.1691 20.5282 16.8601 24.6105 16.8601C28.6929 16.8601 32.0003 20.1691 32.0003 24.2514H17.2192Z" fill="#03363D"/>
<mask id="mask1_7321_16764" style="mask-type:alpha" maskUnits="userSpaceOnUse" x="17" y="0" width="16" height="18">
<path d="M17.2192 0H32.0003V17.8463H17.2192V0Z" fill="#03363D"/>
</mask>
<g mask="url(#mask1_7321_16764)">
<path fill-rule="evenodd" clip-rule="evenodd" d="M17.2192 17.8463V-0.000732422H32.0003L17.2192 17.8463Z" fill="#03363D"/>
</g>
</svg>
