<svg width="24" height="24" viewBox="0 0 24 24" fill="none" xmlns="http://www.w3.org/2000/svg">
<path d="M21.54 10.8L13.24 2.5C13.0873 2.33392 12.9018 2.20134 12.6953 2.11065C12.4887 2.01996 12.2656 1.97313 12.04 1.97313C11.8144 1.97313 11.5913 2.01996 11.3847 2.11065C11.1781 2.20134 10.9927 2.33392 10.84 2.5L2.53999 10.8C2.37391 10.9527 2.24133 11.1382 2.15064 11.3447C2.05995 11.5513 2.01312 11.7744 2.01312 12C2.01312 12.2256 2.05995 12.4487 2.15064 12.6553C2.24133 12.8618 2.37391 13.0473 2.53999 13.2L10.84 21.5C10.9927 21.6661 11.1781 21.7987 11.3847 21.8893C11.5913 21.98 11.8144 22.0269 12.04 22.0269C12.2656 22.0269 12.4887 21.98 12.6953 21.8893C12.9018 21.7987 13.0873 21.6661 13.24 21.5L21.54 13.2C21.8291 12.8671 21.9884 12.441 21.9884 12C21.9884 11.559 21.8291 11.1329 21.54 10.8ZM13.5 17.5H10.5V15H13.5V17.5ZM13.5 12.5H10.5V6.49998H13.5V12.5Z" fill="#343A40"/>
</svg>
