<svg width="24" height="24" viewBox="0 0 24 24" fill="none" xmlns="http://www.w3.org/2000/svg">
<path d="M14.9995 4.99807H13.9995V3.99807H14.9995V4.99807ZM9.99951 4.99807H8.99951V3.99807H9.99951V4.99807ZM15.5315 2.15609L16.8355 0.852066C17.0305 0.656082 17.0305 0.340042 16.8355 0.144058C16.6405 -0.0509491 16.3235 -0.0509491 16.1285 0.144058L14.6515 1.62209C13.8505 1.22609 12.9525 0.998062 11.9995 0.998062C11.0415 0.998062 10.1395 1.22908 9.33648 1.6271L7.85351 0.144058C7.65753 -0.0509491 7.34149 -0.0509491 7.14551 0.144058C6.9505 0.340042 6.9505 0.656082 7.14551 0.852066L8.45752 2.16304C6.96948 3.25508 5.99951 5.01107 5.99951 6.99807H17.9995C17.9995 5.00704 17.0255 3.24709 15.5315 2.15609ZM20.4995 7.99807C19.6715 7.99807 18.9995 8.66908 18.9995 9.49806V16.498C18.9995 17.327 19.6715 17.998 20.4995 17.998C21.3275 17.998 21.9995 17.327 21.9995 16.498V9.49806C21.9995 8.66908 21.3275 7.99807 20.4995 7.99807ZM3.49951 7.99807C2.67151 7.99807 1.99951 8.66908 1.99951 9.49806V16.498C1.99951 17.327 2.67151 17.998 3.49951 17.998C4.32751 17.998 4.99951 17.327 4.99951 16.498V9.49806C4.99951 8.66908 4.32751 7.99807 3.49951 7.99807ZM5.99951 17.998C5.99951 18.5491 6.44848 18.998 6.99951 18.998H7.99951V22.498C7.99951 23.327 8.67151 23.998 9.49951 23.998C10.3275 23.998 10.9995 23.327 10.9995 22.498V18.998H12.9995V22.498C12.9995 23.327 13.6715 23.998 14.4995 23.998C15.3275 23.998 15.9995 23.327 15.9995 22.498V18.998H16.9995C17.5505 18.998 17.9995 18.5491 17.9995 17.998V7.99807H5.99951V17.998Z" fill="#646F7A"/>
</svg>
