<svg width="24" height="24" viewBox="0 0 24 24" fill="none" xmlns="http://www.w3.org/2000/svg">
<path fill-rule="evenodd" clip-rule="evenodd" d="M12.9909 4.56783C11.8027 4.56783 10.7284 5.06664 9.95675 5.87051C9.10769 4.76027 7.76853 4.04396 6.26171 4.04396C3.69521 4.04396 1.61459 6.12185 1.61459 8.68493C1.61385 9.31987 1.744 9.94816 1.99692 10.5306C0.803165 11.2281 0 12.5321 0 14.0258C0 16.2542 1.78787 18.0608 3.99349 18.0608C4.26936 18.061 4.54449 18.0323 4.81442 17.9754C5.42004 19.6192 6.99894 20.7912 8.85152 20.7912C10.6301 20.7912 12.1566 19.7108 12.8115 18.1698C13.3253 18.4204 13.8895 18.5502 14.4612 18.5495C15.8745 18.5495 17.1061 17.7706 17.7522 16.6182C18.0808 16.6845 18.4205 16.7195 18.7684 16.7195C21.6171 16.7195 23.9265 14.3898 23.9265 11.516C23.9265 8.64211 21.6171 6.31253 18.7684 6.31253C18.0494 6.31165 17.3384 6.46282 16.6819 6.75614C15.9483 5.44853 14.5702 4.56783 12.9909 4.56783ZM14.2594 9.93829C14.2144 9.92469 14.1687 9.91383 14.1224 9.90576C14.0601 9.89537 13.997 9.89048 13.9339 9.89117C13.6831 9.89117 13.4854 9.96203 13.3466 10.102C13.2087 10.2409 13.1149 10.4525 13.0679 10.7309L13.0509 10.8249H12.7361C12.7361 10.8249 12.6977 10.8233 12.6896 10.8652L12.6379 11.1536C12.6343 11.1812 12.6462 11.1984 12.6831 11.1982H12.9895L12.6786 12.9339C12.6542 13.0737 12.6264 13.1887 12.5955 13.2758C12.5651 13.3618 12.5354 13.4262 12.4988 13.473C12.4634 13.5182 12.4298 13.5516 12.3719 13.571C12.3241 13.5871 12.269 13.5945 12.2087 13.5945C12.1751 13.5945 12.1305 13.5888 12.0975 13.5822C12.0653 13.5759 12.0482 13.5687 12.0245 13.5587L12.0227 13.558C12.0227 13.558 11.9867 13.5443 11.9726 13.5803C11.9611 13.6098 11.8794 13.8344 11.8697 13.8622C11.8599 13.8896 11.8737 13.9112 11.8911 13.9175C11.9319 13.9321 11.9622 13.9414 12.0178 13.9545C12.095 13.9727 12.16 13.9738 12.2209 13.9738C12.3486 13.9738 12.4649 13.9559 12.5613 13.9211C12.6584 13.886 12.7429 13.8249 12.8176 13.7422C12.8984 13.6529 12.9492 13.5595 12.9978 13.432C13.0459 13.3057 13.0869 13.1488 13.1197 12.9661L13.4321 11.1982H13.8889C13.8889 11.1982 13.9274 11.1997 13.9354 11.1579L13.9871 10.8695C13.9907 10.8419 13.9789 10.8247 13.9418 10.8249H13.4985L13.5003 10.8138L13.5003 10.8138C13.5065 10.7742 13.5275 10.6397 13.5717 10.5121C13.5934 10.4494 13.6343 10.3989 13.6689 10.3641C13.7013 10.3311 13.7411 10.3063 13.7851 10.2919C13.8332 10.277 13.8835 10.2697 13.9339 10.2704C13.9757 10.2704 14.0166 10.2754 14.0478 10.2819C14.0908 10.2911 14.1075 10.2959 14.1188 10.2993C14.164 10.3131 14.17 10.2997 14.1789 10.2778L14.2849 9.98664C14.2958 9.95534 14.2693 9.94216 14.2594 9.93829ZM8.06392 12.9376C8.06392 12.9608 8.04739 12.9797 8.02418 12.9797H7.65645C7.63315 12.9797 7.61662 12.9608 7.61662 12.9376V9.97776C7.61662 9.95464 7.63315 9.93592 7.65645 9.93592H8.02418C8.04739 9.93592 8.06392 9.95464 8.06392 9.97776V12.9376ZM3.46549 12.7287C3.45306 12.7611 3.46485 12.7723 3.47204 12.7792C3.47292 12.78 3.47374 12.7808 3.47443 12.7815C3.47492 12.782 3.47534 12.7825 3.47569 12.783C3.51069 12.8084 3.54612 12.8283 3.58185 12.8483L3.6123 12.8656C3.85626 12.9947 4.08685 13.0326 4.32773 13.0326C4.81854 13.0326 5.12342 12.7717 5.12342 12.3515V12.3432C5.12342 11.9546 4.77925 11.8135 4.4567 11.7116L4.41459 11.6979C4.17134 11.619 3.9614 11.5507 3.9614 11.3904V11.3822C3.9614 11.245 4.08413 11.1442 4.27428 11.1442C4.48571 11.1442 4.73626 11.2144 4.89784 11.3037C4.89784 11.3037 4.94549 11.3344 4.96281 11.2884C4.97222 11.2636 5.05389 11.0436 5.06259 11.0198C5.07191 10.994 5.05556 10.9746 5.03876 10.9646C4.85424 10.8521 4.59938 10.7757 4.33556 10.7757L4.28659 10.7758C3.83736 10.7758 3.52369 11.0475 3.52369 11.4362V11.4446C3.52369 11.8542 3.86971 11.9874 4.19384 12.08L4.24589 12.0962C4.48193 12.1686 4.6858 12.2312 4.6858 12.3973V12.4055C4.6858 12.5576 4.55331 12.6706 4.33995 12.6706C4.25723 12.6706 3.99314 12.6692 3.70778 12.4887C3.68723 12.4767 3.67194 12.4668 3.65731 12.4572C3.64735 12.4507 3.63769 12.4444 3.6269 12.4378C3.61283 12.4293 3.57767 12.4139 3.56237 12.46L3.46549 12.7287ZM10.6505 12.7287C10.6381 12.7612 10.65 12.7724 10.6573 12.7792C10.6588 12.7806 10.6601 12.7818 10.6609 12.783C10.6956 12.8083 10.7309 12.8281 10.7664 12.8481L10.7974 12.8656C11.0414 12.9947 11.272 13.0326 11.5128 13.0326C12.0036 13.0326 12.3086 12.7717 12.3086 12.3515V12.3432C12.3086 11.9546 11.9645 11.8135 11.6418 11.7116L11.5997 11.6979C11.3565 11.619 11.1465 11.5507 11.1465 11.3904V11.3822C11.1465 11.245 11.2693 11.1442 11.4595 11.1442C11.6709 11.1442 11.9213 11.2144 12.0829 11.3037C12.0829 11.3037 12.1305 11.3344 12.148 11.2884C12.1573 11.2636 12.239 11.0436 12.2476 11.0198C12.257 10.994 12.2406 10.9746 12.2239 10.9646C12.0393 10.8521 11.7845 10.7757 11.5207 10.7757L11.4716 10.7758C11.0225 10.7758 10.7088 11.0475 10.7088 11.4362V11.4446C10.7088 11.8542 11.0548 11.9874 11.379 12.08L11.4309 12.0962C11.6671 12.1686 11.8709 12.2312 11.8709 12.3973V12.4055C11.8709 12.5576 11.7384 12.6706 11.5252 12.6706C11.4423 12.6706 11.1782 12.6692 10.8929 12.4887C10.8662 12.4731 10.8481 12.4613 10.8291 12.4489L10.8291 12.4489L10.812 12.4378C10.8031 12.4322 10.7617 12.416 10.7475 12.46L10.6505 12.7287ZM15.5556 11.9055C15.5556 12.1429 15.5113 12.3303 15.4243 12.4624C15.3378 12.5934 15.2072 12.6571 15.0251 12.6571C14.8431 12.6571 14.7132 12.5935 14.6281 12.4626C14.5422 12.3304 14.4986 12.1429 14.4986 11.9055C14.4986 11.6683 14.5422 11.4815 14.6281 11.3507C14.7132 11.221 14.8431 11.1581 15.0251 11.1581C15.2072 11.1581 15.3378 11.2211 15.4243 11.3508C15.5115 11.4815 15.5556 11.6683 15.5556 11.9055ZM15.9654 11.4653C15.9251 11.3291 15.8624 11.2093 15.779 11.1094C15.6954 11.0091 15.5896 10.9285 15.4643 10.8702C15.3391 10.8117 15.1914 10.7821 15.0251 10.7821C14.8589 10.7821 14.7111 10.8117 14.5858 10.8702C14.4607 10.9285 14.3548 11.0091 14.2712 11.1095C14.1879 11.2097 14.125 11.3293 14.0848 11.4653C14.0448 11.6004 14.0245 11.7486 14.0245 11.9055C14.0245 12.0625 14.0448 12.2107 14.0848 12.3457C14.125 12.4816 14.1877 12.6013 14.2713 12.7016C14.3549 12.802 14.461 12.8819 14.586 12.9389C14.7114 12.9959 14.8591 13.0249 15.0251 13.0249C15.1913 13.0249 15.3388 12.9959 15.4641 12.9389C15.5893 12.8819 15.6952 12.802 15.779 12.7016C15.8624 12.6017 15.9251 12.4818 15.9654 12.3457C16.0054 12.2105 16.0257 12.0623 16.0257 11.9055C16.0257 11.7487 16.0054 11.6005 15.9654 11.4653ZM19.3296 12.5936C19.3161 12.5538 19.2773 12.5688 19.2773 12.5688C19.2178 12.5916 19.1545 12.6127 19.0868 12.6232C19.0185 12.6339 18.943 12.6393 18.8622 12.6393C18.6642 12.6393 18.5064 12.5803 18.3938 12.4637C18.2806 12.3471 18.217 12.1586 18.2178 11.9036C18.2184 11.6719 18.2745 11.4973 18.375 11.3642C18.4747 11.232 18.627 11.1641 18.8294 11.1641C18.9985 11.1641 19.1275 11.1837 19.2626 11.2261C19.2626 11.2261 19.2947 11.2401 19.3101 11.1978L19.3422 11.1092C19.3641 11.0491 19.3848 10.9925 19.4109 10.9179C19.4218 10.8867 19.3951 10.8735 19.3853 10.8697C19.3322 10.849 19.2068 10.8149 19.1121 10.8006C19.0236 10.7871 18.9201 10.78 18.8047 10.78C18.6326 10.78 18.4792 10.8095 18.348 10.8679C18.2171 10.9262 18.1061 11.0067 18.0181 11.1068C17.9301 11.2071 17.8631 11.3269 17.8188 11.4629C17.7744 11.5981 17.752 11.7465 17.752 11.9038C17.752 12.2436 17.8437 12.5182 18.0245 12.7193C18.206 12.9211 18.4781 13.0236 18.8334 13.0236C19.0432 13.0236 19.2585 12.9812 19.4136 12.9202C19.4136 12.9202 19.4432 12.9059 19.4303 12.8715L19.3296 12.5936ZM20.0464 11.6779C20.066 11.5459 20.1021 11.4363 20.1585 11.3507C20.2435 11.221 20.3729 11.1495 20.555 11.1495C20.7371 11.1495 20.8571 11.2211 20.9436 11.3508C21.0008 11.4365 21.0258 11.5507 21.0355 11.6781L20.0464 11.6779ZM21.4257 11.388C21.3908 11.2567 21.3048 11.124 21.2483 11.0634C21.159 10.9672 21.0716 10.8999 20.9849 10.8627C20.8593 10.8093 20.7242 10.7819 20.5878 10.7821C20.4147 10.7821 20.2574 10.8113 20.1298 10.8711C20.0021 10.9311 19.8948 11.013 19.8106 11.1148C19.7263 11.2165 19.6631 11.3376 19.6228 11.4749C19.5823 11.6114 19.5619 11.7603 19.5619 11.9175C19.5619 12.0773 19.5831 12.2263 19.6248 12.3603C19.6669 12.4954 19.7345 12.614 19.8258 12.7127C19.9169 12.8118 20.0343 12.8895 20.1745 12.9436C20.314 12.9977 20.4835 13.0258 20.6779 13.0251C21.0786 13.0238 21.2893 12.9345 21.3763 12.8864C21.3917 12.8778 21.4062 12.8629 21.3881 12.8201L21.2974 12.5662C21.2835 12.5284 21.2452 12.5421 21.2452 12.5421L21.2183 12.5523C21.12 12.5901 20.9765 12.6453 20.6759 12.6447C20.4608 12.6443 20.3015 12.5807 20.2014 12.4815C20.099 12.38 20.0487 12.2309 20.0402 12.0202L21.4267 12.0213C21.4267 12.0213 21.4633 12.0209 21.4671 11.9852L21.4678 11.9797C21.4737 11.9374 21.5092 11.6814 21.4257 11.388ZM8.93969 11.6779C8.95929 11.5459 8.99551 11.4363 9.05177 11.3507C9.13687 11.221 9.2661 11.1495 9.44835 11.1495C9.6305 11.1495 9.7505 11.2211 9.83701 11.3508C9.89406 11.4365 9.91903 11.5507 9.92879 11.6781L8.93969 11.6779ZM10.3189 11.388C10.2841 11.2567 10.1981 11.124 10.1416 11.0634C10.0524 10.9672 9.96509 10.8999 9.87824 10.8627C9.75265 10.8093 9.61758 10.7819 9.48114 10.7821C9.30804 10.7821 9.15076 10.8113 9.0232 10.8711C8.89547 10.9311 8.78813 11.013 8.70382 11.1148C8.61969 11.2165 8.55648 11.3376 8.51595 11.4749C8.4756 11.6114 8.45529 11.7603 8.45529 11.9175C8.45529 12.0773 8.4763 12.2263 8.51824 12.3603C8.56026 12.4954 8.62795 12.614 8.71903 12.7127C8.81028 12.8118 8.92756 12.8895 9.06778 12.9436C9.20738 12.9977 9.3767 13.0258 9.57125 13.0251C9.97186 13.0238 10.1827 12.9345 10.2697 12.8864C10.285 12.8778 10.2996 12.8629 10.2814 12.8201L10.1908 12.5662C10.1768 12.5284 10.1385 12.5421 10.1385 12.5421L10.1117 12.5523C10.0134 12.5901 9.86997 12.6453 9.56914 12.6447C9.35419 12.6443 9.19481 12.5807 9.09468 12.4815C8.99235 12.38 8.94197 12.2309 8.93344 12.0202L10.3201 12.0213C10.3201 12.0213 10.3567 12.0209 10.3604 11.9852L10.3612 11.9798C10.367 11.9375 10.4026 11.6814 10.3189 11.388ZM5.94215 12.586C5.88773 12.5426 5.88017 12.532 5.86215 12.5037C5.83463 12.4613 5.82057 12.4008 5.82057 12.3233C5.82057 12.2016 5.86101 12.1138 5.94435 12.0549C5.94347 12.0551 6.06391 11.951 6.34654 11.9547C6.47263 11.957 6.59842 11.9677 6.72307 11.9868V12.6171H6.72325C6.72325 12.6171 6.54698 12.655 6.34857 12.667C6.06654 12.684 5.94127 12.5858 5.94215 12.586ZM6.49397 11.6114C6.43771 11.6073 6.36483 11.6053 6.27745 11.6053C6.15868 11.6053 6.04378 11.62 5.93591 11.6491C5.8276 11.6782 5.73019 11.7234 5.64641 11.7833C5.56268 11.8431 5.49383 11.9214 5.44518 12.012C5.39604 12.1036 5.37098 12.2111 5.37098 12.3316C5.37098 12.4546 5.39235 12.5611 5.43454 12.6482C5.47583 12.7345 5.53798 12.8091 5.61538 12.8653C5.69248 12.9214 5.7876 12.9626 5.89793 12.9877C6.00685 13.0126 6.13028 13.0251 6.26514 13.0251C6.40756 13.0251 6.54918 13.0132 6.68641 12.9901C6.80331 12.9699 6.91976 12.9473 7.03569 12.9222C7.08193 12.9116 7.13292 12.8976 7.13292 12.8976C7.1672 12.8889 7.16457 12.8522 7.16457 12.8522L7.16378 11.584C7.16378 11.3058 7.08958 11.0998 6.94338 10.9718C6.79789 10.8444 6.58364 10.78 6.30646 10.78C6.20237 10.78 6.03516 10.7941 5.93476 10.8142C5.93476 10.8142 5.632 10.873 5.50734 10.9706C5.50734 10.9706 5.47991 10.9875 5.49485 11.0258L5.59305 11.2895C5.60527 11.3237 5.63859 11.312 5.63859 11.312C5.63859 11.312 5.64905 11.3079 5.66136 11.3006C5.92808 11.1555 6.26558 11.1598 6.26558 11.1598C6.41538 11.1598 6.53081 11.1902 6.60835 11.2495C6.68404 11.3076 6.72246 11.3951 6.72246 11.58V11.6386C6.60351 11.6214 6.49397 11.6114 6.49397 11.6114ZM17.6795 10.897C17.6815 10.8923 17.6825 10.8873 17.6825 10.8823C17.6826 10.8772 17.6816 10.8722 17.6796 10.8676C17.6777 10.8629 17.6748 10.8587 17.6712 10.8552C17.6676 10.8516 17.6633 10.8489 17.6586 10.847C17.635 10.8381 17.5171 10.8132 17.4262 10.8076C17.2519 10.7967 17.1552 10.826 17.0686 10.8651C16.9826 10.9038 16.8874 10.9665 16.8343 11.038L16.8341 10.8688C16.8341 10.8456 16.8177 10.8269 16.7943 10.8269H16.4388C16.4157 10.8269 16.399 10.8456 16.399 10.8688V12.9376C16.399 12.9487 16.4035 12.9594 16.4114 12.9673C16.4193 12.9752 16.43 12.9797 16.4411 12.9797H16.8055C16.8167 12.9797 16.8274 12.9752 16.8353 12.9673C16.8431 12.9594 16.8476 12.9487 16.8476 12.9376V11.9042C16.8476 11.7654 16.8629 11.6271 16.8934 11.5401C16.9234 11.4541 16.9643 11.3855 17.0149 11.3362C17.0629 11.2886 17.1217 11.2532 17.1862 11.2331C17.2467 11.2158 17.3093 11.207 17.3722 11.2069C17.4447 11.2069 17.5246 11.2256 17.5246 11.2256C17.5513 11.2286 17.5661 11.2122 17.5752 11.1881C17.599 11.1247 17.6665 10.9348 17.6795 10.897Z" fill="#434A51"/>
</svg>