<svg width="24" height="24" viewBox="0 0 24 24" fill="none" xmlns="http://www.w3.org/2000/svg">
<path d="M12 2C6.47715 2 2 6.4772 2 12C2 17.5228 6.47715 22 12 22C17.5228 22 22 17.5228 22 12C21.9954 10.8425 21.7899 9.6946 21.3926 8.6074L19.7871 10.2129C19.9251 10.7987 19.9965 11.3982 20 12C20 16.4183 16.4183 20 12 20C7.58172 20 4 16.4183 4 12C4 7.5817 7.58172 4 12 4C12.6024 4.0027 13.2026 4.0735 13.7891 4.2109L15.3965 2.6035C14.3078 2.2071 13.1586 2.0029 12 2ZM19 2L15 6V7.5L12.4473 10.0527C12.3006 10.0184 12.1506 10.0007 12 10C10.8954 10 10 10.8954 10 12C10 13.1046 10.8954 14 12 14C13.1046 14 14 13.1046 14 12C13.9993 11.8494 13.9816 11.6994 13.9473 11.5527L16.5 9H18L22 5H19V2ZM12 6C8.68629 6 6 8.6863 6 12C6 15.3137 8.68629 18 12 18C15.3137 18 18 15.3137 18 12H16C16 14.2091 14.2091 16 12 16C9.79086 16 8 14.2091 8 12C8 9.7909 9.79086 8 12 8V6Z" fill="#434A51"/>
</svg>
