<svg width="24" height="24" viewBox="0 0 24 24" fill="none" xmlns="http://www.w3.org/2000/svg">
<path fill-rule="evenodd" clip-rule="evenodd" d="M12.6345 0.163288C12.242 -0.0544293 11.758 -0.0544293 11.3649 0.163288C10.399 0.698509 8.46713 1.76887 6.53024 2.842C4.57319 3.92629 2.61103 5.01342 1.63511 5.55421C1.242 5.77193 1 6.17422 1 6.60965V17.3909C1 17.8264 1.242 18.2281 1.63453 18.4458C2.82627 19.1058 5.48606 20.5795 7.81287 21.8687C9.27955 22.6813 10.6139 23.4207 11.3649 23.8367C11.7574 24.0544 12.2414 24.0544 12.6345 23.8367C13.8217 23.1793 16.4656 21.7143 18.7859 20.4287C20.2632 19.6102 21.6093 18.8644 22.3649 18.4458C22.758 18.2281 23 17.8258 23 17.3903V6.60908C23 6.17365 22.758 5.77135 22.3649 5.55421C21.1715 4.89332 18.5061 3.4165 16.1771 2.12604C14.7141 1.31546 13.3839 0.578413 12.6345 0.163288ZM12.0001 4C14.9303 4 17.4946 5.57861 18.8882 7.93107L15.4143 9.91605C14.7111 8.76718 13.4444 8.00005 12.0001 8.00005C9.79207 8.00005 8.00005 9.79207 8.00005 12.0001C8.00005 14.2076 9.79264 16.0001 12.0001 16.0001C13.4686 16.0001 14.7535 15.2068 15.4492 14.0258L18.9548 15.9545C17.5773 18.3702 14.9776 20.0002 12.0001 20.0002C7.58461 20.0002 4 16.4156 4 12.0001C4 7.58461 7.58461 4 12.0001 4Z" fill="#646F7A"/>
</svg>
