<svg width="20" height="20" viewBox="0 0 20 20" fill="none" xmlns="http://www.w3.org/2000/svg">
<path d="M16.6667 16.6666H3.33341C2.89139 16.6666 2.46746 16.4911 2.1549 16.1785C1.84234 15.8659 1.66675 15.442 1.66675 15V4.99998C1.66675 4.55795 1.84234 4.13403 2.1549 3.82147C2.46746 3.50891 2.89139 3.33331 3.33341 3.33331H16.6667C17.1088 3.33331 17.5327 3.50891 17.8453 3.82147C18.1578 4.13403 18.3334 4.55795 18.3334 4.99998V15C18.3334 15.442 18.1578 15.8659 17.8453 16.1785C17.5327 16.4911 17.1088 16.6666 16.6667 16.6666ZM4.16675 10.8333V12.5H13.3334V10.8333H4.16675ZM4.16675 7.49998V9.16665H15.8334V7.49998H4.16675Z" fill="black"/>
</svg>
