<svg width="24" height="24" viewBox="0 0 24 24" fill="none" xmlns="http://www.w3.org/2000/svg">
<path d="M12.0025 1.00073C8.135 1.00073 5 4.13625 5 7.9975C5 11.865 8.135 15 12.0025 15C15.8638 15 18.9988 11.865 18.9988 7.9975C18.9988 4.13625 15.8638 1.00073 12.0025 1.00073ZM11.9975 3.15405C14.6725 3.15405 16.8462 5.3225 16.8462 8.0025C16.8462 10.6788 14.6725 12.8513 11.9975 12.8513C9.31625 12.8513 7.14875 10.6788 7.14875 8.0025C7.14875 5.3225 9.31625 3.15405 11.9975 3.15405ZM11.0013 5V8.69125L14.19 10.5275L14.9362 9.22875L12.5 7.8225V5H11.0013ZM3.99875 16.0012V23.9988H6.00125V21.0012H17.9975V23.9988L22.0025 20L17.9975 16.0012V18.9988H6.00125V16.0012" fill="#434A51"/>
</svg>
