<svg width="24" height="24" viewBox="0 0 24 24" fill="none" xmlns="http://www.w3.org/2000/svg">
<path d="M14.19 14.19L6 18L9.81 9.80999L18 5.99999L14.19 14.19ZM12 1.99999C10.6868 1.99999 9.38642 2.25865 8.17317 2.7612C6.95991 3.26374 5.85752 4.00034 4.92893 4.92892C3.05357 6.80429 2 9.34783 2 12C2 14.6522 3.05357 17.1957 4.92893 19.0711C5.85752 19.9996 6.95991 20.7362 8.17317 21.2388C9.38642 21.7413 10.6868 22 12 22C14.6522 22 17.1957 20.9464 19.0711 19.0711C20.9464 17.1957 22 14.6522 22 12C22 10.6868 21.7413 9.38641 21.2388 8.17316C20.7363 6.9599 19.9997 5.85751 19.0711 4.92892C18.1425 4.00034 17.0401 3.26374 15.8268 2.7612C14.6136 2.25865 13.3132 1.99999 12 1.99999ZM12 10.9C11.7083 10.9 11.4285 11.0159 11.2222 11.2222C11.0159 11.4285 10.9 11.7083 10.9 12C10.9 12.2917 11.0159 12.5715 11.2222 12.7778C11.4285 12.9841 11.7083 13.1 12 13.1C12.2917 13.1 12.5715 12.9841 12.7778 12.7778C12.9841 12.5715 13.1 12.2917 13.1 12C13.1 11.7083 12.9841 11.4285 12.7778 11.2222C12.5715 11.0159 12.2917 10.9 12 10.9Z" fill="#434A51"/>
</svg>
