<svg width="20" height="20" viewBox="0 0 20 20" fill="none" xmlns="http://www.w3.org/2000/svg">
<path d="M9.99992 2.5C6.31659 2.5 3.33325 3.99167 3.33325 5.83333C3.33325 7.675 6.31659 9.16667 9.99992 9.16667C10.4166 9.16667 10.8333 9.14167 11.2499 9.1V7.91667H13.6583L12.8249 7.08333L15.7499 4.16667C14.5833 3.16667 12.4499 2.5 9.99992 2.5ZM15.7666 5.9L14.5833 7.08333L16.6666 9.16667H12.4999V10.8333H16.6666L14.5833 12.9167L15.7666 14.1L19.8666 10L15.7666 5.9ZM3.33325 7.5V10C3.33325 11.8417 6.31659 13.3333 9.99992 13.3333C10.9749 13.3333 11.8833 13.2083 12.7083 13.025L13.6499 12.0833H11.2499V10.7667C10.8333 10.8083 10.4166 10.8333 9.99992 10.8333C6.31659 10.8333 3.33325 9.34167 3.33325 7.5ZM3.33325 11.6667V14.1667C3.33325 16.0083 6.31659 17.5 9.99992 17.5C12.4499 17.5 14.5833 16.8333 15.7499 15.8333L14.1666 14.25C13.0083 14.7167 11.5833 15 9.99992 15C6.31659 15 3.33325 13.5083 3.33325 11.6667Z" fill="black"/>
</svg>
