<svg width="32" height="10" viewBox="0 0 32 10" fill="none" xmlns="http://www.w3.org/2000/svg">
<path d="M0.948 9H3.684C6.3 9 7.956 7.32 7.956 4.692C7.956 2.064 6.3 0.383999 3.684 0.383999H0.948V9ZM2.076 8.004V1.38H3.672C5.64 1.38 6.828 2.676 6.828 4.692C6.828 6.696 5.64 8.004 3.684 8.004H2.076ZM8.89322 4.692C8.89322 7.32 10.5492 9.132 12.8052 9.132C15.0612 9.132 16.7052 7.32 16.7052 4.692C16.7052 2.064 15.0612 0.252 12.8052 0.252C10.5492 0.252 8.89322 2.064 8.89322 4.692ZM15.5652 4.692C15.5652 6.732 14.4252 8.112 12.8052 8.112C11.1852 8.112 10.0452 6.732 10.0452 4.692C10.0452 2.652 11.1852 1.272 12.8052 1.272C14.4252 1.272 15.5652 2.652 15.5652 4.692ZM18.7874 4.692C18.7874 2.652 19.9154 1.272 21.5114 1.272C22.6274 1.272 23.4314 1.92 23.7434 3.012L24.8354 2.652C24.3314 1.164 23.1554 0.252 21.5114 0.252C19.2794 0.252 17.6354 2.064 17.6354 4.692C17.6354 7.32 19.2794 9.132 21.5114 9.132C23.1554 9.132 24.3314 8.22 24.8354 6.732L23.7434 6.372C23.4314 7.464 22.6274 8.112 21.5114 8.112C19.9154 8.112 18.7874 6.732 18.7874 4.692ZM25.2082 7.224C25.7962 8.388 27.2242 9.132 28.7122 9.132C30.4162 9.132 31.8442 8.112 31.8442 6.504C31.8442 4.68 30.2722 4.38 28.8442 4.044C27.6322 3.756 26.8282 3.564 26.8282 2.652C26.8282 1.824 27.5842 1.248 28.6282 1.248C29.7442 1.248 30.4282 1.812 30.8722 2.64L31.7482 1.944C31.2322 0.972 30.1522 0.252 28.6522 0.252C27.0202 0.252 25.7122 1.236 25.7122 2.748C25.7122 4.368 27.0562 4.74 28.4122 5.064C29.7202 5.376 30.7162 5.556 30.7162 6.6C30.7162 7.584 29.8522 8.136 28.7362 8.136C27.6202 8.136 26.6482 7.536 26.1082 6.504L25.2082 7.224Z" fill="#A7A9AC"/>
</svg>
