<svg width="24" height="24" viewBox="0 0 24 24" fill="none" xmlns="http://www.w3.org/2000/svg">
<path d="M2.64798 11.678C1.60998 9.86799 1.39898 8.17399 2.13698 6.89699C3.12498 5.18499 5.60498 4.58699 8.74098 5.15799C8.78407 5.16385 8.82553 5.17839 8.86286 5.20071C8.90019 5.22303 8.9326 5.25269 8.95815 5.28788C8.98371 5.32308 9.00186 5.36309 9.01153 5.40549C9.02119 5.4479 9.02217 5.49182 9.01439 5.53461C9.00662 5.5774 8.99026 5.61818 8.96629 5.65447C8.94233 5.69077 8.91126 5.72183 8.87496 5.74579C8.83867 5.76975 8.79789 5.78611 8.7551 5.79388C8.7123 5.80164 8.66838 5.80066 8.62598 5.79099C5.72598 5.26299 3.51498 5.79599 2.69398 7.21899C2.08898 8.26599 2.27098 9.72799 3.20598 11.359C3.22947 11.3957 3.24526 11.4368 3.25239 11.4798C3.25953 11.5229 3.25785 11.5669 3.24746 11.6092C3.23708 11.6516 3.2182 11.6913 3.19198 11.7262C3.16576 11.761 3.13274 11.7902 3.09492 11.8118C3.0571 11.8335 3.01527 11.8473 2.97196 11.8524C2.92866 11.8574 2.88478 11.8536 2.84299 11.8412C2.8012 11.8287 2.76236 11.808 2.72884 11.7801C2.69532 11.7522 2.66781 11.7178 2.64798 11.679V11.678ZM17.568 5.60899C19.403 5.63299 20.724 6.20499 21.319 7.23499C22.139 8.65399 21.499 10.83 19.601 13.072C19.5705 13.1037 19.5469 13.1413 19.5315 13.1825C19.5161 13.2236 19.5093 13.2675 19.5115 13.3114C19.5137 13.3553 19.5249 13.3983 19.5444 13.4377C19.5639 13.4771 19.5912 13.5122 19.6247 13.5406C19.6582 13.5691 19.6972 13.5903 19.7393 13.6032C19.7813 13.616 19.8255 13.62 19.8692 13.6151C19.9129 13.6102 19.9551 13.5964 19.9933 13.5745C20.0314 13.5526 20.0646 13.5232 20.091 13.488C22.145 11.062 22.862 8.62199 21.876 6.91299C21.15 5.65599 19.616 4.99299 17.577 4.96599C17.5333 4.96307 17.4895 4.96908 17.4483 4.98366C17.407 4.99823 17.3691 5.02106 17.337 5.05075C17.3049 5.08044 17.2791 5.11637 17.2613 5.15635C17.2435 5.19633 17.2341 5.23951 17.2335 5.28327C17.233 5.32702 17.2414 5.37043 17.2581 5.41084C17.2749 5.45125 17.2998 5.48781 17.3312 5.51829C17.3626 5.54877 17.3999 5.57254 17.4407 5.58813C17.4816 5.60373 17.5253 5.61083 17.569 5.60899H17.568ZM15.714 20.848C15.6777 20.8262 15.6376 20.8117 15.5957 20.8055C15.5539 20.7992 15.5112 20.8012 15.4702 20.8114C15.4291 20.8216 15.3905 20.8398 15.3565 20.865C15.3225 20.8901 15.2938 20.9217 15.272 20.958C14.338 22.511 13.192 23.357 12.012 23.357C10.37 23.357 8.80398 21.71 7.81198 18.939C7.79872 18.8979 7.77735 18.86 7.74913 18.8273C7.72092 18.7947 7.68643 18.7681 7.64773 18.749C7.60902 18.73 7.56688 18.7189 7.52381 18.7165C7.48074 18.714 7.43762 18.7203 7.39701 18.7348C7.35639 18.7493 7.31911 18.7719 7.28739 18.8011C7.25566 18.8304 7.23013 18.8657 7.21231 18.9049C7.19449 18.9442 7.18475 18.9867 7.18366 19.0298C7.18257 19.073 7.19016 19.1159 7.20598 19.156C8.27898 22.154 10.036 24 12.01 24C13.45 24 14.783 23.018 15.823 21.29C15.8448 21.2538 15.8592 21.2136 15.8655 21.1717C15.8718 21.1299 15.8698 21.0872 15.8595 21.0462C15.8493 21.0052 15.8311 20.9665 15.806 20.9325C15.7808 20.8985 15.7492 20.8698 15.713 20.848H15.714ZM23.07 18.254C23.0695 18.5368 22.9912 18.8141 22.8435 19.0553C22.6959 19.2966 22.4847 19.4925 22.233 19.6216C21.9814 19.7508 21.6991 19.8081 21.417 19.7873C21.1349 19.7666 20.864 19.6686 20.634 19.504C18.179 20.949 13.488 20.214 9.07398 17.664C7.19398 16.579 5.54698 15.272 4.27898 13.879C4.24852 13.8481 4.22462 13.8114 4.20871 13.771C4.1928 13.7307 4.1852 13.6875 4.18638 13.6442C4.18756 13.6008 4.19748 13.5581 4.21556 13.5187C4.23364 13.4793 4.2595 13.4439 4.29159 13.4147C4.32367 13.3855 4.36132 13.3631 4.40228 13.3489C4.44324 13.3346 4.48667 13.3287 4.52994 13.3316C4.57322 13.3346 4.61546 13.3462 4.65413 13.3658C4.6928 13.3855 4.7271 13.4128 4.75498 13.446C5.97698 14.789 7.57198 16.055 9.39498 17.107C13.562 19.513 17.948 20.227 20.192 19.013C20.0751 18.808 20.007 18.5788 19.9928 18.3432C19.9786 18.1077 20.0187 17.872 20.11 17.6544C20.2014 17.4368 20.3415 17.2431 20.5197 17.0883C20.6978 16.9334 20.9091 16.8216 21.1373 16.7614C21.3655 16.7013 21.6044 16.6943 21.8357 16.7412C22.067 16.788 22.2845 16.8874 22.4713 17.0317C22.658 17.1759 22.8092 17.3612 22.913 17.5731C23.0168 17.785 23.0705 18.018 23.07 18.254ZM4.00798 18.254C4.00847 18.5257 3.93709 18.7926 3.80109 19.0278C3.66508 19.2629 3.46929 19.4579 3.23358 19.593C2.99787 19.7281 2.73062 19.7984 2.45896 19.7968C2.18731 19.7952 1.9209 19.7218 1.68679 19.584C1.45267 19.4461 1.25918 19.2489 1.12593 19.0121C0.992691 18.7754 0.924445 18.5076 0.928119 18.236C0.931794 17.9643 1.00726 17.6985 1.14686 17.4654C1.28646 17.2324 1.48522 17.0404 1.72298 16.909C1.48998 14.032 4.51298 10.175 9.08298 7.53699C10.981 6.44099 12.957 5.66299 14.814 5.26599C14.8946 5.25463 14.9765 5.27422 15.0433 5.32082C15.11 5.36742 15.1566 5.43758 15.1737 5.51717C15.1908 5.59676 15.1772 5.67987 15.1355 5.74979C15.0938 5.8197 15.0271 5.87123 14.949 5.89399C13.159 6.27799 11.246 7.03099 9.40398 8.09399C5.09998 10.579 2.25598 14.161 2.35598 16.721C2.39398 16.718 2.43098 16.715 2.46898 16.715C3.31898 16.715 4.00898 17.405 4.00898 18.255L4.00798 18.254ZM10.472 1.53999C10.4863 1.14143 10.6548 0.763977 10.9418 0.487092C11.2289 0.210207 11.6122 0.055481 12.011 0.055481C12.4098 0.055481 12.7931 0.210207 13.0801 0.487092C13.3672 0.763977 13.5356 1.14143 13.55 1.53999C13.55 1.56299 13.548 1.58499 13.547 1.60699C16.096 2.92399 17.867 7.41699 17.867 12.61C17.867 14.745 17.569 16.794 17.013 18.57C17.0019 18.6121 16.9824 18.6515 16.9557 18.6859C16.9289 18.7202 16.8955 18.7488 16.8574 18.7699C16.8193 18.7909 16.7774 18.8041 16.7341 18.8085C16.6908 18.8129 16.647 18.8084 16.6055 18.7954C16.5639 18.7824 16.5254 18.7612 16.4923 18.7329C16.4592 18.7046 16.4322 18.6699 16.4129 18.6309C16.3936 18.5919 16.3824 18.5493 16.38 18.5059C16.3777 18.4624 16.3841 18.4189 16.399 18.378C16.935 16.666 17.224 14.681 17.224 12.61C17.224 7.71999 15.598 3.51499 13.377 2.24699C13.2189 2.55365 12.9622 2.79824 12.6483 2.94145C12.3344 3.08465 11.9815 3.11815 11.6463 3.03657C11.311 2.95498 11.013 2.76304 10.8 2.49161C10.587 2.22018 10.4715 1.88501 10.472 1.53999ZM11.776 11.521C11.633 11.5519 11.4974 11.6106 11.3771 11.6938C11.2568 11.7771 11.1541 11.8832 11.0748 12.0061C10.9146 12.2544 10.8597 12.5562 10.922 12.845C10.9843 13.1338 11.1588 13.386 11.4071 13.5462C11.6554 13.7064 11.9572 13.7613 12.246 13.699C12.5348 13.6367 12.787 13.4622 12.9472 13.2139C13.1073 12.9656 13.1623 12.6638 13.1 12.375C13.0377 12.0862 12.8631 11.8339 12.6148 11.6738C12.3665 11.5136 12.0648 11.4587 11.776 11.521Z" fill="#646F7A"/>
</svg>
