<svg width="24" height="24" viewBox="0 0 24 24" fill="none" xmlns="http://www.w3.org/2000/svg">
<path d="M3.82247 19.9976C2.64218 19.9976 1.46189 19.9976 0.284053 19.9976C0.237527 19.9976 0.188552 19.9976 0.142026 19.9976H0V5H0.21304C0.237527 5 0.259565 5 0.284053 5C1.27579 5 2.26508 5 3.25681 5C3.05112 5.35154 2.83808 5.72006 2.54913 6.1904C1.78512 7.43656 1.11172 9.19185 0.991736 11.0975C0.749311 14.9378 2.11815 18.1574 3.82247 19.9976ZM20.8828 5C22.0092 6.68983 22.8466 9.03427 22.5112 11.9387C17.91 11.9387 13.3088 11.9387 8.70768 11.9387C8.78115 14.8384 9.31742 17.1101 10.9728 18.3174C14.45 20.851 18.3287 17.5271 19.6094 15.2336C20.7481 15.8712 21.9749 16.4458 23.0793 17.0567C22.6091 17.7938 21.2574 19.7382 21.0983 20C22.0655 20 23.0328 20 24 20C24 15.0008 24 10.0016 24 5.00242C22.9593 5 21.921 5 20.8828 5ZM15.2189 8.433C15.6058 4.25085 8.63422 4.56603 8.91827 8.433C11.0193 8.433 13.1203 8.433 15.2189 8.433Z" fill="black"/>
</svg>
