<svg width="16" height="16" viewBox="0 0 16 16" fill="none" xmlns="http://www.w3.org/2000/svg">
    <rect width="16" height="16" fill="#191919"/>
    <path d="M8.10549 14C8.01319 14 7.92088 13.947 7.86813 13.8541C7.82857 13.7613 7.82857 13.6685 7.89451 13.589L10.7033 9.70387L5.78462 11.7193C5.74506 11.7326 5.71868 11.7459 5.67912 11.7459C5.56044 11.7459 5.45494 11.6663 5.42857 11.5602C5.38901 11.4541 5.44176 11.3348 5.53406 11.2685L9.85935 8.70939L2.25055 8.27182C2.09231 8.25856 2 8.13923 2 8.00663C2 7.88729 2.07912 7.7547 2.25055 7.74144L9.85935 7.30387L5.53406 4.74475C5.44176 4.67845 5.38901 4.55912 5.42857 4.45304C5.46813 4.34696 5.56044 4.2674 5.67912 4.2674C5.71868 4.2674 5.74506 4.28066 5.78462 4.29392L10.7033 6.30939L7.89451 2.41105C7.84176 2.33149 7.82857 2.22541 7.86813 2.14586C7.90769 2.05304 8 2 8.10549 2C8.17143 2 8.23736 2.02652 8.29011 2.07956L13.8813 7.6884C13.9604 7.76796 14 7.88729 14 7.99337C14 8.09945 13.9604 8.20552 13.8813 8.29834L8.29011 13.9204C8.23736 13.9735 8.17143 14 8.10549 14Z" fill="#E6E6E6"/>
</svg>
