<svg width="51" height="20" viewBox="0 0 51 20" fill="none" xmlns="http://www.w3.org/2000/svg">
<rect width="51" height="20" rx="2" fill="#EBFF38"/>
<path d="M4.86275 14V5.27273H10.4537V6.59801H6.44371V8.96733H10.0701V10.2926H6.44371V14H4.86275ZM14.2431 14.1278C13.5868 14.1278 13.0201 13.9915 12.5428 13.7188C12.0684 13.4432 11.7033 13.054 11.4476 12.5511C11.1919 12.0455 11.0641 11.4503 11.0641 10.7656C11.0641 10.0923 11.1919 9.50142 11.4476 8.9929C11.7061 8.48153 12.0669 8.08381 12.53 7.79972C12.9931 7.51278 13.5371 7.36932 14.1621 7.36932C14.5655 7.36932 14.9462 7.43466 15.3042 7.56534C15.665 7.69318 15.9831 7.89205 16.2587 8.16193C16.5371 8.43182 16.7559 8.77557 16.915 9.19318C17.074 9.60795 17.1536 10.1023 17.1536 10.6761V11.1491H11.7885V10.1094H15.6749C15.6721 9.81392 15.6081 9.55114 15.4831 9.32102C15.3581 9.08807 15.1834 8.90483 14.959 8.77131C14.7374 8.63778 14.4789 8.57102 14.1834 8.57102C13.8681 8.57102 13.5911 8.64773 13.3525 8.80114C13.1138 8.9517 12.9277 9.15057 12.7942 9.39773C12.6635 9.64205 12.5968 9.91051 12.5939 10.2031V11.1108C12.5939 11.4915 12.6635 11.8182 12.8027 12.0909C12.9419 12.3608 13.1365 12.5682 13.3865 12.7131C13.6365 12.8551 13.9292 12.9261 14.2644 12.9261C14.4888 12.9261 14.6919 12.8949 14.8738 12.8324C15.0556 12.767 15.2132 12.6719 15.3468 12.5469C15.4803 12.4219 15.5811 12.267 15.6493 12.0824L17.0897 12.2443C16.9988 12.625 16.8255 12.9574 16.5698 13.2415C16.3169 13.5227 15.9931 13.7415 15.5982 13.8977C15.2033 14.0511 14.7516 14.1278 14.2431 14.1278ZM20.8876 14.1151C20.3734 14.1151 19.9132 13.983 19.5069 13.7188C19.1007 13.4545 18.7797 13.071 18.5439 12.5682C18.3081 12.0653 18.1902 11.4545 18.1902 10.7358C18.1902 10.0085 18.3095 9.39489 18.5481 8.89489C18.7896 8.39205 19.1149 8.01278 19.524 7.7571C19.9331 7.49858 20.389 7.36932 20.8919 7.36932C21.2754 7.36932 21.5907 7.43466 21.8379 7.56534C22.085 7.69318 22.2811 7.84801 22.426 8.02983C22.5708 8.20881 22.6831 8.37784 22.7626 8.53693H22.8265V5.27273H24.3734V14H22.8564V12.9688H22.7626C22.6831 13.1278 22.568 13.2969 22.4174 13.4759C22.2669 13.652 22.068 13.8026 21.8208 13.9276C21.5737 14.0526 21.2626 14.1151 20.8876 14.1151ZM21.318 12.8494C21.6447 12.8494 21.9231 12.7614 22.1532 12.5852C22.3833 12.4062 22.5581 12.1577 22.6774 11.8395C22.7967 11.5213 22.8564 11.1506 22.8564 10.7273C22.8564 10.304 22.7967 9.93608 22.6774 9.62358C22.5609 9.31108 22.3876 9.06818 22.1575 8.89489C21.9302 8.72159 21.6504 8.63494 21.318 8.63494C20.9743 8.63494 20.6873 8.72443 20.4572 8.90341C20.2271 9.08239 20.0538 9.32955 19.9373 9.64489C19.8208 9.96023 19.7626 10.321 19.7626 10.7273C19.7626 11.1364 19.8208 11.5014 19.9373 11.8224C20.0566 12.1406 20.2314 12.392 20.4615 12.5767C20.6944 12.7585 20.9799 12.8494 21.318 12.8494ZM28.915 14.1278C28.2587 14.1278 27.6919 13.9915 27.2147 13.7188C26.7402 13.4432 26.3752 13.054 26.1195 12.5511C25.8638 12.0455 25.736 11.4503 25.736 10.7656C25.736 10.0923 25.8638 9.50142 26.1195 8.9929C26.378 8.48153 26.7388 8.08381 27.2019 7.79972C27.665 7.51278 28.209 7.36932 28.834 7.36932C29.2374 7.36932 29.6181 7.43466 29.976 7.56534C30.3368 7.69318 30.655 7.89205 30.9306 8.16193C31.209 8.43182 31.4277 8.77557 31.5868 9.19318C31.7459 9.60795 31.8255 10.1023 31.8255 10.6761V11.1491H26.4604V10.1094H30.3468C30.3439 9.81392 30.28 9.55114 30.155 9.32102C30.03 9.08807 29.8553 8.90483 29.6309 8.77131C29.4093 8.63778 29.1507 8.57102 28.8553 8.57102C28.54 8.57102 28.263 8.64773 28.0243 8.80114C27.7857 8.9517 27.5996 9.15057 27.4661 9.39773C27.3354 9.64205 27.2686 9.91051 27.2658 10.2031V11.1108C27.2658 11.4915 27.3354 11.8182 27.4746 12.0909C27.6138 12.3608 27.8084 12.5682 28.0584 12.7131C28.3084 12.8551 28.601 12.9261 28.9363 12.9261C29.1607 12.9261 29.3638 12.8949 29.5456 12.8324C29.7275 12.767 29.8851 12.6719 30.0186 12.5469C30.1522 12.4219 30.253 12.267 30.3212 12.0824L31.7615 12.2443C31.6706 12.625 31.4973 12.9574 31.2417 13.2415C30.9888 13.5227 30.665 13.7415 30.2701 13.8977C29.8752 14.0511 29.4235 14.1278 28.915 14.1278ZM33.1305 14V7.45455H34.6262V8.54545H34.6944C34.8137 8.16761 35.0183 7.87642 35.3081 7.67188C35.6007 7.46449 35.9345 7.3608 36.3095 7.3608C36.3947 7.3608 36.4899 7.36506 36.595 7.37358C36.7029 7.37926 36.7924 7.3892 36.8635 7.40341V8.82244C36.7981 8.79972 36.6944 8.77983 36.5524 8.76278C36.4132 8.7429 36.2782 8.73295 36.1475 8.73295C35.8663 8.73295 35.6135 8.79403 35.389 8.91619C35.1674 9.03551 34.9927 9.2017 34.8649 9.41477C34.737 9.62784 34.6731 9.87358 34.6731 10.152V14H33.1305ZM39.6547 14.1321C39.2399 14.1321 38.8663 14.0582 38.5339 13.9105C38.2044 13.7599 37.943 13.5384 37.7498 13.2457C37.5595 12.9531 37.4643 12.5923 37.4643 12.1634C37.4643 11.794 37.5325 11.4886 37.6689 11.2472C37.8052 11.0057 37.9913 10.8125 38.2271 10.6676C38.4629 10.5227 38.7285 10.4134 39.024 10.3395C39.3223 10.2628 39.6305 10.2074 39.9487 10.1733C40.3322 10.1335 40.6433 10.098 40.8819 10.0668C41.1206 10.0327 41.2939 9.98153 41.4018 9.91335C41.5126 9.84233 41.568 9.73295 41.568 9.58523V9.55966C41.568 9.23864 41.4728 8.99006 41.2825 8.81392C41.0922 8.63778 40.818 8.54972 40.46 8.54972C40.0822 8.54972 39.7825 8.6321 39.5609 8.79688C39.3422 8.96165 39.1944 9.15625 39.1177 9.38068L37.6774 9.17614C37.791 8.77841 37.9785 8.44602 38.2399 8.17898C38.5012 7.90909 38.8208 7.70739 39.1987 7.57386C39.5765 7.4375 39.9941 7.36932 40.4515 7.36932C40.7669 7.36932 41.0808 7.40625 41.3933 7.48011C41.7058 7.55398 41.9913 7.67614 42.2498 7.84659C42.5083 8.0142 42.7157 8.2429 42.872 8.53267C43.0311 8.82244 43.1106 9.18466 43.1106 9.61932V14H41.6277V13.1009H41.5765C41.4828 13.2827 41.3507 13.4531 41.1802 13.6122C41.0126 13.7685 40.801 13.8949 40.5453 13.9915C40.2924 14.0852 39.9956 14.1321 39.6547 14.1321ZM40.0552 12.9986C40.3649 12.9986 40.6333 12.9375 40.8606 12.8153C41.0879 12.6903 41.2626 12.5256 41.3848 12.321C41.5098 12.1165 41.5723 11.8935 41.5723 11.652V10.8807C41.524 10.9205 41.4416 10.9574 41.3251 10.9915C41.2115 11.0256 41.0836 11.0554 40.9416 11.081C40.7995 11.1065 40.6589 11.1293 40.5197 11.1491C40.3805 11.169 40.2598 11.1861 40.1575 11.2003C39.9274 11.2315 39.7214 11.2827 39.5396 11.3537C39.3578 11.4247 39.2143 11.5241 39.1092 11.652C39.0041 11.777 38.9515 11.9389 38.9515 12.1378C38.9515 12.4219 39.0552 12.6364 39.2626 12.7812C39.47 12.9261 39.7342 12.9986 40.0552 12.9986ZM46.2044 5.27273V14H44.6618V5.27273H46.2044Z" fill="black"/>
</svg>
