<svg width="24" height="24" viewBox="0 0 24 24" fill="none" xmlns="http://www.w3.org/2000/svg">
<path fill-rule="evenodd" clip-rule="evenodd" d="M24 12C24 18.6274 18.6274 24 12 24C5.37258 24 0 18.6274 0 12C0 5.37258 5.37258 0 12 0C18.6274 0 24 5.37258 24 12ZM2.57143 12.1714C2.57143 14.4857 3.51429 16.8857 5.31429 18.6857C7.11429 20.4857 9.51429 21.3429 11.9143 21.4286L2.57143 12.1714ZM2.82857 9.94286L14.0571 21.1714C18.2571 20.2286 21.4286 16.4571 21.4286 12H15.4286V13.7143H19.5429C18.9429 16.2857 17.0571 18.4286 14.5714 19.2857L4.71429 9.42857C5.82857 6.42857 8.65714 4.28571 12 4.28571C14.5714 4.28571 16.8857 5.57143 18.3429 7.54286L19.6286 6.42857C17.9143 4.11428 15.1714 2.57143 12 2.57143C7.54286 2.57143 3.77143 5.74286 2.82857 9.94286Z" fill="black"/>
</svg>
