<svg width="165" height="58" viewBox="0 0 165 58" fill="none" xmlns="http://www.w3.org/2000/svg">
<g clip-path="url(#clip0_33_141)">
<path d="M31.6392 58C31.1895 58 30.74 57.7438 30.4831 57.2958C30.2902 56.8477 30.2902 56.3995 30.6114 56.0154L44.2936 37.2582L20.3337 46.989C20.141 47.053 20.0126 47.117 19.8198 47.117C19.2417 47.117 18.7278 46.7328 18.5994 46.2207C18.4067 45.7086 18.6636 45.1325 19.1132 44.8123L40.1826 32.4571L3.11853 30.3444C2.34771 30.2804 1.89804 29.7042 1.89804 29.0641C1.89804 28.4879 2.28347 27.8477 3.11853 27.7837L40.1826 25.6711L19.1132 13.3157C18.6636 12.9956 18.4067 12.4194 18.5994 11.9073C18.7921 11.3951 19.2417 11.011 19.8198 11.011C20.0126 11.011 20.141 11.0751 20.3337 11.1391L44.2936 20.8698L30.6114 2.04857C30.3545 1.66447 30.2902 1.15233 30.4831 0.76822C30.6757 0.320098 31.1254 0.0640259 31.6392 0.0640259C31.9604 0.0640259 32.2816 0.192061 32.5385 0.448133L59.7745 27.5275C60.16 27.9118 60.3526 28.4879 60.3526 29C60.3526 29.5121 60.16 30.0242 59.7745 30.4725L32.5385 57.616C32.2816 57.8719 31.9604 58 31.6392 58Z" fill="black"/>
</g>
<path d="M89.291 38.6667H95.903C102.225 38.6667 106.227 34.6067 106.227 28.2557C106.227 21.9047 102.225 17.8447 95.903 17.8447H89.291V38.6667ZM92.017 36.2597V20.2517H95.874C100.63 20.2517 103.501 23.3837 103.501 28.2557C103.501 33.0987 100.63 36.2597 95.903 36.2597H92.017ZM108.492 28.2557C108.492 34.6067 112.494 38.9857 117.946 38.9857C123.398 38.9857 127.371 34.6067 127.371 28.2557C127.371 21.9047 123.398 17.5257 117.946 17.5257C112.494 17.5257 108.492 21.9047 108.492 28.2557ZM124.616 28.2557C124.616 33.1857 121.861 36.5207 117.946 36.5207C114.031 36.5207 111.276 33.1857 111.276 28.2557C111.276 23.3257 114.031 19.9907 117.946 19.9907C121.861 19.9907 124.616 23.3257 124.616 28.2557ZM132.403 28.2557C132.403 23.3257 135.129 19.9907 138.986 19.9907C141.683 19.9907 143.626 21.5567 144.38 24.1957L147.019 23.3257C145.801 19.7297 142.959 17.5257 138.986 17.5257C133.592 17.5257 129.619 21.9047 129.619 28.2557C129.619 34.6067 133.592 38.9857 138.986 38.9857C142.959 38.9857 145.801 36.7817 147.019 33.1857L144.38 32.3157C143.626 34.9547 141.683 36.5207 138.986 36.5207C135.129 36.5207 132.403 33.1857 132.403 28.2557ZM147.92 34.3747C149.341 37.1877 152.792 38.9857 156.388 38.9857C160.506 38.9857 163.957 36.5207 163.957 32.6347C163.957 28.2267 160.158 27.5017 156.707 26.6897C153.778 25.9937 151.835 25.5297 151.835 23.3257C151.835 21.3247 153.662 19.9327 156.185 19.9327C158.882 19.9327 160.535 21.2957 161.608 23.2967L163.725 21.6147C162.478 19.2657 159.868 17.5257 156.243 17.5257C152.299 17.5257 149.138 19.9037 149.138 23.5577C149.138 27.4727 152.386 28.3717 155.663 29.1547C158.824 29.9087 161.231 30.3437 161.231 32.8667C161.231 35.2447 159.143 36.5787 156.446 36.5787C153.749 36.5787 151.4 35.1287 150.095 32.6347L147.92 34.3747Z" fill="black"/>
<defs>
<clipPath id="clip0_33_141">
<rect width="60.4167" height="58" fill="white"/>
</clipPath>
</defs>
</svg>
