<svg width="163" height="58" viewBox="0 0 163 58" fill="none" xmlns="http://www.w3.org/2000/svg">
<path d="M29.721 58C29.2724 58 28.8238 57.7436 28.5674 57.295C28.3752 56.8464 28.3752 56.3978 28.6956 56.0133L42.3464 37.2354L18.4415 46.9768C18.2492 47.0409 18.121 47.105 17.9288 47.105C17.352 47.105 16.8393 46.7204 16.7111 46.2077C16.5188 45.695 16.7752 45.1182 17.2238 44.7978L38.2448 32.4287L1.26579 30.3138C0.49673 30.2497 0.0480957 29.6729 0.0480957 29.032C0.0480957 28.4553 0.432642 27.8144 1.26579 27.7503L38.2448 25.6354L17.2238 13.2663C16.7752 12.9459 16.5188 12.3691 16.7111 11.8564C16.9033 11.3436 17.352 10.9591 17.9288 10.9591C18.121 10.9591 18.2492 11.0232 18.4415 11.0873L42.3464 20.8287L28.6956 1.98674C28.4393 1.60221 28.3752 1.0895 28.5674 0.704972C28.7597 0.256354 29.2083 0 29.721 0C30.0415 0 30.3619 0.128177 30.6183 0.38453L57.7918 27.4939C58.1763 27.8785 58.3685 28.4552 58.3685 28.968C58.3685 29.4807 58.1763 29.9934 57.7918 30.442L30.6183 57.6155C30.3619 57.8718 30.0415 58 29.721 58Z" fill="#282828"/>
<path d="M87.2429 38.6667H93.8549C100.177 38.6667 104.179 34.6067 104.179 28.2557C104.179 21.9047 100.177 17.8447 93.8549 17.8447H87.2429V38.6667ZM89.9689 36.2597V20.2517H93.8259C98.5819 20.2517 101.453 23.3837 101.453 28.2557C101.453 33.0987 98.5819 36.2597 93.8549 36.2597H89.9689ZM106.444 28.2557C106.444 34.6067 110.446 38.9857 115.898 38.9857C121.35 38.9857 125.323 34.6067 125.323 28.2557C125.323 21.9047 121.35 17.5257 115.898 17.5257C110.446 17.5257 106.444 21.9047 106.444 28.2557ZM122.568 28.2557C122.568 33.1857 119.813 36.5207 115.898 36.5207C111.983 36.5207 109.228 33.1857 109.228 28.2557C109.228 23.3257 111.983 19.9907 115.898 19.9907C119.813 19.9907 122.568 23.3257 122.568 28.2557ZM130.355 28.2557C130.355 23.3257 133.081 19.9907 136.938 19.9907C139.635 19.9907 141.578 21.5567 142.332 24.1957L144.971 23.3257C143.753 19.7297 140.911 17.5257 136.938 17.5257C131.544 17.5257 127.571 21.9047 127.571 28.2557C127.571 34.6067 131.544 38.9857 136.938 38.9857C140.911 38.9857 143.753 36.7817 144.971 33.1857L142.332 32.3157C141.578 34.9547 139.635 36.5207 136.938 36.5207C133.081 36.5207 130.355 33.1857 130.355 28.2557ZM145.872 34.3747C147.293 37.1877 150.744 38.9857 154.34 38.9857C158.458 38.9857 161.909 36.5207 161.909 32.6347C161.909 28.2267 158.11 27.5017 154.659 26.6897C151.73 25.9937 149.787 25.5297 149.787 23.3257C149.787 21.3247 151.614 19.9327 154.137 19.9327C156.834 19.9327 158.487 21.2957 159.56 23.2967L161.677 21.6147C160.43 19.2657 157.82 17.5257 154.195 17.5257C150.251 17.5257 147.09 19.9037 147.09 23.5577C147.09 27.4727 150.338 28.3717 153.615 29.1547C156.776 29.9087 159.183 30.3437 159.183 32.8667C159.183 35.2447 157.095 36.5787 154.398 36.5787C151.701 36.5787 149.352 35.1287 148.047 32.6347L145.872 34.3747Z" fill="#282828"/>
</svg>
