<svg width="24" height="24" viewBox="0 0 24 24" fill="none" xmlns="http://www.w3.org/2000/svg">
<path d="M12 0.959988C11.984 0.959818 11.9681 0.960444 11.9522 0.961863C10.2169 0.970091 8.93769 1.40979 8.09249 1.86093C7.41085 2.22476 7.19787 2.47839 7.05655 2.6203C6.79686 2.51733 6.54088 2.39999 6.23999 2.39999C4.92022 2.39999 3.83999 3.48022 3.83999 4.79999C3.83999 5.77332 4.4413 6.58481 5.27999 6.95905V11.4619L4.05093 12.6909C3.76965 12.9722 3.76965 13.4278 4.05093 13.7091C4.19157 13.8497 4.37567 13.92 4.55999 13.92C4.74431 13.92 4.92841 13.8497 5.06905 13.7091L5.15249 13.6256C5.11855 13.8436 5.08707 14.0599 5.04749 14.2875C4.92628 14.9844 4.79999 15.8133 4.79999 17.28C4.79999 18.642 5.4472 20.0546 6.64124 21.1406L5.97093 21.8109C5.68965 22.0922 5.68965 22.5478 5.97093 22.8291C6.11157 22.9697 6.29567 23.04 6.47999 23.04C6.66431 23.04 6.84889 22.9697 6.98905 22.8291L7.82343 21.9947C8.93303 22.6306 10.3214 23.0312 11.9578 23.0381C11.9606 23.0385 11.9634 23.0388 11.9662 23.0391C11.9778 23.0391 11.9884 23.04 12 23.04C12.0163 23.0402 12.0325 23.0396 12.0487 23.0381C13.6823 23.0302 15.0684 22.6298 16.1766 21.9947L17.0109 22.8291C17.1511 22.9697 17.3357 23.04 17.52 23.04C17.7043 23.04 17.8884 22.9697 18.0291 22.8291C18.3103 22.5478 18.3103 22.0922 18.0291 21.8109L17.3578 21.1397C18.5514 20.0538 19.2 18.6417 19.2 17.28C19.2 15.8133 19.0737 14.9844 18.9525 14.2875C18.9129 14.0599 18.8814 13.8436 18.8475 13.6256L18.9309 13.7091C19.0716 13.8497 19.2557 13.92 19.44 13.92C19.6243 13.92 19.8084 13.8497 19.9491 13.7091C20.2303 13.4278 20.2303 12.9722 19.9491 12.6909L18.72 11.4619V6.95905C19.5587 6.58481 20.16 5.77332 20.16 4.79999C20.16 3.48022 19.0798 2.39999 17.76 2.39999C17.4591 2.39999 17.2031 2.51733 16.9434 2.6203C16.8021 2.47839 16.5891 2.22476 15.9075 1.86093C15.0599 1.40854 13.7764 0.966756 12.0337 0.960926C12.0225 0.960218 12.0112 0.959905 12 0.959988ZM12 1.91999C13.5996 1.91999 14.727 2.31857 15.4556 2.70749C16.1843 3.09641 16.4831 3.4453 16.4831 3.4453C16.556 3.5283 16.6554 3.5836 16.7643 3.60187C16.8733 3.62015 16.9852 3.60028 17.0812 3.54561C17.2887 3.42738 17.5142 3.35999 17.76 3.35999C18.5609 3.35999 19.2 3.99912 19.2 4.79999C19.2 5.47446 18.7407 6.03009 18.12 6.1903C18.0171 6.21688 17.9259 6.27687 17.8607 6.36085C17.7956 6.44484 17.7602 6.54807 17.76 6.65436V12C17.76 13.1158 17.8887 13.7695 18.0075 14.4525C18.1263 15.1355 18.24 15.8667 18.24 17.28C18.24 19.4267 16.111 22.08 12 22.08C7.88895 22.08 5.75999 19.4267 5.75999 17.28C5.75999 15.8667 5.8737 15.1355 5.99249 14.4525C6.11128 13.7695 6.23999 13.1158 6.23999 12V6.65436C6.23983 6.54807 6.20439 6.44484 6.13924 6.36085C6.07409 6.27687 5.9829 6.21688 5.87999 6.1903C5.25932 6.03009 4.79999 5.47446 4.79999 4.79999C4.79999 3.99912 5.43912 3.35999 6.23999 3.35999C6.48578 3.35999 6.71127 3.42738 6.91874 3.54561C7.01475 3.60028 7.12669 3.62015 7.23565 3.60187C7.34461 3.5836 7.44394 3.5283 7.51686 3.4453C7.51686 3.4453 7.81572 3.09641 8.54436 2.70749C9.27301 2.31857 10.4004 1.91999 12 1.91999ZM9.35999 3.83999C8.17274 3.83999 7.19999 4.81274 7.19999 5.99999C7.19999 7.18724 8.17274 8.15999 9.35999 8.15999C10.5472 8.15999 11.52 7.18724 11.52 5.99999C11.52 4.81274 10.5472 3.83999 9.35999 3.83999ZM14.6391 3.84093C13.4521 3.84093 12.48 4.813 12.48 5.99999C12.48 7.18697 13.4521 8.15905 14.6391 8.15905C15.826 8.15905 16.7991 7.18697 16.7991 5.99999C16.7991 4.813 15.826 3.84093 14.6391 3.84093ZM6.23999 4.31999C5.97503 4.31999 5.75999 4.53503 5.75999 4.79999C5.75999 5.06495 5.97503 5.27999 6.23999 5.27999C6.27263 5.27999 6.30114 5.26748 6.33186 5.26124C6.39618 4.99868 6.49062 4.74731 6.61686 4.51499C6.52902 4.39931 6.39647 4.31999 6.23999 4.31999ZM17.76 4.31999C17.6035 4.31999 17.471 4.39931 17.3831 4.51499C17.5094 4.74731 17.6038 4.99868 17.6681 5.26124C17.6988 5.26748 17.7274 5.27999 17.76 5.27999C18.025 5.27999 18.24 5.06495 18.24 4.79999C18.24 4.53503 18.025 4.31999 17.76 4.31999ZM9.35999 4.79999C10.0284 4.79999 10.56 5.33156 10.56 5.99999C10.56 6.66842 10.0284 7.19999 9.35999 7.19999C8.96427 7.19999 8.61975 7.0107 8.40186 6.71999C8.59249 6.71949 8.77515 6.64342 8.90977 6.50844C9.04439 6.37347 9.11999 6.19062 9.11999 5.99999C9.11999 5.80936 9.04439 5.62651 8.90977 5.49153C8.77515 5.35656 8.59249 5.28048 8.40186 5.27999C8.61975 4.98927 8.96427 4.79999 9.35999 4.79999ZM14.6391 4.80093C15.3072 4.80093 15.8391 5.33183 15.8391 5.99999C15.8391 6.66815 15.3072 7.19905 14.6391 7.19905C14.2435 7.19905 13.8995 7.01038 13.6819 6.71999C13.8725 6.71949 14.0551 6.64342 14.1898 6.50844C14.3244 6.37347 14.4 6.19062 14.4 5.99999C14.4 5.80936 14.3244 5.62651 14.1898 5.49153C14.0551 5.35656 13.8725 5.28048 13.6819 5.27999C13.8995 4.98959 14.2435 4.80093 14.6391 4.80093ZM12 7.67999C11.67 7.68009 11.35 7.75577 11.0937 7.89434C10.8373 8.03292 10.6602 8.22599 10.5919 8.44124C10.447 8.5306 10.3098 8.63144 10.1906 8.75061C9.84519 9.09604 9.59999 9.55999 9.59999 10.08C9.59999 10.2 9.62766 10.6816 10.0041 11.0109C10.24 11.2174 10.58 11.357 11.04 11.4384V12C11.0391 12.0636 11.0508 12.1267 11.0746 12.1858C11.0983 12.2448 11.1335 12.2985 11.1782 12.3438C11.2228 12.3891 11.276 12.4251 11.3347 12.4496C11.3934 12.4742 11.4564 12.4868 11.52 12.4868C11.5836 12.4868 11.6466 12.4742 11.7053 12.4496C11.7639 12.4251 11.8172 12.3891 11.8618 12.3438C11.9065 12.2985 11.9417 12.2448 11.9654 12.1858C11.9891 12.1267 12.0009 12.0636 12 12C11.9991 12.0636 12.0108 12.1267 12.0346 12.1858C12.0583 12.2448 12.0935 12.2985 12.1382 12.3438C12.1828 12.3891 12.236 12.4251 12.2947 12.4496C12.3534 12.4742 12.4164 12.4868 12.48 12.4868C12.5436 12.4868 12.6066 12.4742 12.6653 12.4496C12.7239 12.4251 12.7772 12.3891 12.8218 12.3438C12.8665 12.2985 12.9017 12.2448 12.9254 12.1858C12.9491 12.1267 12.9609 12.0636 12.96 12V11.4384C13.42 11.357 13.76 11.2174 13.9959 11.0109C14.3723 10.6816 14.4 10.2 14.4 10.08C14.4 9.55999 14.1548 9.09604 13.8094 8.75061C13.69 8.63125 13.5523 8.53069 13.4072 8.44124C13.3389 8.2261 13.1619 8.0331 12.9057 7.89454C12.6496 7.75597 12.3299 7.68024 12 7.67999V7.67999ZM10.9941 9.3253C11.2627 9.50096 11.6237 9.59956 12 9.59999C12.3764 9.59997 12.7378 9.50171 13.0069 9.32624C13.0494 9.35829 13.092 9.39076 13.1306 9.42936C13.3252 9.62394 13.44 9.87999 13.44 10.08C13.44 10.2 13.4677 10.1984 13.3641 10.2891C13.2604 10.3797 12.9 10.56 12 10.56C11.1 10.56 10.7395 10.3797 10.6359 10.2891C10.5323 10.1984 10.56 10.2 10.56 10.08C10.56 9.87999 10.6748 9.62394 10.8694 9.42936C10.9083 9.39044 10.9512 9.35756 10.9941 9.3253Z" fill="black"/>
</svg>
