<svg width="208" height="48" fill="none" xmlns="http://www.w3.org/2000/svg">
  <path d="M9.34 30.728V28.45H2.589V17.272H.01v13.456h9.33Zm6.486-.423c.558-.424.983-.98 1.275-1.67v2.093h2.472v-6.49c0-.688-.16-1.324-.505-1.854s-.85-.954-1.488-1.245c-.638-.291-1.409-.45-2.286-.45a8.19 8.19 0 0 0-1.409.132c-.452.08-.877.212-1.276.371-.398.159-.77.344-1.09.556l.08 2.305a8.664 8.664 0 0 1 1.781-.9 5.624 5.624 0 0 1 1.94-.319c.559 0 1.01.133 1.33.398.319.265.478.609.478 1.033v.662h-2.233c-1.329 0-2.365.265-3.136.821-.771.557-1.143 1.325-1.143 2.305 0 .556.133 1.033.372 1.483.266.45.611.795 1.09 1.034.478.264 1.036.37 1.648.37.85 0 1.541-.212 2.1-.635Zm-2.233-1.67a1.078 1.078 0 0 1-.425-.873c0-.45.186-.795.584-1.034.372-.238.957-.37 1.701-.37h1.595v.37c0 .318-.08.636-.266.98a2.348 2.348 0 0 1-.823.875c-.373.238-.798.37-1.276.37-.452 0-.824-.105-1.09-.317Zm13.848 1.643c.585-.503 1.01-1.192 1.276-2.04v2.49h2.499V20.98h-2.499v4.556c0 .663-.106 1.245-.319 1.749-.213.503-.505.927-.904 1.192-.398.291-.85.424-1.355.424-.558 0-.984-.16-1.303-.477-.292-.318-.452-.795-.452-1.404v-6.04h-2.498v6.093c0 1.271.292 2.225.904 2.914.61.689 1.408 1.033 2.445 1.033.904 0 1.621-.239 2.206-.742Zm9.01.45v-4.556c0-.662.107-1.245.32-1.748.212-.503.505-.927.877-1.192.372-.292.824-.424 1.329-.424.558 0 .984.159 1.303.477.292.318.451.794.451 1.404v6.066h2.526v-6.093c0-1.271-.293-2.225-.904-2.914-.612-.688-1.409-1.033-2.446-1.033-.877 0-1.594.265-2.18.742-.557.503-.983 1.192-1.275 2.04v-2.49h-2.499v9.748h2.499v-.027Zm15.258.212c.319-.053.638-.132.904-.212.292-.079.531-.185.797-.265l.027-2.357c-.399.212-.824.344-1.276.45a5.924 5.924 0 0 1-1.356.16c-.664 0-1.249-.133-1.7-.372a2.24 2.24 0 0 1-1.01-1.033 3.258 3.258 0 0 1-.32-1.457c0-.53.106-1.006.32-1.457.212-.423.557-.768 1.01-1.033.451-.265 1.01-.37 1.647-.37.505 0 .957.052 1.409.158.452.106.85.265 1.25.45l-.027-2.436c-.293-.106-.559-.212-.824-.265a4.257 4.257 0 0 0-.904-.16 6.333 6.333 0 0 0-1.037-.079c-1.116 0-2.073.239-2.897.689a4.947 4.947 0 0 0-1.914 1.854c-.452.795-.664 1.67-.664 2.676 0 .98.239 1.88.69 2.649a4.647 4.647 0 0 0 1.914 1.801c.825.424 1.781.662 2.871.662.399.027.771 0 1.09-.053Zm6.459-.212v-4.556c0-.662.106-1.245.319-1.748.213-.503.505-.927.904-1.192a2.15 2.15 0 0 1 1.329-.424c.584 0 1.01.159 1.302.477.293.318.452.794.452 1.404v6.066h2.499v-6.093c0-1.271-.293-2.225-.904-2.914-.611-.688-1.409-1.033-2.446-1.033-.877 0-1.62.265-2.18.742-.584.503-1.01 1.192-1.275 2.04V17.27h-2.472v13.457h2.472Zm14.885 0c1.435 0 2.658-.265 3.668-.82 1.01-.557 1.781-1.325 2.313-2.332.531-1.006.797-2.199.797-3.55 0-1.35-.266-2.543-.797-3.55a5.657 5.657 0 0 0-2.313-2.357c-1.01-.556-2.233-.821-3.668-.821H67.87v13.457h5.183v-.027Zm-2.605-2.278v-8.9h2.578c1.303 0 2.313.397 3.03 1.165.745.795 1.09 1.881 1.09 3.285 0 1.404-.372 2.517-1.09 3.285-.744.768-1.754 1.165-3.03 1.165h-2.578Zm15.922 1.855c.558-.424.983-.98 1.276-1.67v2.093h2.472v-6.49c0-.688-.16-1.324-.505-1.854-.346-.53-.851-.954-1.489-1.245-.638-.291-1.409-.45-2.286-.45a8.19 8.19 0 0 0-1.409.132c-.451.08-.877.212-1.276.371-.398.159-.77.344-1.09.556l.08 2.305a8.664 8.664 0 0 1 1.781-.9 5.624 5.624 0 0 1 1.94-.319c.559 0 1.01.133 1.33.398.319.265.478.609.478 1.033v.662h-2.18c-1.328 0-2.365.265-3.136.821-.77.557-1.143 1.325-1.143 2.305 0 .556.133 1.033.372 1.483.266.45.612.795 1.09 1.034.478.264 1.037.37 1.648.37.824 0 1.489-.212 2.047-.635Zm-2.233-1.67a1.078 1.078 0 0 1-.425-.873c0-.45.186-.795.584-1.034.373-.238.957-.37 1.702-.37h1.594v.37c0 .318-.08.636-.265.98a2.35 2.35 0 0 1-.824.875c-.373.238-.771.344-1.25.344-.451.027-.824-.08-1.116-.291Zm11.03 2.093V26.57c0-1.086.24-1.907.692-2.463.452-.556 1.09-.848 1.86-.848.373 0 .718.053 1.037.16v-2.411a3.1 3.1 0 0 0-.478-.106c-.16-.027-.346-.027-.532-.027a2.15 2.15 0 0 0-1.568.636c-.425.424-.77 1.033-.984 1.775v-2.331h-2.498v9.748h2.472v.026Zm7.683 0v-3.152l.903-.848 2.924 4h2.977l-4.173-5.695 4.093-4.053h-3.136l-3.562 3.444v-7.152h-2.472v13.456h2.446Zm10.818 0V17.271h-2.499v13.457h2.499Zm3.827 3.63c.931 0 1.675-.186 2.26-.557.584-.37 1.063-1.033 1.462-1.96l4.492-10.86h-2.579l-2.631 6.807-2.711-6.808h-2.579l4.014 9.722-.213.503c-.132.318-.292.583-.531.716-.213.158-.558.238-1.01.238h-2.074v2.199h2.1ZM144.102 36a.56.56 0 0 1-.478-.291c-.08-.186-.08-.371.053-.53l5.662-7.762-9.915 4.027c-.08.026-.133.053-.212.053a.517.517 0 0 1-.505-.371c-.08-.212.026-.45.212-.583l8.719-5.113-15.337-.874a.525.525 0 0 1-.505-.53c0-.238.159-.503.505-.53l15.337-.874-8.719-5.112c-.186-.133-.292-.371-.212-.583a.542.542 0 0 1 .505-.37c.079 0 .132.026.212.052l9.915 4.027-5.662-7.788c-.106-.16-.133-.371-.053-.53a.502.502 0 0 1 .478-.292c.133 0 .266.053.372.16l11.271 11.205a.884.884 0 0 1 .239.609c0 .212-.08.424-.239.61l-11.271 11.23a.525.525 0 0 1-.372.16ZM169.166 28.8h3.334c3.188 0 5.207-2.016 5.207-5.17 0-3.153-2.019-5.17-5.207-5.17h-3.334V28.8Zm1.374-1.195v-7.95h1.945c2.399 0 3.847 1.556 3.847 3.975 0 2.405-1.448 3.975-3.832 3.975h-1.96Zm8.309-3.975c0 3.154 2.018 5.328 4.767 5.328 2.75 0 4.754-2.174 4.754-5.328 0-3.153-2.004-5.328-4.754-5.328-2.749 0-4.767 2.175-4.767 5.328Zm8.131 0c0 2.448-1.389 4.104-3.364 4.104-1.974 0-3.363-1.656-3.363-4.104 0-2.448 1.389-4.104 3.363-4.104 1.975 0 3.364 1.656 3.364 4.104Zm3.927 0c0-2.448 1.375-4.104 3.32-4.104 1.36 0 2.34.778 2.72 2.088l1.331-.432c-.614-1.785-2.047-2.88-4.051-2.88-2.72 0-4.724 2.175-4.724 5.328 0 3.154 2.004 5.328 4.724 5.328 2.004 0 3.437-1.094 4.051-2.88l-1.331-.432c-.38 1.31-1.36 2.088-2.72 2.088-1.945 0-3.32-1.656-3.32-4.104Zm7.826 3.039c.716 1.396 2.457 2.29 4.27 2.29 2.077 0 3.817-1.225 3.817-3.154 0-2.19-1.916-2.55-3.656-2.952-1.477-.346-2.457-.576-2.457-1.67 0-.994.921-1.686 2.194-1.686 1.36 0 2.194.677 2.735 1.67l1.067-.834c-.629-1.167-1.945-2.03-3.773-2.03-1.989 0-3.583 1.18-3.583 2.994 0 1.944 1.638 2.39 3.291 2.78 1.594.374 2.808.59 2.808 1.843 0 1.18-1.053 1.843-2.414 1.843-1.36 0-2.544-.72-3.202-1.958l-1.097.864Z" fill="#E6E6E6"/>
</svg>
