<svg width="24" height="24" viewBox="0 0 24 24" fill="none" xmlns="http://www.w3.org/2000/svg">
<path d="M1.1 6.04999C0.486 6.04999 1.5881e-08 6.52999 1.5881e-08 7.12999C-2.45964e-05 7.27351 0.0285591 7.41561 0.0840806 7.54796C0.139602 7.68031 0.220948 7.80027 0.323363 7.90082C0.425778 8.00137 0.547208 8.08051 0.680557 8.13359C0.813906 8.18667 0.956498 8.21265 1.1 8.20999C1.72 8.20999 2.21 7.72999 2.21 7.12999C2.21 6.52999 1.72 6.04999 1.1 6.04999ZM8.71 6.06999C5.35 6.06999 3.25 8.35999 3.25 12C3.25 15.67 5.35 17.95 8.71 17.95C12.05 17.95 14.16 15.67 14.16 12C14.16 8.35999 12.05 6.06999 8.71 6.06999ZM19.55 6.06999C17.05 6.06999 15.27 7.44999 15.27 9.49999C15.27 11.13 16.28 12.15 18.4 12.64L19.89 13C21.34 13.33 21.93 13.81 21.93 14.64C21.93 15.6 20.96 16.28 19.58 16.28C18.17 16.28 17.11 15.59 17 14.53H15C15.08 16.65 16.82 17.95 19.46 17.95C22.25 17.95 24 16.58 24 14.4C24 12.69 23 11.72 20.68 11.19L19.35 10.89C17.94 10.55 17.36 10.1 17.36 9.33999C17.36 8.37999 18.24 7.73999 19.54 7.73999C20.85 7.73999 21.75 8.38999 21.85 9.45999H23.81C23.76 7.43999 22.09 6.06999 19.55 6.06999ZM8.71 7.81999C10.75 7.81999 12.06 9.44999 12.06 12C12.06 14.57 10.75 16.2 8.71 16.2C6.65 16.2 5.35 14.57 5.35 12C5.35 9.44999 6.65 7.81999 8.71 7.81999ZM0.111 9.30999V17.76H2.1V9.30999H0.11H0.111Z" fill="#646F7A"/>
</svg>
