<svg width="126" height="18" viewBox="0 0 126 18" fill="none" xmlns="http://www.w3.org/2000/svg">
<path d="M9.3297 13.7284V11.4503H2.57829V0.271484H0V13.7284H9.3297ZM15.8153 13.3046C16.3735 12.8808 16.7988 12.3245 17.0912 11.6357V13.7284H19.5631V7.23837C19.5631 6.54963 19.4036 5.91387 19.0581 5.38407C18.7126 4.85427 18.2075 4.43043 17.5696 4.13903C16.9317 3.84764 16.1608 3.6887 15.2837 3.6887C14.8052 3.6887 14.3268 3.74168 13.8749 3.82115C13.4231 3.90062 12.9978 4.03307 12.5991 4.19201C12.2004 4.35096 11.8282 4.53639 11.5093 4.74831L11.589 7.05294C12.2004 6.65559 12.7851 6.3642 13.3699 6.15228C13.9547 5.94036 14.5926 5.8344 15.3103 5.8344C15.8685 5.8344 16.3203 5.96685 16.6393 6.23175C16.9583 6.49665 17.1177 6.84102 17.1177 7.26486V7.92711H14.885C13.556 7.92711 12.5193 8.19201 11.7485 8.74831C10.9777 9.3046 10.6056 10.0728 10.6056 11.0529C10.6056 11.6092 10.7385 12.0861 10.9777 12.5364C11.2435 12.9867 11.589 13.3311 12.0675 13.5695C12.5459 13.8344 13.1041 13.9404 13.7155 13.9404C14.566 13.9404 15.2571 13.7284 15.8153 13.3046ZM13.5826 11.6357C13.3167 11.4238 13.1573 11.1324 13.1573 10.7616C13.1573 10.3112 13.3433 9.96685 13.742 9.72844C14.1142 9.49003 14.6989 9.35758 15.4432 9.35758H17.038V9.72844C17.038 10.0463 16.9583 10.3642 16.7722 10.7086C16.5861 11.0529 16.3203 11.3443 15.9482 11.5827C15.5761 11.8212 15.1508 11.9536 14.6723 11.9536C14.2205 11.9536 13.8484 11.8476 13.5826 11.6357ZM27.4309 13.2781C28.0157 12.7748 28.441 12.0861 28.7068 11.2384V13.7284H31.2053V3.98009H28.7068V8.53639C28.7068 9.19864 28.6004 9.78142 28.3878 10.2847C28.1752 10.788 27.8828 11.2119 27.4841 11.4768C27.0854 11.7682 26.6335 11.9006 26.1285 11.9006C25.5703 11.9006 25.145 11.7417 24.826 11.4238C24.5336 11.1059 24.3742 10.6291 24.3742 10.0198V3.98009H21.8756V10.0728C21.8756 11.3443 22.168 12.298 22.7793 12.9867C23.3907 13.6755 24.1881 14.0198 25.2247 14.0198C26.1285 14.0198 26.8461 13.7814 27.4309 13.2781ZM36.4416 13.7284V9.17215C36.4416 8.5099 36.548 7.92711 36.7606 7.4238C36.9732 6.92049 37.2656 6.49665 37.6378 6.23175C38.0099 5.94036 38.4617 5.80791 38.9668 5.80791C39.525 5.80791 39.9502 5.96685 40.2692 6.28473C40.5616 6.60261 40.7211 7.07943 40.7211 7.6887V13.7549H43.2462V7.66221C43.2462 6.39069 42.9538 5.43705 42.3425 4.74831C41.7311 4.05956 40.9337 3.71519 39.8971 3.71519C39.0199 3.71519 38.3023 3.98009 37.7175 4.45692C37.1593 4.96023 36.734 5.64897 36.4416 6.49665V4.00658H33.9431V13.7549H36.4416V13.7284ZM51.6987 13.9404C52.0177 13.8874 52.3367 13.8079 52.6025 13.7284C52.8949 13.649 53.1341 13.543 53.3999 13.4635L53.4265 11.1059C53.0278 11.3178 52.6025 11.4503 52.1506 11.5563C51.6987 11.6622 51.2469 11.7152 50.795 11.7152C50.1305 11.7152 49.5457 11.5827 49.0939 11.3443C48.642 11.1059 48.2965 10.7616 48.0838 10.3112C47.8712 9.88738 47.7649 9.38407 47.7649 8.85427C47.7649 8.32447 47.8712 7.84764 48.0838 7.39731C48.2965 6.97347 48.642 6.6291 49.0939 6.3642C49.5457 6.0993 50.1039 5.99334 50.7419 5.99334C51.2469 5.99334 51.6987 6.04632 52.1506 6.15228C52.6025 6.25824 53.0012 6.41718 53.3999 6.60261L53.3733 4.16552C53.0809 4.05956 52.8151 3.9536 52.5493 3.90062C52.2835 3.82115 51.9911 3.76817 51.6456 3.74168C51.3266 3.6887 50.9811 3.66221 50.609 3.66221C49.4926 3.66221 48.5357 3.90062 47.7117 4.35096C46.8877 4.80129 46.2498 5.43705 45.7979 6.20526C45.3461 6.99996 45.1334 7.87413 45.1334 8.88076C45.1334 9.86089 45.3726 10.7616 45.8245 11.5298C46.2764 12.298 46.9143 12.9072 47.7383 13.3311C48.5623 13.7549 49.5192 13.9933 50.609 13.9933C51.0077 14.0198 51.3798 13.9933 51.6987 13.9404ZM58.1578 13.7284V9.17215C58.1578 8.5099 58.2641 7.92711 58.4767 7.4238C58.6894 6.92049 58.9818 6.49665 59.3805 6.23175C59.7792 5.94036 60.2045 5.80791 60.7095 5.80791C61.2942 5.80791 61.7195 5.96685 62.0119 6.28473C62.3043 6.60261 62.4638 7.07943 62.4638 7.6887V13.7549H64.9623V7.66221C64.9623 6.39069 64.67 5.43705 64.0586 4.74831C63.4473 4.05956 62.6498 3.71519 61.6132 3.71519C60.7361 3.71519 59.9918 3.98009 59.4336 4.45692C58.8489 4.96023 58.4236 5.64897 58.1578 6.49665V0.271484H55.6858V13.7284H58.1578ZM73.0428 13.7284C74.4781 13.7284 75.7008 13.4635 76.7108 12.9072C77.7209 12.351 78.4917 11.5827 79.0233 10.5761C79.5549 9.5695 79.8207 8.37745 79.8207 7.02645C79.8207 5.67546 79.5549 4.48341 79.0233 3.47678C78.4917 2.47016 77.7209 1.67546 76.7108 1.11917C75.7008 0.562875 74.4781 0.297975 73.0428 0.297975H67.8596V13.7549H73.0428V13.7284ZM70.4379 11.4503V2.54963H73.0162C74.3186 2.54963 75.3287 2.94698 76.0463 3.71519C76.7906 4.5099 77.1361 5.59599 77.1361 6.99996C77.1361 8.40394 76.764 9.51652 76.0463 10.2847C75.3021 11.0529 74.292 11.4503 73.0162 11.4503H70.4379ZM86.3595 13.3046C86.9177 12.8808 87.343 12.3245 87.6354 11.6357V13.7284H90.1073V7.23837C90.1073 6.54963 89.9479 5.91387 89.6023 5.38407C89.2568 4.85427 88.7517 4.43043 88.1138 4.13903C87.4759 3.84764 86.705 3.6887 85.8279 3.6887C85.3494 3.6887 84.871 3.74168 84.4191 3.82115C83.9673 3.90062 83.542 4.03307 83.1433 4.19201C82.7446 4.35096 82.3725 4.53639 82.0535 4.74831L82.1332 7.05294C82.7446 6.65559 83.3293 6.3642 83.9141 6.15228C84.4989 5.94036 85.1368 5.8344 85.8545 5.8344C86.4127 5.8344 86.8645 5.96685 87.1835 6.23175C87.5025 6.49665 87.6619 6.84102 87.6619 7.26486V7.92711H85.4824C84.1533 7.92711 83.1167 8.19201 82.3459 8.74831C81.575 9.3046 81.2029 10.0728 81.2029 11.0529C81.2029 11.6092 81.3358 12.0861 81.575 12.5364C81.8408 12.9867 82.1864 13.3311 82.6648 13.5695C83.1433 13.8344 83.7015 13.9404 84.3128 13.9404C85.1368 13.9404 85.8013 13.7284 86.3595 13.3046ZM84.1268 11.6357C83.861 11.4238 83.7015 11.1324 83.7015 10.7616C83.7015 10.3112 83.8875 9.96685 84.2862 9.72844C84.6584 9.49003 85.2431 9.35758 85.9874 9.35758H87.5822V9.72844C87.5822 10.0463 87.5025 10.3642 87.3164 10.7086C87.1303 11.0529 86.8645 11.3443 86.4924 11.5827C86.1203 11.8212 85.7216 11.9271 85.2431 11.9271C84.7913 11.9536 84.4191 11.8476 84.1268 11.6357ZM95.1576 13.7284V9.5695C95.1576 8.48341 95.3968 7.66221 95.8487 7.10592C96.3006 6.54963 96.9385 6.25824 97.7093 6.25824C98.0814 6.25824 98.427 6.31122 98.7459 6.41718V4.00658C98.5865 3.9536 98.427 3.92711 98.2675 3.90062C98.108 3.87413 97.922 3.87413 97.7359 3.87413C97.1245 3.87413 96.5929 4.08605 96.1676 4.5099C95.7424 4.93374 95.3968 5.54301 95.1842 6.28473V3.9536H92.6856V13.7019H95.1576V13.7284ZM102.839 13.7284V10.5761L103.743 9.72844L106.667 13.7284H109.644L105.471 8.03307L109.564 3.98009H106.428L102.866 7.4238V0.271484H100.394V13.7284H102.839ZM113.658 13.7284V0.271484H111.159V13.7284H113.658ZM117.485 17.3576C118.415 17.3576 119.16 17.1721 119.744 16.8013C120.329 16.4304 120.808 15.7682 121.206 14.841L125.698 3.98009H123.12L120.489 10.788L117.777 3.98009H115.199L119.213 13.7019L119 14.2053C118.867 14.5231 118.708 14.788 118.469 14.9205C118.256 15.0794 117.91 15.1589 117.458 15.1589H115.385V17.3576H117.485Z" fill="white"/>
</svg>
