<svg viewBox="0 0 20 20" fill="none" xmlns="http://www.w3.org/2000/svg">
<path fill-rule="evenodd" clip-rule="evenodd" d="M9.68194 18.4546C14.2579 18.4546 17.9805 14.6056 17.9805 9.87476C17.9805 9.42725 17.9358 8.98107 17.8687 8.53886C17.8772 8.68455 17.8937 8.83455 17.8937 8.97459C17.8937 13.1185 14.633 16.4897 10.6248 16.4897C8.82057 16.4897 7.1691 15.8051 5.89687 14.6758C5.32712 15.2271 4.55612 15.6071 3.75109 15.868C5.25892 17.4624 7.35993 18.4546 9.68194 18.4546ZM3.35579 8.97459C3.35579 4.83067 6.61669 1.45932 10.6248 1.45932C10.9615 1.45932 11.2994 1.49251 11.6359 1.54129C10.9949 1.38067 10.34 1.29472 9.68194 1.29472C5.10597 1.29472 1.38301 5.14362 1.38301 9.87476C1.38301 11.0947 1.63226 12.255 2.07811 13.3068C2.80257 12.6365 3.42737 12.2114 3.94994 11.9474C3.56828 11.0349 3.35579 10.0301 3.35579 8.97459ZM10.6248 16.469C14.6282 16.469 17.8736 13.1135 17.8736 8.97459C17.8736 8.6804 17.8555 8.39085 17.8237 8.10562C17.9391 8.67659 18.0006 9.26812 18.0006 9.87476C18.0006 14.625 14.2762 18.4754 9.68194 18.4754C7.34613 18.4754 5.23645 17.4788 3.72557 15.8761C3.71979 15.8779 3.71401 15.8797 3.70823 15.8816C5.22441 17.4926 7.34131 18.4961 9.68194 18.4961C14.2799 18.4961 18.0207 14.6285 18.0207 9.87476C18.0207 9.28057 17.961 8.68455 17.8436 8.1033C17.8435 8.10263 17.8435 8.10197 17.8433 8.10131C17.8411 8.09052 17.831 8.08339 17.8205 8.08521C17.8099 8.08687 17.8026 8.09699 17.8038 8.10794C17.8369 8.40463 17.8536 8.69633 17.8536 8.97459C17.8536 13.0956 14.6108 16.4482 10.6248 16.4482C8.83213 16.4482 7.19093 15.7684 5.92624 14.6472C5.92047 14.6529 5.91485 14.6583 5.90907 14.6638C7.17697 15.7882 8.82346 16.469 10.6248 16.469ZM1.36295 9.87476C1.36295 5.1247 5.08751 1.27398 9.68194 1.27398C10.4918 1.27398 11.2735 1.39593 12.0137 1.61911C11.5642 1.52868 11.1001 1.48006 10.6248 1.48006C6.62134 1.48006 3.37585 4.83549 3.37585 8.97459C3.37585 10.0277 3.5869 11.0296 3.96615 11.9389C3.97257 11.9358 3.97947 11.932 3.98589 11.9288C3.60696 11.0222 3.39591 10.0234 3.39591 8.97459C3.39591 4.85357 6.63883 1.5008 10.6248 1.5008C11.0864 1.5008 11.5523 1.54743 12.01 1.63952C12.0205 1.64168 12.0307 1.63487 12.0333 1.62392C12.0359 1.6133 12.0296 1.60218 12.0194 1.5992C11.2577 1.36955 10.4714 1.25323 9.68194 1.25323C5.08382 1.25323 1.34289 5.12072 1.34289 9.87476C1.34289 11.1055 1.59535 12.2756 2.04681 13.3357C2.05147 13.3314 2.05596 13.3273 2.06061 13.3231C1.613 12.2671 1.36295 11.1013 1.36295 9.87476ZM10.6248 16.4897C14.633 16.4897 17.8937 13.1185 17.8937 8.97459C17.8937 8.83455 17.8772 8.68455 17.8687 8.53886C17.9358 8.98107 17.9805 9.42725 17.9805 9.87476C17.9805 14.6056 14.2579 18.4546 9.68194 18.4546C7.35993 18.4546 5.25892 17.4624 3.75109 15.868C3.74258 15.8708 3.73407 15.8733 3.72557 15.8761C5.23645 17.4788 7.34613 18.4754 9.68194 18.4754C14.2762 18.4754 18.0006 14.625 18.0006 9.87476C18.0006 9.26812 17.9391 8.67659 17.8237 8.10562C17.8555 8.39085 17.8736 8.6804 17.8736 8.97459C17.8736 13.1135 14.6282 16.469 10.6248 16.469C8.82346 16.469 7.17697 15.7882 5.90907 14.6638C5.90506 14.6678 5.90089 14.6718 5.89687 14.6758C7.1691 15.8051 8.82057 16.4897 10.6248 16.4897ZM1.38301 9.87476C1.38301 5.14362 5.10597 1.29472 9.68194 1.29472C10.34 1.29472 10.9949 1.38067 11.6359 1.54129C11.2994 1.49251 10.9615 1.45932 10.6248 1.45932C6.61669 1.45932 3.35579 4.83067 3.35579 8.97459C3.35579 10.0301 3.56828 11.0349 3.94994 11.9474C3.95523 11.9446 3.96085 11.9417 3.96615 11.9389C3.5869 11.0296 3.37585 10.0277 3.37585 8.97459C3.37585 4.83549 6.62134 1.48006 10.6248 1.48006C11.1001 1.48006 11.5642 1.52868 12.0137 1.61911C11.2735 1.39593 10.4918 1.27398 9.68194 1.27398C5.08751 1.27398 1.36295 5.1247 1.36295 9.87476C1.36295 11.1013 1.613 12.2671 2.06061 13.3231C2.06655 13.3176 2.07233 13.3125 2.07811 13.3068C1.63226 12.255 1.38301 11.0947 1.38301 9.87476ZM6.97105 9.77637C7.39572 9.14683 7.92326 8.43035 8.52607 7.69528C6.96335 7.01148 5.40545 7.458 4.70281 7.73776C5.91357 8.36796 6.59341 9.14899 6.97105 9.77637ZM18.7421 2.45772C18.4713 3.45545 17.8822 4.3596 16.9657 5.14079L16.9075 5.19074C16.7086 5.36712 16.3918 5.32912 16.1005 5.094C15.9075 4.9382 15.7495 4.70589 15.7495 4.47791C15.7495 4.40988 15.7637 4.34201 15.7951 4.2768C15.8063 4.2534 15.8219 4.2325 15.8407 4.21507C16.6086 3.5039 17.0386 2.90954 17.2819 2.47066C16.1012 2.57652 14.9376 2.919 13.8198 3.51668C12.1428 4.41369 10.498 5.99334 9.16852 7.55507C9.12326 7.60833 9.07752 7.66143 9.03306 7.71453C8.98684 7.76961 8.94207 7.82437 8.89665 7.87913C8.21937 8.69998 7.63517 9.50142 7.18627 10.1821C7.14085 10.2509 7.09656 10.319 7.05403 10.385C7.00748 10.4573 6.96271 10.528 6.91969 10.5967C6.74058 10.8838 6.59181 11.1408 6.47738 11.3573C6.50771 11.3764 6.54109 11.4 6.57528 11.425C6.63161 11.4664 6.6918 11.517 6.75407 11.5757C6.80976 11.6281 6.86577 11.689 6.92146 11.7566C7.04071 11.9018 7.15353 12.0816 7.241 12.304C7.26829 12.3733 7.29412 12.4447 7.31563 12.5222C7.33617 12.5967 7.35222 12.6763 7.36619 12.7586C7.36891 12.7735 7.37325 12.7867 7.37549 12.8019C7.49346 12.7842 7.68428 12.748 7.93529 12.6884C8.00093 12.6727 8.07107 12.6552 8.1449 12.6363C8.21166 12.6194 8.28132 12.6008 8.35434 12.5807C8.4126 12.565 8.4731 12.5479 8.53522 12.53C8.50103 12.4445 8.47134 12.3747 8.44775 12.3207C8.41485 12.2456 8.39414 12.2023 8.3927 12.1996C8.3813 12.176 8.37601 12.1506 8.37376 12.1249C8.37087 12.0932 8.37344 12.0614 8.38483 12.031C8.40538 11.9763 8.44743 11.9329 8.50055 11.912C8.61931 11.8654 8.73551 11.8163 8.84978 11.7664C10.2172 11.169 11.2487 10.3729 11.2597 10.3641C11.3141 10.3216 11.3857 10.3108 11.4498 10.335C11.5136 10.3594 11.5613 10.4157 11.5762 10.4844C11.6361 10.7605 11.6745 11.0238 11.6977 11.277C11.9824 11.1335 12.2744 10.9779 12.5718 10.8088C14.965 9.44683 18.1388 6.9257 19.7959 2.63775C19.5866 2.58183 19.2215 2.50252 18.7421 2.45772ZM11.7213 9.49943C11.3151 9.49943 10.9858 9.15911 10.9858 8.73914C10.9858 8.31917 11.3151 7.97852 11.7213 7.97852C12.1275 7.97852 12.457 8.31917 12.457 8.73914C12.457 9.15911 12.1275 9.49943 11.7213 9.49943ZM13.3693 8.21364C12.9629 8.21364 12.6337 7.87315 12.6337 7.45319C12.6337 7.03322 12.9629 6.69257 13.3693 6.69257C13.7755 6.69257 14.105 7.03322 14.105 7.45319C14.105 7.87315 13.7755 8.21364 13.3693 8.21364ZM14.9475 6.94146C14.5412 6.94146 14.212 6.60097 14.212 6.18101C14.212 5.76104 14.5412 5.42055 14.9475 5.42055C15.3538 5.42055 15.6832 5.76104 15.6832 6.18101C15.6832 6.60097 15.3538 6.94146 14.9475 6.94146ZM6.0219 12.2527C5.97503 12.1951 5.92785 12.1443 5.88163 12.103C5.81566 12.0441 5.75195 12.0033 5.69449 11.987C5.62965 12.0378 5.57188 12.0844 5.52437 12.1236C5.57188 12.0844 5.62949 12.0378 5.69449 11.987C5.69128 11.9862 5.68775 11.9839 5.6847 11.9831C5.5194 11.9436 5.00662 11.8858 4.15729 12.3075C4.15071 12.3108 4.14381 12.3143 4.13723 12.3176C4.13177 12.3202 4.12664 12.323 4.12134 12.3255C3.61611 12.5816 2.99452 13.0073 2.25786 13.7024C2.25208 13.7079 2.24631 13.7132 2.24037 13.719C2.23587 13.7232 2.2317 13.7273 2.22721 13.7315C1.62969 14.2991 0.95835 15.042 0.212219 16.018C0.857079 15.9941 2.15547 15.899 3.3988 15.5336C3.40458 15.5318 3.4102 15.5305 3.41598 15.5288C3.42448 15.5262 3.43283 15.5237 3.44133 15.5212C4.25102 15.2788 5.03262 14.9195 5.59242 14.3897C5.59643 14.3857 5.60077 14.3821 5.60494 14.3781C5.61056 14.3728 5.61681 14.3676 5.62259 14.3622C5.93315 14.0603 6.16971 13.7028 6.30164 13.2818C6.32411 13.2101 6.34353 13.1369 6.35958 13.0616C6.37129 13.007 6.38365 12.9528 6.39183 12.8963C6.38557 12.8804 6.37803 12.865 6.37145 12.849C6.27804 12.6234 6.15206 12.4118 6.0219 12.2527ZM5.41572 12.2149C5.41572 12.2149 5.41588 12.2149 5.41588 12.2147C5.41572 12.215 5.4154 12.2152 5.41524 12.2154C5.4154 12.2152 5.41556 12.215 5.41572 12.2149ZM5.417 12.2139C5.41668 12.2142 5.41636 12.2144 5.41604 12.2147L5.41572 12.2149C5.41604 12.2145 5.41652 12.2142 5.417 12.2139ZM5.62323 12.8212C5.5722 12.8656 5.51217 12.9157 5.44605 12.9693C5.39405 13.0115 5.33852 13.056 5.27978 13.1019C5.14111 13.2111 4.98736 13.3284 4.83409 13.4437C4.82783 13.4484 4.82173 13.453 4.81547 13.4577C4.81082 13.4612 4.80633 13.4646 4.80167 13.4681C4.34154 13.8136 3.89746 14.1317 3.89746 14.1317C3.89746 14.1317 4.33881 13.0254 4.27205 13.0394C3.66121 13.2166 2.8374 13.9429 2.53327 14.2251C2.52733 14.2306 2.52091 14.2364 2.51561 14.2415C2.51064 14.246 2.50727 14.2492 2.50277 14.2535C2.4466 14.3062 2.4129 14.3391 2.4129 14.3391C2.4129 14.3391 2.43986 14.2989 2.48945 14.2297C2.49266 14.2254 2.49716 14.2193 2.50053 14.2145C2.50518 14.208 2.51064 14.2005 2.51577 14.1937C2.75089 13.8692 3.36654 13.0704 4.05795 12.5831C4.10642 12.5489 4.15505 12.5193 4.20368 12.4916C4.20865 12.4888 4.21363 12.485 4.21876 12.4822C4.22534 12.4784 4.23208 12.4755 4.23882 12.4717C4.63283 12.259 5.01786 12.2499 5.30883 12.3154C5.39132 12.3338 5.46563 12.3581 5.53079 12.3856C5.60943 12.4188 5.67379 12.4558 5.72097 12.4926C5.78453 12.5422 5.81823 12.5904 5.81005 12.6245C5.8025 12.6552 5.73237 12.7261 5.62323 12.8212ZM7.40775 13.0044C7.40503 12.9624 7.4031 12.9368 7.39363 12.9157C7.39684 12.9468 7.40551 12.9722 7.40775 13.0044ZM8.29223 13.0264C8.24071 13.3666 8.16945 13.7676 8.0799 14.1118C8.3009 13.9916 8.58786 13.804 8.86872 13.539C8.80853 13.3102 8.74273 13.0999 8.67966 12.9176C8.53522 12.9601 8.40554 12.9962 8.29223 13.0264ZM6.35556 12.0172C6.52504 12.2321 6.66323 12.4877 6.75198 12.7029C6.81505 12.6682 6.87331 12.6307 6.92676 12.5922C6.83239 12.2832 6.67414 12.0632 6.52231 11.9132C6.46903 11.9446 6.41318 11.9794 6.35556 12.0172ZM11.3084 11.4677C11.2934 11.281 11.2692 11.088 11.2363 10.8893C10.9291 11.1061 10.3714 11.4723 9.66926 11.8307C9.58179 11.8752 9.4924 11.9197 9.40075 11.9638C9.25101 12.0357 9.09566 12.1063 8.93581 12.1747C8.90435 12.1881 8.87337 12.2018 8.8416 12.215C8.86567 12.2703 8.89344 12.337 8.92377 12.4128C8.9472 12.4712 8.9724 12.5368 8.99824 12.6061C9.02071 12.6665 9.04366 12.7302 9.06725 12.7981C9.10866 12.9181 9.15103 13.0485 9.19243 13.1885C9.21522 13.2659 9.23737 13.3467 9.25904 13.4291C9.27942 13.5066 9.299 13.5864 9.31778 13.6679C9.41889 14.1063 9.4932 14.5976 9.4932 15.1004C9.4932 15.2117 9.47362 15.3229 9.46575 15.4344C10.0633 15.0207 11.2843 13.9296 11.3214 11.9145C11.322 11.8833 11.3247 11.8541 11.3247 11.8226C11.3247 11.7788 11.3227 11.7337 11.3211 11.6887C11.3186 11.6164 11.3145 11.5427 11.3084 11.4677Z" fill="white"/>
</svg>
