<svg width="206" height="24" viewBox="0 0 206 24" fill="none" xmlns="http://www.w3.org/2000/svg">
<g clip-path="url(#clip0)">
<path d="M88.0277 16.3773C87.6442 16.8249 87.1953 17.212 86.6962 17.5257C86.1993 17.8235 85.6277 17.9736 85.0485 17.9584C84.5608 17.9621 84.0782 17.8598 83.6338 17.6588C83.1942 17.4546 82.8029 17.1597 82.4854 16.7933C82.1395 16.4087 81.8686 15.9627 81.6865 15.4785C81.4905 14.9632 81.3945 14.4153 81.4036 13.8641V13.8308C81.4005 13.1821 81.4959 12.5368 81.6865 11.9168C81.8573 11.4445 82.1172 11.0094 82.4521 10.6352C82.7687 10.2793 83.1535 9.99059 83.5839 9.78641C84.0224 9.58544 84.4996 9.48317 84.982 9.48682C85.5638 9.46809 86.1379 9.62465 86.6297 9.9362C87.1181 10.2576 87.5652 10.6377 87.9612 11.068L88.2441 11.3842L89.4591 10.0693L89.2261 9.80305C88.982 9.53138 88.7207 9.27565 88.4438 9.03745C88.1549 8.78368 87.8363 8.56574 87.4951 8.38835C87.1369 8.19456 86.757 8.04373 86.3634 7.93897C85.9182 7.82127 85.459 7.76526 84.9986 7.77254C84.2579 7.77266 83.5257 7.93157 82.8516 8.23856C82.2037 8.55252 81.6218 8.98752 81.1373 9.52011C80.6477 10.0596 80.2637 10.6863 80.0055 11.3675C79.7226 12.0832 79.5895 13.165 79.5895 13.8974V13.9307C79.5828 14.6886 79.7242 15.4405 80.0055 16.1442C80.2639 16.8204 80.6479 17.4416 81.1373 17.975C81.6198 18.5012 82.2027 18.9256 82.8516 19.2233C83.5231 19.5381 84.257 19.6973 84.9986 19.6893C85.8731 19.7123 86.737 19.4934 87.4951 19.0569C88.1756 18.6436 88.783 18.1206 89.2926 17.509L89.5423 17.2261L88.3107 16.0777L88.0277 16.3773Z" fill="white"/>
<path d="M63.2954 14.7462C63.2982 15.2004 63.2193 15.6514 63.0624 16.0777C62.9223 16.4592 62.7008 16.8056 62.4133 17.0929C62.1379 17.3755 61.81 17.6017 61.448 17.7587C61.0676 17.914 60.6605 17.9932 60.2496 17.9917C59.3509 17.9917 58.7018 17.7254 58.2191 17.1761C57.7365 16.6269 57.5035 15.8613 57.5035 14.896V8.12205H55.7559V15.0791C55.7525 15.695 55.8481 16.3075 56.0388 16.8932C56.2131 17.4405 56.509 17.9412 56.9043 18.3578C57.2921 18.7727 57.7627 19.1016 58.2857 19.3232C58.8611 19.5576 59.4787 19.6709 60.0999 19.656C61.0818 19.656 61.914 19.423 62.5464 18.957C62.809 18.7685 63.0541 18.5568 63.2788 18.3245V19.423H65.0263V8.10541H63.2788V14.7462H63.2954Z" fill="white"/>
<path d="M33.9029 4.34399H32.0555V19.4397H42.3745V17.6422H33.9029V4.34399Z" fill="white"/>
<path d="M100.178 9.20388C99.7897 8.78897 99.3191 8.4601 98.7961 8.23855C98.2207 8.00409 97.6032 7.89078 96.982 7.90568C96 7.90568 95.1678 8.13869 94.5354 8.60471C94.2729 8.79322 94.0278 9.00488 93.8031 9.23716V4.66019H92.0555V19.4397H93.8031V12.8322C93.8003 12.378 93.8792 11.927 94.0361 11.5007C94.1762 11.1192 94.3977 10.7727 94.6852 10.4854C94.9606 10.2028 95.2885 9.97668 95.6505 9.81969C96.0308 9.66434 96.438 9.58518 96.8488 9.58668C97.7476 9.58668 98.3967 9.85297 98.8793 10.4022C99.362 10.9514 99.595 11.7171 99.595 12.6824V19.4563H101.343V12.4993C101.346 11.8833 101.25 11.2708 101.06 10.6852C100.863 10.1397 100.563 9.63691 100.178 9.20388V9.20388Z" fill="white"/>
<path d="M48.7157 7.82246C48.0527 7.81489 47.3918 7.8989 46.7517 8.07211C46.1608 8.24011 45.5869 8.46299 45.0375 8.73786L44.7046 8.90429L45.3537 10.5187L45.7365 10.319C46.1719 10.0865 46.629 9.89695 47.1013 9.75311C47.6046 9.60909 48.1256 9.53626 48.6491 9.53675C49.5645 9.53675 50.2802 9.76976 50.7795 10.2191C51.2122 10.6019 51.4952 11.5173 51.5118 12.5159C51.1771 12.4318 50.8382 12.3651 50.4965 12.3162C49.8796 12.2231 49.2564 12.1786 48.6325 12.1831C48.0036 12.1783 47.3768 12.2567 46.7684 12.4161C46.2363 12.5572 45.7343 12.794 45.2871 13.1151C44.8727 13.4321 44.532 13.8353 44.2885 14.2968C44.0402 14.8514 43.9152 15.4534 43.9223 16.061V16.0943C43.9144 16.6505 44.046 17.1998 44.3051 17.6921C44.5499 18.1387 44.8911 18.5253 45.3038 18.8238C45.71 19.124 46.1665 19.3495 46.6519 19.4896C47.132 19.6357 47.6313 19.7087 48.1332 19.706C48.6052 19.7068 49.0753 19.6452 49.5312 19.5229C49.9335 19.4129 50.3196 19.2507 50.6796 19.0402C50.9826 18.8719 51.2623 18.6649 51.5118 18.4244V19.4729H53.2427V12.5659C53.2427 11.1179 52.8266 9.81969 52.1276 9.08737C51.3287 8.23855 50.1803 7.82246 48.7157 7.82246ZM50.5798 17.1928C50.2597 17.4451 49.8997 17.642 49.5146 17.7753C49.0957 17.9145 48.6577 17.9875 48.2164 17.9917C47.8887 17.9933 47.5628 17.9428 47.251 17.8419C46.9663 17.7494 46.697 17.6148 46.4522 17.4424C46.2416 17.2795 46.0661 17.0757 45.9362 16.8433C45.8134 16.595 45.7507 16.3213 45.7531 16.0444V16.0111C45.7531 15.362 46.0028 14.7628 46.4355 14.4299C46.9182 14.0471 47.6505 13.8641 48.5992 13.8641C49.2127 13.858 49.8256 13.9082 50.43 14.0139C50.8461 14.0971 51.2289 14.1637 51.5617 14.2469V15.0957C51.568 15.5248 51.4829 15.9503 51.3121 16.344C51.119 16.6672 50.8712 16.9544 50.5798 17.1928V17.1928Z" fill="white"/>
<path d="M76.2275 9.05411C75.8396 8.6392 75.369 8.31033 74.846 8.08878C74.2706 7.85432 73.6531 7.74101 73.0319 7.75591C72.0499 7.75591 71.2177 7.98892 70.5853 8.45494C70.3228 8.64345 70.0777 8.85511 69.853 9.08739V8.15535H68.1054V19.4563H69.853V12.6824C69.8502 12.2282 69.9291 11.7772 70.086 11.3509C70.2261 10.9694 70.4476 10.6229 70.7351 10.3357C71.0105 10.0531 71.3384 9.82691 71.7004 9.66992C72.0808 9.51457 72.4879 9.43541 72.8987 9.43691C73.7975 9.43691 74.4466 9.7032 74.9293 10.2524C75.4119 10.8017 75.6449 11.5673 75.6449 12.5326V19.4563H77.3759V12.3495C77.3792 11.7336 77.2837 11.1211 77.0929 10.5354C76.9122 9.98607 76.6173 9.48124 76.2275 9.05411Z" fill="white"/>
<path d="M114.807 6.77395C114.118 6.0968 113.297 5.56977 112.394 5.2261C111.418 4.84714 110.379 4.65518 109.331 4.66022H104.422V19.4563H109.331C110.379 19.4614 111.418 19.2694 112.394 18.8905C113.294 18.5346 114.115 18.0027 114.807 17.326C115.486 16.6612 116.019 15.8619 116.372 14.9792C116.742 14.0532 116.929 13.0639 116.921 12.0666V12.0333C116.93 11.0413 116.743 10.0571 116.372 9.13734C116.021 8.24873 115.488 7.44357 114.807 6.77395V6.77395ZM115.09 12.05V12.0832C115.097 12.8343 114.962 13.5798 114.691 14.2802C114.436 14.9423 114.045 15.5434 113.542 16.0444C113.028 16.5589 112.417 16.9662 111.745 17.2427C110.977 17.5468 110.157 17.694 109.331 17.6755H106.219V6.39115H109.331C110.152 6.37788 110.968 6.53073 111.728 6.84053C112.407 7.1125 113.02 7.52679 113.526 8.05551C114.023 8.5732 114.413 9.18406 114.674 9.85301C114.956 10.5509 115.097 11.2974 115.09 12.05V12.05Z" fill="white"/>
<path d="M153.137 4.66019H151.39V19.4563H153.137V4.66019Z" fill="white"/>
<path d="M164.521 8.13867L161.209 16.6269L157.381 8.13867H155.401L160.327 18.6907C160.198 19.0052 160.047 19.311 159.878 19.6061C159.74 19.8482 159.573 20.0719 159.379 20.2718C159.246 20.4146 159.08 20.523 158.896 20.588C158.709 20.6562 158.512 20.69 158.313 20.6879C158.034 20.691 157.755 20.6631 157.481 20.6047C157.25 20.5482 157.027 20.4644 156.816 20.355L156.416 20.1553L155.8 21.7864L156.15 21.9362C156.479 22.0772 156.819 22.194 157.165 22.2857C157.525 22.3691 157.894 22.4082 158.264 22.4022C159.03 22.4166 159.776 22.1502 160.361 21.6532C160.943 21.1706 161.442 20.3883 161.925 19.2399L166.419 8.13867H164.521Z" fill="white"/>
<path d="M146.63 8.13867L140.921 14.38V4.64352H139.19V19.4396H140.921V16.7267L142.902 14.6796L146.646 19.4396H148.86L144.117 13.398L148.976 8.13867H146.63Z" fill="white"/>
<path d="M134.896 8.02219C134.33 8.20527 133.664 8.67129 133.398 8.85437C132.99 9.15731 132.625 9.51584 132.316 9.91956L132.283 9.95285V8.12206H130.535V19.423H132.283V14.5298C132.275 13.8347 132.381 13.1429 132.599 12.4827C132.785 11.9408 133.08 11.4424 133.465 11.018C133.858 10.588 134.326 10.2327 134.846 9.96949C135.309 9.77154 135.807 9.66962 136.311 9.66991H136.81V7.80583L136.427 7.78918C135.909 7.79771 135.394 7.87609 134.896 8.02219V8.02219Z" fill="white"/>
<path d="M123.129 7.82246C122.466 7.81489 121.805 7.8989 121.165 8.07211C120.574 8.24011 120 8.46299 119.451 8.73786L119.118 8.90429L119.767 10.5187L120.15 10.319C120.585 10.0865 121.042 9.89695 121.515 9.75311C122.018 9.60909 122.539 9.53626 123.062 9.53675C123.978 9.53675 124.694 9.76976 125.193 10.2191C125.626 10.6019 125.908 11.5173 125.925 12.5159C125.59 12.4318 125.252 12.3651 124.91 12.3162C124.293 12.2231 123.67 12.1786 123.046 12.1831C122.417 12.1783 121.79 12.2567 121.182 12.4161C120.65 12.5572 120.148 12.794 119.7 13.1151C119.286 13.4321 118.945 13.8353 118.702 14.2968C118.454 14.8514 118.329 15.4534 118.336 16.061V16.0943C118.328 16.6505 118.459 17.1998 118.718 17.6921C118.963 18.1387 119.304 18.5253 119.717 18.8238C120.123 19.124 120.58 19.3495 121.065 19.4896C121.545 19.6357 122.045 19.7087 122.546 19.706C123.019 19.7068 123.489 19.6452 123.945 19.5229C124.347 19.4129 124.733 19.2507 125.093 19.0402C125.396 18.8719 125.676 18.6649 125.925 18.4244V19.4729H127.639V12.5659C127.639 11.1179 127.223 9.81969 126.524 9.08737C125.725 8.23855 124.594 7.82246 123.129 7.82246ZM124.976 17.1928C124.656 17.4451 124.296 17.642 123.911 17.7753C123.492 17.9145 123.054 17.9875 122.613 17.9917C122.285 17.9933 121.96 17.9428 121.648 17.8419C121.363 17.7494 121.094 17.6148 120.849 17.4424C120.627 17.2838 120.448 17.0736 120.326 16.83C120.204 16.5864 120.144 16.3167 120.15 16.0444V16.0111C120.15 15.362 120.399 14.7628 120.832 14.4299C121.315 14.0471 122.047 13.8641 122.996 13.8641C123.609 13.858 124.222 13.9082 124.827 14.0139C125.243 14.0804 125.626 14.1637 125.958 14.2469V15.0957C125.965 15.5248 125.88 15.9503 125.709 16.344C125.516 16.6672 125.268 16.9544 124.976 17.1928V17.1928Z" fill="white"/>
<path fill-rule="evenodd" clip-rule="evenodd" d="M13.2316 24C19.6228 24 24.8322 18.6241 24.8322 12C24.8243 11.3759 24.7743 10.7532 24.6824 10.1359C24.699 10.3356 24.7157 10.552 24.7157 10.7517C24.7157 16.5437 20.1554 21.2538 14.5465 21.2538C12.237 21.2539 10 20.4474 8.22193 18.9736C7.42304 19.6394 6.8738 20.1553 5.24274 20.6879C7.37535 22.7863 10.2399 23.9739 13.2316 24V24Z" fill="white"/>
<path fill-rule="evenodd" clip-rule="evenodd" d="M4.37729 10.7351C4.37729 4.94313 8.93762 0.23301 14.5465 0.23301C15.0202 0.238736 15.4929 0.277666 15.9612 0.349515C15.0683 0.125927 14.1521 0.00860887 13.2317 0C6.84053 0 1.6311 5.37587 1.6311 12C1.64907 13.5016 1.90755 14.9907 2.39671 16.4105C3.17395 15.6507 4.06028 15.0112 5.02639 14.5132C4.57172 13.3066 4.35141 12.0243 4.37729 10.7351V10.7351Z" fill="white"/>
<path fill-rule="evenodd" clip-rule="evenodd" d="M11.2011 8.78781C9.15397 8.07214 7.19003 8.63802 6.258 9.00418C7.41938 9.58361 8.42413 10.4342 9.18726 11.4841C9.7365 10.6519 11.0014 9.03747 11.2011 8.78781Z" fill="white"/>
<path fill-rule="evenodd" clip-rule="evenodd" d="M15.2621 14.7462C15.2442 14.4727 15.2109 14.2004 15.1622 13.9306C14.46 14.4173 13.726 14.8565 12.9653 15.2455C12.8488 15.312 12.7156 15.362 12.5825 15.4286L11.9334 15.7281C11.8834 15.7448 11.8502 15.7614 11.8002 15.7781C11.8335 15.8613 11.8668 15.9445 11.9167 16.061C11.95 16.1442 11.9833 16.2274 12.0166 16.3273C12.0499 16.4272 12.0832 16.4937 12.1165 16.5936C12.1664 16.76 12.233 16.9431 12.2995 17.1428C12.3328 17.2427 12.3661 17.3592 12.3994 17.4757C12.4327 17.5922 12.4493 17.6921 12.4826 17.8086C12.6363 18.4636 12.72 19.1331 12.7323 19.8058C12.7323 19.9556 12.699 20.122 12.699 20.2718C13.4968 19.7207 14.1496 18.985 14.6016 18.1272C15.0537 17.2693 15.2917 16.315 15.2954 15.3453V15.0291C15.267 14.9376 15.2557 14.8417 15.2621 14.7462V14.7462Z" fill="white"/>
<path fill-rule="evenodd" clip-rule="evenodd" d="M25.8974 1.63107C26.397 1.6748 26.8923 1.75829 27.3786 1.88073C25.0652 7.8724 20.6214 11.4008 17.276 13.2982C16.8599 13.5312 16.5437 13.6976 16.1609 13.8974C16.1276 13.5978 16.0111 12.8821 15.9279 12.4327C15.9244 12.4094 15.9148 12.3874 15.9001 12.369C15.8853 12.3506 15.866 12.3365 15.844 12.328C15.822 12.3195 15.7981 12.3171 15.7748 12.3209C15.7516 12.3246 15.7297 12.3345 15.7115 12.3495C14.1899 13.5067 12.5222 14.458 10.7517 15.1789C10.7227 15.1913 10.6965 15.2094 10.6747 15.2323C10.6529 15.2552 10.6361 15.2822 10.6251 15.3119C10.6142 15.3415 10.6095 15.373 10.6112 15.4045C10.613 15.4361 10.6211 15.4669 10.6352 15.4951C10.6852 15.6117 10.7684 15.7614 10.8349 15.8946C10.3856 16.0111 9.88627 16.1276 9.75312 16.1609C9.63661 15.5118 9.15395 14.663 8.638 14.2968C8.80444 13.9972 9.15395 13.3814 9.4036 12.982C9.47018 12.8821 9.52011 12.7823 9.58668 12.6824C9.65326 12.5825 9.70319 12.4993 9.76976 12.3994C10.5101 11.2863 11.3102 10.214 12.1664 9.18724C12.2325 9.11371 12.2937 9.03587 12.3495 8.95423C12.4153 8.8863 12.4765 8.81402 12.5326 8.73787C14.3967 6.55756 16.6935 4.34397 19.0402 3.09571C20.5403 2.28818 22.1873 1.79012 23.8835 1.63107C23.5506 2.24688 22.9348 3.07906 21.8696 4.07767C21.8389 4.09737 21.8155 4.12661 21.8031 4.16089C21.7558 4.24749 21.7328 4.34524 21.7365 4.44383C21.7516 4.61391 21.8024 4.77889 21.8856 4.92801C21.9687 5.07713 22.0824 5.20705 22.2191 5.3093C22.6186 5.64217 23.068 5.6921 23.3509 5.44245L23.4341 5.37587C24.6824 4.29404 25.5146 3.02913 25.8974 1.63107V1.63107ZM16.0777 11.4674C16.2896 11.474 16.4988 11.4172 16.6782 11.3043C16.8577 11.1914 16.9994 11.0274 17.0852 10.8334C17.1709 10.6395 17.1968 10.4243 17.1596 10.2156C17.1223 10.0068 17.0236 9.81391 16.876 9.66159C16.7285 9.50927 16.5388 9.40447 16.3313 9.3606C16.1238 9.31673 15.908 9.33579 15.7114 9.41534C15.5148 9.49489 15.3464 9.63131 15.2279 9.80712C15.1093 9.98294 15.0459 10.1902 15.0458 10.4022C15.0431 10.54 15.0678 10.677 15.1183 10.8053C15.1688 10.9335 15.2442 11.0505 15.3401 11.1495C15.436 11.2485 15.5505 11.3276 15.6771 11.3821C15.8037 11.4367 15.9398 11.4657 16.0777 11.4674V11.4674ZM18.3745 9.66991C18.1625 9.67653 17.9534 9.61974 17.7739 9.5068C17.5944 9.39385 17.4527 9.2299 17.367 9.03594C17.2812 8.84198 17.2553 8.62684 17.2926 8.41807C17.3298 8.2093 17.4286 8.01641 17.5761 7.86409C17.7237 7.71177 17.9134 7.60697 18.1208 7.5631C18.3283 7.51922 18.5442 7.53828 18.7408 7.61783C18.9373 7.69739 19.1057 7.8338 19.2243 8.00962C19.3429 8.18544 19.4063 8.39265 19.4064 8.60472C19.409 8.74254 19.3844 8.87952 19.3339 9.00777C19.2834 9.13603 19.208 9.25303 19.1121 9.35203C19.0162 9.45104 18.9016 9.53009 18.775 9.58465C18.6484 9.6392 18.5123 9.66818 18.3745 9.66991V9.66991ZM20.5881 7.90569C20.3761 7.91232 20.167 7.85552 19.9875 7.74258C19.808 7.62964 19.6663 7.46569 19.5806 7.27173C19.4948 7.07777 19.4689 6.86263 19.5062 6.65386C19.5434 6.44508 19.6422 6.25219 19.7897 6.09987C19.9373 5.94756 20.1269 5.84275 20.3344 5.79888C20.5419 5.75501 20.7578 5.77407 20.9544 5.85362C21.1509 5.93317 21.3193 6.06959 21.4379 6.2454C21.5565 6.42122 21.6199 6.62843 21.62 6.8405C21.6227 7.11809 21.5159 7.38556 21.3227 7.58495C21.1296 7.78434 20.8656 7.89957 20.5881 7.90569V7.90569Z" fill="white"/>
<path fill-rule="evenodd" clip-rule="evenodd" d="M7.65603 14.9459C8.22191 14.9792 8.75451 16.061 8.73786 16.344C8.72122 16.7101 8.57143 17.2926 7.55617 18.2746L7.53953 18.2912L7.52288 18.3079C6.74064 19.0569 5.64216 19.5562 4.5104 19.889C4.49376 19.889 4.49376 19.889 4.47711 19.9057H4.46047C3.00611 20.3099 1.50868 20.5389 0 20.5881C0.856086 19.4538 1.79633 18.3856 2.81276 17.3925L2.8294 17.3759L2.84605 17.3592C3.87795 16.3939 4.74341 15.7947 5.45908 15.4286C5.4635 15.4286 5.46773 15.4268 5.47085 15.4237C5.47397 15.4206 5.47573 15.4163 5.47573 15.4119C5.49237 15.4119 5.49237 15.3953 5.50901 15.3953C6.69071 14.8127 7.40638 14.896 7.65603 14.9459V14.9459ZM7.55617 16.1276C7.66015 16.0488 7.75017 15.9532 7.82247 15.8446C7.83911 15.7947 7.77254 15.7448 7.70596 15.6616C7.32316 15.1789 6.04161 15.6616 5.47573 16.0111C4.61375 16.5513 3.85326 17.2385 3.22885 18.0416C3.22885 18.0582 3.2122 18.0582 3.2122 18.0749L3.19556 18.0915L3.0957 18.2413C3.0957 18.2413 3.14563 18.1914 3.22885 18.1248L3.24549 18.1082L3.26214 18.0915C3.69487 17.6921 4.84327 16.6768 5.69209 16.4272C5.79196 16.4105 5.17614 17.9584 5.17614 17.9584C5.17614 17.9584 6.47434 17.0097 6.49098 16.9931C6.70735 16.8266 6.92372 16.6602 7.1068 16.5104C7.19001 16.4438 7.27323 16.3772 7.33981 16.3273C7.39492 16.2444 7.46911 16.1759 7.55617 16.1276V16.1276Z" fill="white"/>
</g>
<path d="M176.419 17.893V10.107H178.872C179.573 10.107 180.199 10.262 180.751 10.5722C181.306 10.8788 181.738 11.3173 182.048 11.8877C182.359 12.4545 182.514 13.0998 182.514 13.8235V14.1818C182.514 14.9055 182.361 15.549 182.054 16.1123C181.751 16.6756 181.322 17.1123 180.767 17.4225C180.212 17.7326 179.586 17.8895 178.889 17.893H176.419ZM178.062 11.4064V16.6043H178.856C179.498 16.6043 179.989 16.3993 180.329 15.9893C180.668 15.5793 180.842 14.9929 180.849 14.2299V13.8182C180.849 13.0267 180.681 12.4278 180.345 12.0214C180.009 11.6114 179.518 11.4064 178.872 11.4064H178.062Z" fill="#F1F3F5"/>
<path d="M190.543 14.1765C190.543 14.943 190.404 15.615 190.127 16.1925C189.85 16.7701 189.452 17.2157 188.933 17.5294C188.418 17.8431 187.827 18 187.159 18C186.498 18 185.908 17.8449 185.39 17.5348C184.872 17.2246 184.47 16.7825 184.185 16.2086C183.901 15.631 183.756 14.9679 183.753 14.2193V13.8342C183.753 13.0677 183.893 12.3939 184.174 11.8128C184.459 11.2282 184.859 10.7807 185.374 10.4706C185.892 10.1569 186.483 10 187.148 10C187.812 10 188.402 10.1569 188.917 10.4706C189.435 10.7807 189.835 11.2282 190.116 11.8128C190.401 12.3939 190.543 13.066 190.543 13.8289V14.1765ZM188.878 13.8235C188.878 13.0071 188.729 12.3868 188.429 11.9626C188.13 11.5383 187.703 11.3262 187.148 11.3262C186.597 11.3262 186.171 11.5365 185.872 11.9572C185.573 12.3743 185.421 12.9875 185.417 13.7968V14.1765C185.417 14.9715 185.567 15.5882 185.867 16.0267C186.166 16.4652 186.597 16.6845 187.159 16.6845C187.71 16.6845 188.134 16.4742 188.429 16.0535C188.725 15.6292 188.875 15.0125 188.878 14.2032V13.8235Z" fill="#F1F3F5"/>
<path d="M198.277 15.2995C198.215 16.1373 197.897 16.7968 197.324 17.2781C196.754 17.7594 196.002 18 195.068 18C194.045 18 193.24 17.6649 192.653 16.9947C192.069 16.3209 191.776 15.3975 191.776 14.2246V13.7487C191.776 13 191.912 12.3405 192.182 11.7701C192.452 11.1996 192.837 10.7629 193.337 10.4599C193.841 10.1533 194.425 10 195.09 10C196.01 10 196.751 10.2406 197.313 10.7219C197.875 11.2032 198.2 11.8788 198.288 12.7487H196.645C196.605 12.246 196.46 11.8824 196.212 11.6578C195.968 11.4296 195.593 11.3155 195.09 11.3155C194.542 11.3155 194.131 11.508 193.857 11.893C193.587 12.2745 193.449 12.8681 193.441 13.6738V14.262C193.441 15.1034 193.571 15.7184 193.83 16.107C194.093 16.4955 194.505 16.6898 195.068 16.6898C195.575 16.6898 195.953 16.5775 196.201 16.3529C196.453 16.1248 196.597 15.7736 196.634 15.2995H198.277Z" fill="#F1F3F5"/>
<path d="M203.771 15.8503C203.771 15.5472 203.661 15.3155 203.442 15.1551C203.223 14.9911 202.829 14.82 202.259 14.6417C201.69 14.4599 201.239 14.2816 200.906 14.107C200.001 13.6292 199.548 12.9857 199.548 12.1765C199.548 11.7558 199.669 11.3815 199.91 11.0535C200.154 10.7219 200.503 10.4635 200.956 10.2781C201.412 10.0927 201.923 10 202.489 10C203.059 10 203.566 10.1016 204.011 10.3048C204.457 10.5045 204.802 10.7879 205.047 11.1551C205.295 11.5223 205.419 11.9394 205.419 12.4064H203.776C203.776 12.0499 203.661 11.7736 203.431 11.5775C203.201 11.3779 202.878 11.2781 202.462 11.2781C202.06 11.2781 201.748 11.3619 201.525 11.5294C201.303 11.6934 201.191 11.9109 201.191 12.1818C201.191 12.4349 201.321 12.6471 201.58 12.8182C201.843 12.9893 202.228 13.1497 202.736 13.2995C203.67 13.574 204.351 13.9144 204.778 14.3209C205.205 14.7273 205.419 15.2335 205.419 15.8396C205.419 16.5134 205.158 17.0428 204.636 17.4278C204.114 17.8093 203.411 18 202.527 18C201.914 18 201.356 17.8913 200.852 17.6738C200.348 17.4528 199.963 17.1515 199.696 16.7701C199.433 16.3886 199.302 15.9465 199.302 15.4439H200.95C200.95 16.303 201.476 16.7326 202.527 16.7326C202.918 16.7326 203.223 16.656 203.442 16.5027C203.661 16.3458 203.771 16.1283 203.771 15.8503Z" fill="#F1F3F5"/>
<defs>
<clipPath id="clip0">
<rect width="166.419" height="24" fill="white"/>
</clipPath>
</defs>
</svg>
