<svg xmlns="http://www.w3.org/2000/svg" viewBox="0 0 999.9 144.2"><defs><style>.cls-1,.cls-2{fill:#fff;}.cls-2{fill-rule:evenodd;}</style></defs><title>Asset 1</title><g id="Layer_2" data-name="Layer 2"><g id="Layer_1-2" data-name="Layer 1"><g id="Mark"><path class="cls-1" d="M528.9,98.4a35.2,35.2,0,0,1-8,6.9,18.32,18.32,0,0,1-9.9,2.6,20.25,20.25,0,0,1-8.5-1.8,20.63,20.63,0,0,1-6.9-5.2,24.94,24.94,0,0,1-4.8-7.9,26.07,26.07,0,0,1-1.7-9.7v-.2a38.5,38.5,0,0,1,1.7-11.5,23.55,23.55,0,0,1,4.6-7.7,21.34,21.34,0,0,1,6.8-5.1,19.8,19.8,0,0,1,8.4-1.8,17.45,17.45,0,0,1,9.9,2.7,43,43,0,0,1,8,6.8l1.7,1.9,7.3-7.9-1.4-1.6a51.29,51.29,0,0,0-4.7-4.6,28.7,28.7,0,0,0-5.7-3.9,31.11,31.11,0,0,0-6.8-2.7,30.21,30.21,0,0,0-8.2-1,31.14,31.14,0,0,0-12.9,2.8,33.92,33.92,0,0,0-10.3,7.7,34.94,34.94,0,0,0-6.8,11.1c-1.7,4.3-2.5,10.8-2.5,15.2v.2A35,35,0,0,0,480.7,97a34.47,34.47,0,0,0,6.8,11,32.18,32.18,0,0,0,10.3,7.5,29.64,29.64,0,0,0,12.9,2.8,28.56,28.56,0,0,0,15-3.8,43.35,43.35,0,0,0,10.8-9.3l1.5-1.7-7.4-6.9Z"/><path class="cls-1" d="M380.3,88.6a22.76,22.76,0,0,1-1.4,8,16.82,16.82,0,0,1-3.9,6.1,18.22,18.22,0,0,1-5.8,4,18.86,18.86,0,0,1-7.2,1.4c-5.4,0-9.3-1.6-12.2-4.9s-4.3-7.9-4.3-13.7V48.8H335V90.6a34.59,34.59,0,0,0,1.7,10.9,22.87,22.87,0,0,0,5.2,8.8,24.38,24.38,0,0,0,8.3,5.8,27.16,27.16,0,0,0,10.9,2c5.9,0,10.9-1.4,14.7-4.2a32.49,32.49,0,0,0,4.4-3.8v6.6h10.5v-68H380.2V88.6Z"/><polygon class="cls-1" points="203.7 26.1 192.6 26.1 192.6 116.8 254.6 116.8 254.6 106 203.7 106 203.7 26.1"/><path class="cls-1" d="M601.9,55.3a24.38,24.38,0,0,0-8.3-5.8,27.16,27.16,0,0,0-10.9-2c-5.9,0-10.9,1.4-14.7,4.2a32.49,32.49,0,0,0-4.4,3.8V28H553.1v88.8h10.5V77.1a22.76,22.76,0,0,1,1.4-8,16.82,16.82,0,0,1,3.9-6.1,18.22,18.22,0,0,1,5.8-4,18.86,18.86,0,0,1,7.2-1.4c5.4,0,9.3,1.6,12.2,4.9s4.3,7.9,4.3,13.7v40.7h10.5V75.1a34.59,34.59,0,0,0-1.7-10.9A27.34,27.34,0,0,0,601.9,55.3Z"/><path class="cls-1" d="M292.7,47a43.28,43.28,0,0,0-11.8,1.5,59.21,59.21,0,0,0-10.3,4l-2,1,3.9,9.7,2.3-1.2a45.65,45.65,0,0,1,8.2-3.4,33.69,33.69,0,0,1,9.3-1.3c5.5,0,9.8,1.4,12.8,4.1,2.6,2.3,4.3,7.8,4.4,13.8a59.81,59.81,0,0,0-6.1-1.2,71.61,71.61,0,0,0-11.2-.8A42.9,42.9,0,0,0,281,74.6a27.22,27.22,0,0,0-8.9,4.2,21.67,21.67,0,0,0-6,7.1,25.22,25.22,0,0,0-2.2,10.6v.2a20,20,0,0,0,2.3,9.6,20.63,20.63,0,0,0,6,6.8,25.56,25.56,0,0,0,8.1,4,30,30,0,0,0,8.9,1.3,32.18,32.18,0,0,0,8.4-1.1,28.63,28.63,0,0,0,6.9-2.9,24,24,0,0,0,5-3.7V117h10.4V75.5c0-8.7-2.5-16.5-6.7-20.9C308.4,49.5,301.5,47,292.7,47Zm11.2,56.3a21.92,21.92,0,0,1-6.4,3.5,25.51,25.51,0,0,1-7.8,1.3,18.53,18.53,0,0,1-5.8-.9,18,18,0,0,1-4.8-2.4,11.88,11.88,0,0,1-3.1-3.6,10.61,10.61,0,0,1-1.1-4.8v-.2c0-3.9,1.5-7.5,4.1-9.5,2.9-2.3,7.3-3.4,13-3.4a60.4,60.4,0,0,1,11,.9c2.5.5,4.8.9,6.8,1.4v5.1a18.17,18.17,0,0,1-1.5,7.5A19.51,19.51,0,0,1,303.9,103.3Z"/><path class="cls-1" d="M458,54.4a24.38,24.38,0,0,0-8.3-5.8,27.16,27.16,0,0,0-10.9-2c-5.9,0-10.9,1.4-14.7,4.2a32.49,32.49,0,0,0-4.4,3.8V49H409.2v67.9h10.5V76.2a22.76,22.76,0,0,1,1.4-8,16.82,16.82,0,0,1,3.9-6.1,18.22,18.22,0,0,1,5.8-4,18.86,18.86,0,0,1,7.2-1.4c5.4,0,9.3,1.6,12.2,4.9s4.3,7.9,4.3,13.7v41.6h10.4V74.2a34.59,34.59,0,0,0-1.7-10.9A24.61,24.61,0,0,0,458,54.4Z"/><path class="cls-1" d="M689.8,40.7a42,42,0,0,0-14.5-9.3A50.18,50.18,0,0,0,656.9,28H627.4v88.9h29.5a50.18,50.18,0,0,0,18.4-3.4,43.75,43.75,0,0,0,14.5-9.4A41,41,0,0,0,699.2,90a46.18,46.18,0,0,0,3.3-17.5v-.2a45.31,45.31,0,0,0-3.3-17.4A41,41,0,0,0,689.8,40.7Zm1.7,31.7v.2a35.61,35.61,0,0,1-2.4,13.2,30.4,30.4,0,0,1-6.9,10.6,33,33,0,0,1-10.8,7.2,37.11,37.11,0,0,1-14.5,2.6H638.2V38.4h18.7a36.6,36.6,0,0,1,14.4,2.7,30.77,30.77,0,0,1,10.8,7.3A32.75,32.75,0,0,1,689,59.2,34.45,34.45,0,0,1,691.5,72.4Z"/><rect class="cls-1" x="909.6" y="28" width="10.5" height="88.9"/><path class="cls-1" d="M988.5,48.9l-19.9,51-23-51H933.7l29.6,63.4a47.17,47.17,0,0,1-2.7,5.5,19.78,19.78,0,0,1-3,4,7.28,7.28,0,0,1-2.9,1.9,9.89,9.89,0,0,1-3.5.6,22.71,22.71,0,0,1-5-.5,18,18,0,0,1-4-1.5l-2.4-1.2-3.7,9.8,2.1.9a44.31,44.31,0,0,0,6.1,2.1,27.28,27.28,0,0,0,6.6.7,18.9,18.9,0,0,0,12.6-4.5c3.5-2.9,6.5-7.6,9.4-14.5l27-66.7Z"/><polygon class="cls-1" points="881 48.9 846.7 86.4 846.7 27.9 836.3 27.9 836.3 116.8 846.7 116.8 846.7 100.5 858.6 88.2 881.1 116.8 894.4 116.8 865.9 80.5 895.1 48.9 881 48.9"/><path class="cls-1" d="M810.5,48.2c-3.4,1.1-7.4,3.9-9,5a32.8,32.8,0,0,0-6.5,6.4l-.2.2v-11H784.3v67.9h10.5V87.3A37.83,37.83,0,0,1,796.7,75a25.36,25.36,0,0,1,5.2-8.8,29,29,0,0,1,8.3-6.3,22.35,22.35,0,0,1,8.8-1.8h3V46.9l-2.3-.1A34.68,34.68,0,0,0,810.5,48.2Z"/><path class="cls-1" d="M739.8,47A43.28,43.28,0,0,0,728,48.5a59.21,59.21,0,0,0-10.3,4l-2,1,3.9,9.7,2.3-1.2a45.65,45.65,0,0,1,8.2-3.4,33.69,33.69,0,0,1,9.3-1.3c5.5,0,9.8,1.4,12.8,4.1,2.6,2.3,4.3,7.8,4.4,13.8a59.81,59.81,0,0,0-6.1-1.2,71.61,71.61,0,0,0-11.2-.8,42.9,42.9,0,0,0-11.2,1.4,27.22,27.22,0,0,0-8.9,4.2,21.67,21.67,0,0,0-6,7.1A25.22,25.22,0,0,0,711,96.5v.2a20,20,0,0,0,2.3,9.6,20.63,20.63,0,0,0,6,6.8,25.56,25.56,0,0,0,8.1,4,30,30,0,0,0,8.9,1.3,32.18,32.18,0,0,0,8.4-1.1,28.63,28.63,0,0,0,6.9-2.9,24,24,0,0,0,5-3.7V117h10.3V75.5c0-8.7-2.5-16.5-6.7-20.9C755.4,49.5,748.6,47,739.8,47Zm11.1,56.3a21.92,21.92,0,0,1-6.4,3.5,25.51,25.51,0,0,1-7.8,1.3,18.53,18.53,0,0,1-5.8-.9,18,18,0,0,1-4.8-2.4,10.06,10.06,0,0,1-4.2-8.4v-.2c0-3.9,1.5-7.5,4.1-9.5,2.9-2.3,7.3-3.4,13-3.4a60.4,60.4,0,0,1,11,.9c2.5.4,4.8.9,6.8,1.4v5.1a18.17,18.17,0,0,1-1.5,7.5A19.51,19.51,0,0,1,750.9,103.3Z"/><path class="cls-2" d="M79.5,144.2c38.4,0,69.7-32.3,69.7-72.1a83.2,83.2,0,0,0-.9-11.2c.1,1.2.2,2.5.2,3.7,0,34.8-27.4,63.1-61.1,63.1a59.54,59.54,0,0,1-38-13.7c-4.8,4-8.1,7.1-17.9,10.3a69.3,69.3,0,0,0,48,19.9Z"/><path class="cls-2" d="M26.3,64.5c0-34.8,27.4-63.1,61.1-63.1a60.9,60.9,0,0,1,8.5.7A70.22,70.22,0,0,0,79.5,0C41.1,0,9.8,32.3,9.8,72.1a84.46,84.46,0,0,0,4.6,26.5A65.61,65.61,0,0,1,30.2,87.2a60.91,60.91,0,0,1-3.9-22.7Z"/><path class="cls-2" d="M67.3,52.8c-12.3-4.3-24.1-.9-29.7,1.3A48.56,48.56,0,0,1,55.2,69C58.5,64,66.1,54.3,67.3,52.8Z"/><path class="cls-2" d="M91.7,88.6a43.61,43.61,0,0,0-.6-4.9,115.4,115.4,0,0,1-13.2,7.9c-.7.4-1.5.7-2.3,1.1l-3.9,1.8c-.3.1-.5.2-.8.3.2.5.4,1,.7,1.7.2.5.4,1,.6,1.6s.4,1,.6,1.6c.3,1,.7,2.1,1.1,3.3.2.6.4,1.3.6,2s.3,1.3.5,2a57.09,57.09,0,0,1,1.5,12c0,.9-.2,1.9-.2,2.8A36.14,36.14,0,0,0,91.9,92.2V90.3a4.68,4.68,0,0,1-.2-1.7Z"/><path class="cls-2" d="M155.6,9.8h0a56.71,56.71,0,0,1,8.9,1.5c-13.9,36-40.6,57.2-60.7,68.6-2.5,1.4-4.4,2.4-6.7,3.6-.2-1.8-.9-6.1-1.4-8.8a.8.8,0,0,0-1.3-.5,130.58,130.58,0,0,1-29.8,17,1.39,1.39,0,0,0-.7,1.9c.3.7.8,1.6,1.2,2.4-2.7.7-5.7,1.4-6.5,1.6-.7-3.9-3.6-9-6.7-11.2,1-1.8,3.1-5.5,4.6-7.9.4-.6.7-1.2,1.1-1.8s.7-1.1,1.1-1.7A222.72,222.72,0,0,1,73.1,55.2a13.44,13.44,0,0,0,1.1-1.4,12.67,12.67,0,0,0,1.1-1.3c11.2-13.1,25-26.4,39.1-33.9a76.45,76.45,0,0,1,29.1-8.8c-2,3.7-5.7,8.7-12.1,14.7a1,1,0,0,0-.4.5,3.29,3.29,0,0,0-.4,1.7,7.3,7.3,0,0,0,2.9,5.2c2.4,2,5.1,2.3,6.8.8l.5-.4c7.5-6.5,12.5-14.1,14.8-22.5Zm-59,59.1h0a6.4,6.4,0,1,0-6.2-6.4,6.28,6.28,0,0,0,6.2,6.4Zm13.8-10.8a6.4,6.4,0,1,1,6.2-6.4,6.28,6.28,0,0,1-6.2,6.4Zm13.3-10.6a6.4,6.4,0,1,1,6.2-6.4,6.34,6.34,0,0,1-6.2,6.4Z"/><path class="cls-2" d="M46,89.8c3.4.2,6.6,6.7,6.5,8.4-.1,2.2-1,5.7-7.1,11.6l-.1.1-.1.1c-4.7,4.5-11.3,7.5-18.1,9.5-.1,0-.1,0-.2.1h-.1A113.93,113.93,0,0,1,0,123.7a170.16,170.16,0,0,1,16.9-19.2l.1-.1.1-.1c6.2-5.8,11.4-9.4,15.7-11.6a.1.1,0,0,0,.1-.1c.1,0,.1-.1.2-.1,7.1-3.5,11.4-3,12.9-2.7h0m-.6,7.1h0A7,7,0,0,0,47,95.2c.1-.3-.3-.6-.7-1.1-2.3-2.9-10,0-13.4,2.1a52.24,52.24,0,0,0-13.5,12.2c0,.1-.1.1-.1.2l-.1.1-.6.9s.3-.3.8-.7l.1-.1.1-.1c2.6-2.4,9.5-8.5,14.6-10,.6-.1-3.1,9.2-3.1,9.2s7.8-5.7,7.9-5.8c1.3-1,2.6-2,3.7-2.9.5-.4,1-.8,1.4-1.1a3.74,3.74,0,0,1,1.3-1.2Z"/></g></g></g></svg>