<svg width="119" height="20" viewBox="0 0 119 20" fill="none" xmlns="http://www.w3.org/2000/svg">
<path d="M65.6855 14.8366H68.4397C69.2244 14.8366 69.9413 14.7054 70.5703 14.4462C71.1973 14.1879 71.7353 13.8324 72.1685 13.3898C72.6026 12.9463 72.9438 12.4181 73.1824 11.8201C73.4219 11.2199 73.5434 10.5625 73.5434 9.86598V9.83042C73.5434 9.14524 73.4218 8.49046 73.1821 7.88428C72.9431 7.28001 72.6017 6.74566 72.167 6.29624C71.7334 5.84766 71.1953 5.48665 70.5678 5.22273C69.9394 4.95836 69.2234 4.82421 68.4397 4.82421H65.6855V14.8366ZM68.4397 15.5377H64.9853V4.12295H68.4397C69.3171 4.12295 70.1244 4.27556 70.8391 4.57624C71.5541 4.87703 72.0002 5.48309 72.5 6C72.9986 6.51603 73.56 6.93593 73.833 7.62614C74.1054 8.31482 74.2435 9.05636 74.2435 9.83042V9.86598C74.2435 10.6521 74.1053 11.3972 73.8326 12.0803C73.5595 12.7649 73.1678 13.3706 72.6684 13.8806C72.1685 14.3914 71.5524 14.7997 70.8365 15.0946C70.1225 15.3888 69.3162 15.5377 68.4397 15.5377ZM40.1374 16.3892H38.5969V10.2434C38.5969 9.39955 38.383 8.72146 37.9606 8.22761C37.5465 7.74318 36.9603 7.5076 36.1685 7.5076C35.7845 7.5076 35.4275 7.57845 35.108 7.71792C34.7856 7.85845 34.5003 8.05608 34.2591 8.30536C34.0186 8.55422 33.8273 8.8583 33.6906 9.209C33.553 9.5625 33.4829 9.95822 33.4829 10.3852V16.3892H31.9423V6.36149H33.4829V7.19172C33.6777 6.98552 33.8928 6.79632 34.1275 6.6254C34.6892 6.21593 35.4163 6.00827 36.2886 6.00827C36.8818 6.00827 37.4236 6.10994 37.8994 6.31069C38.3787 6.51292 38.792 6.80163 39.1278 7.16856C39.4624 7.53417 39.7178 7.97269 39.8873 8.47218C40.0533 8.96178 40.1374 9.50391 40.1374 10.0837V16.3892ZM61.3457 16.3892H59.805V10.3836C59.805 9.5399 59.5911 8.8617 59.1688 8.36782C58.7546 7.88339 58.1686 7.64781 57.3768 7.64781C56.9927 7.64781 56.6358 7.71867 56.3163 7.85817C55.9939 7.99866 55.7086 8.19629 55.4676 8.44575C55.2267 8.69474 55.0352 8.99865 54.8988 9.34921C54.7612 9.70256 54.6912 10.0984 54.6912 10.5254V16.3892H53.1508V3.27659H54.6912V7.33193C54.8858 7.12576 55.101 6.93667 55.3358 6.76561C55.8975 6.356 56.6245 6.14848 57.4968 6.14848C58.09 6.14848 58.6319 6.25032 59.1077 6.4509C59.587 6.65313 60.0003 6.9417 60.3359 7.30877C60.6707 7.67438 60.9261 8.11305 61.0955 8.61239C61.2614 9.10245 61.3457 9.64458 61.3457 10.2239V16.3892ZM64.9853 15.5377H68.4397C69.3271 15.5377 70.0437 15.2002 70.7809 14.8996C71.5182 14.5991 72.0555 14.1733 72.5863 13.6521C73.1151 13.1327 73.5434 12.7892 73.8326 12.0803C74.1227 11.3694 74.033 10.6202 74.033 9.79499L74 9.5C74 8.67518 73.8332 8.09136 73.5434 7.38642C73.254 6.68311 73.0291 6.51971 72.5 6C71.97 5.4794 71.5175 4.87069 70.7809 4.57624C70.0432 4.28091 69.3281 4.18375 68.4397 4.18375L64.9853 4.12295V15.5377ZM68.4398 16.3892H64.0935V3.27174H68.4398C69.4176 3.27174 70.3299 3.43838 71.1506 3.76662C71.9735 4.09592 72.6931 4.55984 73.2897 5.14569C73.8871 5.73239 74.3548 6.43099 74.6803 7.22244C75.0051 8.01269 75.1699 8.87807 75.1699 9.79499V9.83042C75.1699 10.747 75.0052 11.6151 74.6807 12.4109C74.3552 13.2087 73.8873 13.9107 73.2897 14.4974C72.6938 15.0826 71.9748 15.5495 71.1529 15.8844C70.3313 16.2195 69.4182 16.3892 68.4398 16.3892ZM88.7634 16.3892H87.2228V6.36149H88.7634V7.98463L88.7874 7.95307C89.0695 7.58508 89.3937 7.26612 89.7504 7.00532C89.9836 6.83497 90.5796 6.42185 91.0809 6.26389C91.5104 6.12854 91.9691 6.06626 92.4387 6.07926L92.7794 6.08872V7.73829H92.3435C91.8904 7.73829 91.4519 7.82731 91.0401 8.00294C90.6654 8.16281 90.1607 8.54214 89.8129 8.92546C89.4963 9.27453 89.2399 9.71319 89.0507 10.2296C88.8601 10.7496 88.7634 11.3625 88.7634 12.0509V16.3892ZM103.448 16.3892H101.496L98.1747 12.1557L96.4246 13.9802V16.3892H94.8842V3.26111H96.4246V11.8905L101.48 6.36149H103.55L99.244 11.0201L103.448 16.3892ZM107.23 16.3892H105.69V3.26877H107.23V16.3892ZM9.14611 16.3899H0V3H1.64862V14.7832H9.14611V16.3899ZM14.6458 11.4242C13.8032 11.4242 13.1566 11.5939 12.7243 11.9277C12.3425 12.2229 12.1145 12.7452 12.1145 13.3247V13.3601C12.1145 13.6308 12.1697 13.8702 12.2782 14.0716C12.3924 14.2831 12.543 14.458 12.7386 14.606C12.9391 14.7576 13.1767 14.8763 13.4445 14.9585C13.7189 15.0424 14.0075 15.085 14.3026 15.085C14.7081 15.085 15.0974 15.0226 15.4592 14.8996C15.8192 14.7774 16.1383 14.6059 16.4082 14.3901C16.671 14.1798 16.8821 13.9223 17.0358 13.6246C17.1716 13.3625 17.2627 12.9147 17.2627 12.5107V11.7564C16.967 11.6869 16.6325 11.6183 16.2643 11.552C15.7952 11.4672 15.2507 11.4242 14.6458 11.4242ZM14.2512 16.6021C13.808 16.6021 13.3651 16.5375 12.9343 16.4104C12.4969 16.2811 12.0968 16.0838 11.7453 15.824C11.3867 15.5591 11.0913 15.2238 10.868 14.8276C10.6388 14.4211 10.5225 13.9452 10.5225 13.4134V13.378C10.5225 12.9262 10.607 12.2789 10.8444 11.8177C11.0568 11.4052 11.3537 11.0543 11.7264 10.7754C12.0912 10.502 12.5342 10.2918 13.043 10.1505C13.54 10.0127 14.0966 9.94271 14.6972 9.94271C15.33 9.94271 15.8854 9.97991 16.3471 10.0534C16.6501 10.1017 16.9506 10.1613 17.2451 10.231C17.2335 9.35261 16.9761 8.54079 16.5974 8.19749C16.1573 7.79865 15.5238 7.59645 14.7142 7.59645C14.214 7.59645 13.7522 7.65975 13.3415 7.78508C12.9191 7.91392 12.5129 8.08134 12.1344 8.28265L11.7916 8.46495L11.2147 7.03968L11.5071 6.89579C12.0031 6.65136 12.5129 6.45299 13.0223 6.30584C13.5434 6.15542 14.13 6.07912 14.7657 6.07912C16.059 6.07912 17.0727 6.4493 17.7784 7.17933C18.3988 7.82065 18.7689 8.97152 18.7689 10.2578V16.3892H17.2455V15.4634C17.0272 15.6688 16.7774 15.8536 16.5022 16.0137C16.2046 16.1868 15.8634 16.3296 15.4884 16.4376C15.1101 16.5467 14.6938 16.6021 14.2512 16.6021ZM24.8655 16.6021C24.2722 16.6021 23.7303 16.5004 23.2546 16.2996C22.7751 16.0973 22.3618 15.8087 22.0262 15.4418C21.6916 15.0763 21.4362 14.6378 21.2668 14.1382C21.1009 13.6483 21.0165 13.1061 21.0165 12.5265V6.36149H22.5571V12.3669C22.5571 13.2108 22.7713 13.8892 23.1934 14.3827C23.6075 14.8671 24.1937 15.1027 24.9855 15.1027C25.3587 15.1027 25.7133 15.0317 26.0395 14.8915C26.3665 14.7511 26.6543 14.5536 26.8948 14.3048C27.1357 14.0559 27.327 13.752 27.4635 13.4015C27.601 13.0478 27.6711 12.6522 27.6711 12.2251V6.36149H29.2116V16.3978H27.6711V15.4189C27.4765 15.6248 27.2613 15.814 27.0265 15.9851C26.4649 16.3945 25.7378 16.6021 24.8655 16.6021ZM46.8777 16.6021C46.2032 16.6021 45.5648 16.4605 44.9801 16.1815C44.4023 15.9057 43.8934 15.5314 43.4676 15.0694C43.0421 14.6081 42.7037 14.0634 42.4617 13.4508C42.2192 12.8372 42.0963 12.177 42.0963 11.4886V11.4528C42.0963 10.7953 42.2094 9.84603 42.4618 9.20708C42.7033 8.59587 43.0404 8.04648 43.4642 7.57402C43.891 7.09827 44.4011 6.7169 44.98 6.44045C45.5647 6.1613 46.2032 6.01992 46.8777 6.01992C47.3153 6.01992 47.7216 6.0692 48.0846 6.16648C48.4451 6.26319 48.7838 6.3978 49.0911 6.5662C49.396 6.73341 49.6778 6.92945 49.9288 7.14879C50.171 7.36088 50.402 7.58848 50.6148 7.8254L50.8282 8.06289L49.7578 9.22391L49.5006 8.94449C49.1467 8.56014 48.7501 8.22197 48.3213 7.93946C47.9272 7.67955 47.4359 7.54788 46.8606 7.54788C46.4158 7.54788 45.9991 7.6391 45.6225 7.81902C45.2412 8.00146 44.9057 8.25445 44.6259 8.5709C44.3431 8.89092 44.1156 9.27496 43.9497 9.71217C43.7858 10.1445 43.7 10.8968 43.7 11.4167V11.4528C43.7 11.9579 43.7866 12.4384 43.9576 12.8807C44.1286 13.3238 44.3643 13.7138 44.6579 14.0395C44.9487 14.3626 45.2929 14.6192 45.6804 14.802C46.0632 14.9827 46.4833 15.0742 46.9288 15.0742C47.4745 15.0742 47.9667 14.9432 48.3919 14.6847C48.84 14.4121 49.2384 14.0711 49.5758 13.6708L49.8125 13.39L50.9053 14.4065L50.6907 14.662C50.2246 15.2161 49.6881 15.6794 49.0959 16.039C48.4805 16.4127 47.7342 16.6021 46.8777 16.6021ZM80.5403 11.4242C79.6977 11.4242 79.0514 11.5939 78.619 11.9277C78.2371 12.2227 78.0092 12.7452 78.0092 13.3247V13.3601C78.0092 13.635 78.0627 13.8676 78.1729 14.0714C78.2854 14.2801 78.4403 14.4599 78.6334 14.606C78.8339 14.7578 79.0714 14.8763 79.3394 14.9585C79.6134 15.0424 79.902 15.085 80.1973 15.085C80.6028 15.085 80.992 15.0226 81.3539 14.8996C81.7137 14.7774 82.0329 14.6059 82.3025 14.3901C82.5655 14.1796 82.7769 13.9222 82.9306 13.6246C83.0662 13.3624 83.1573 12.9145 83.1573 12.5107V11.7564C82.8612 11.6869 82.5269 11.6181 82.159 11.552C81.6898 11.4672 81.1453 11.4242 80.5403 11.4242ZM80.1458 16.6021C79.7029 16.6021 79.2598 16.5375 78.8291 16.4104C78.3915 16.2811 77.9913 16.0838 77.6398 15.824C77.2812 15.5591 76.9859 15.2238 76.7625 14.8276C76.5334 14.4211 76.4172 13.9452 76.4172 13.4134V13.378C76.4172 12.926 76.5016 12.2788 76.7391 11.8177C76.9513 11.4052 77.248 11.0545 77.6209 10.7754C77.9859 10.5018 78.429 10.2918 78.9375 10.1505C79.4346 10.0127 79.9913 9.94271 80.5917 9.94271C81.2246 9.94271 81.7796 9.97991 82.2418 10.0534C82.5447 10.1017 82.8452 10.1613 83.1397 10.231C83.1281 9.35247 82.8707 8.54065 82.4919 8.19749C82.0521 7.79865 81.4184 7.59645 80.609 7.59645C80.1087 7.59645 79.6468 7.65975 79.2359 7.78508C78.8135 7.91392 78.4076 8.08134 78.0291 8.28251L77.6862 8.46495L77.1092 7.03968L77.4015 6.89579C77.8979 6.65122 78.4077 6.45285 78.917 6.30584C79.4382 6.15542 80.0245 6.07912 80.6604 6.07912C81.9536 6.07912 82.9673 6.4493 83.673 7.17933C84.2931 7.82065 84.6635 8.97152 84.6635 10.2578V16.3892H83.1402V15.4636C82.9215 15.6689 82.6718 15.8537 82.3969 16.0137C82.099 16.187 81.7578 16.3297 81.3831 16.4376C81.0046 16.5467 80.5883 16.6021 80.1458 16.6021ZM111.774 19C111.416 19 111.088 18.9637 110.799 18.8922C110.518 18.8227 110.216 18.7178 109.902 18.5805L109.596 18.4463L110.147 17.0052L110.495 17.1851C110.698 17.29 110.896 17.3668 111.086 17.4131C111.275 17.4595 111.524 17.483 111.826 17.483C112.013 17.483 112.186 17.4543 112.34 17.3978C112.486 17.3448 112.628 17.2497 112.762 17.1154C112.912 16.9654 113.061 16.7653 113.205 16.5204C113.336 16.2973 113.47 16.0263 113.604 15.7128L109.235 6.36149H110.989L114.376 13.8955L117.315 6.36149H119L115.015 16.2091C114.599 17.2202 114.148 17.9176 113.635 18.3428C113.11 18.7789 112.484 19 111.774 19Z" fill="white"/>
</svg>
