<svg width="24" height="24" viewBox="0 0 24 24" fill="none" xmlns="http://www.w3.org/2000/svg">
<path fill-rule="evenodd" clip-rule="evenodd" d="M11.6183 22.1455C17.1095 22.1455 21.5766 17.5267 21.5766 11.8497C21.5766 11.3127 21.5229 10.7772 21.4424 10.2466C21.4526 10.4214 21.4724 10.6014 21.4724 10.7695C21.4724 15.7422 17.5596 19.7876 12.7498 19.7876C10.5847 19.7876 8.6029 18.9661 7.07622 17.6109C6.39253 18.2725 5.46732 18.7285 4.50128 19.0415C6.31067 20.9548 8.83189 22.1455 11.6183 22.1455ZM4.02693 10.7695C4.02693 5.79677 7.94 1.75115 12.7498 1.75115C13.1538 1.75115 13.5592 1.79097 13.9631 1.84951C13.1939 1.65677 12.4079 1.55362 11.6183 1.55362C6.12714 1.55362 1.65959 6.1723 1.65959 11.8497C1.65959 13.3136 1.95869 14.706 2.49371 15.9682C3.36306 15.1638 4.11282 14.6536 4.7399 14.3368C4.28192 13.2419 4.02693 12.0361 4.02693 10.7695ZM12.7498 19.7627C17.5538 19.7627 21.4484 15.7362 21.4484 10.7695C21.4484 10.4164 21.4266 10.069 21.3885 9.72671C21.5269 10.4119 21.6007 11.1217 21.6007 11.8497C21.6007 17.55 17.1314 22.1704 11.6183 22.1704C8.81533 22.1704 6.28371 20.9745 4.47066 19.0513C4.46372 19.0535 4.45679 19.0557 4.44986 19.0579C6.26927 20.9911 8.80955 22.1953 11.6183 22.1953C17.1359 22.1953 21.6248 17.5541 21.6248 11.8497C21.6248 11.1366 21.5531 10.4214 21.4123 9.72392C21.4121 9.72313 21.4121 9.72233 21.412 9.72153C21.4093 9.70859 21.3971 9.70003 21.3846 9.70222C21.3719 9.70421 21.363 9.71636 21.3646 9.7295C21.4043 10.0855 21.4243 10.4356 21.4243 10.7695C21.4243 15.7147 17.533 19.7378 12.7498 19.7378C10.5985 19.7378 8.62909 18.9221 7.11147 17.5766C7.10454 17.5834 7.0978 17.59 7.09086 17.5965C8.61233 18.9457 10.5881 19.7627 12.7498 19.7627ZM1.63552 11.8497C1.63552 6.1496 6.10499 1.52873 11.6183 1.52873C12.5901 1.52873 13.5282 1.67508 14.4165 1.94289C13.877 1.83438 13.32 1.77604 12.7498 1.77604C7.94558 1.77604 4.051 5.80255 4.051 10.7695C4.051 12.0333 4.30426 13.2355 4.75935 14.3267C4.76705 14.3229 4.77534 14.3183 4.78304 14.3145C4.32833 13.2266 4.07507 12.0281 4.07507 10.7695C4.07507 5.82425 7.96658 1.80093 12.7498 1.80093C13.3037 1.80093 13.8628 1.85688 14.412 1.96739C14.4245 1.96997 14.4369 1.96181 14.44 1.94867C14.443 1.93593 14.4355 1.92258 14.4232 1.919C13.5092 1.64343 12.5657 1.50385 11.6183 1.50385C6.10056 1.50385 1.61144 6.14483 1.61144 11.8497C1.61144 13.3265 1.91439 14.7307 2.45615 16.0028C2.46174 15.9976 2.46713 15.9927 2.47271 15.9877C1.93558 14.7205 1.63552 13.3215 1.63552 11.8497ZM12.7498 19.7876C17.5596 19.7876 21.4724 15.7422 21.4724 10.7695C21.4724 10.6014 21.4526 10.4214 21.4424 10.2466C21.5229 10.7772 21.5766 11.3127 21.5766 11.8497C21.5766 17.5267 17.1095 22.1455 11.6183 22.1455C8.83189 22.1455 6.31067 20.9548 4.50128 19.0415C4.49107 19.0449 4.48086 19.0479 4.47066 19.0513C6.28371 20.9745 8.81533 22.1704 11.6183 22.1704C17.1314 22.1704 21.6007 17.55 21.6007 11.8497C21.6007 11.1217 21.5269 10.4119 21.3885 9.72671C21.4266 10.069 21.4484 10.4164 21.4484 10.7695C21.4484 15.7362 17.5538 19.7627 12.7498 19.7627C10.5881 19.7627 8.61233 18.9457 7.09086 17.5965C7.08605 17.6013 7.08104 17.6061 7.07622 17.6109C8.6029 18.9661 10.5847 19.7876 12.7498 19.7876ZM1.65959 11.8497C1.65959 6.1723 6.12714 1.55362 11.6183 1.55362C12.4079 1.55362 13.1939 1.65677 13.9631 1.84951C13.5592 1.79097 13.1538 1.75115 12.7498 1.75115C7.94 1.75115 4.02693 5.79677 4.02693 10.7695C4.02693 12.0361 4.28192 13.2419 4.7399 14.3368C4.74625 14.3334 4.75299 14.3301 4.75935 14.3267C4.30426 13.2355 4.051 12.0333 4.051 10.7695C4.051 5.80255 7.94558 1.77604 12.7498 1.77604C13.32 1.77604 13.877 1.83438 14.4165 1.94289C13.5282 1.67508 12.5901 1.52873 11.6183 1.52873C6.10499 1.52873 1.63552 6.1496 1.63552 11.8497C1.63552 13.3215 1.93558 14.7205 2.47271 15.9877C2.47984 15.9811 2.48677 15.9749 2.49371 15.9682C1.95869 14.706 1.65959 13.3136 1.65959 11.8497ZM8.36524 11.7316C8.87484 10.9762 9.50788 10.1164 10.2313 9.2343C8.35599 8.41374 6.48651 8.94956 5.64334 9.28527C7.09625 10.0415 7.91207 10.9787 8.36524 11.7316ZM22.4905 2.94922C22.1656 4.1465 21.4586 5.23148 20.3589 6.16892L20.289 6.22885C20.0503 6.44051 19.6702 6.39491 19.3206 6.11277C19.0889 5.9258 18.8994 5.64704 18.8994 5.37345C18.8994 5.29181 18.9164 5.21038 18.9541 5.13212C18.9676 5.10405 18.9863 5.07896 19.0088 5.05805C19.9304 4.20465 20.4463 3.49141 20.7383 2.96475C19.3214 3.09179 17.9251 3.50276 16.5837 4.21998C14.5713 5.29639 12.5976 7.19197 11.0022 9.06605C10.9479 9.12996 10.893 9.19368 10.8397 9.2574C10.7842 9.3235 10.7305 9.38921 10.676 9.45492C9.86321 10.4399 9.16218 11.4017 8.6235 12.2184C8.569 12.3011 8.51585 12.3827 8.46481 12.462C8.40896 12.5488 8.35522 12.6336 8.30361 12.716C8.08868 13.0605 7.91015 13.3689 7.77283 13.6288C7.80923 13.6517 7.84929 13.6799 7.89031 13.71C7.95791 13.7596 8.03013 13.8203 8.10486 13.8908C8.17168 13.9537 8.2389 14.0268 8.30573 14.1078C8.44882 14.2821 8.58422 14.4979 8.68918 14.7647C8.72192 14.848 8.75293 14.9336 8.77873 15.0266C8.80338 15.116 8.82264 15.2115 8.8394 15.3103C8.84267 15.3282 8.84787 15.344 8.85057 15.3623C8.99212 15.341 9.22111 15.2976 9.52233 15.2261C9.6011 15.2072 9.68526 15.1863 9.77385 15.1636C9.85397 15.1432 9.93755 15.1209 10.0252 15.0969C10.0951 15.0779 10.1677 15.0574 10.2422 15.0359C10.2012 14.9334 10.1656 14.8495 10.1373 14.7848C10.0978 14.6946 10.0729 14.6427 10.0712 14.6395C10.0575 14.6112 10.0512 14.5807 10.0485 14.5499C10.045 14.5118 10.0481 14.4736 10.0618 14.4372C10.0864 14.3715 10.1369 14.3195 10.2006 14.2944C10.3432 14.2385 10.4826 14.1795 10.6197 14.1196C12.2606 13.4028 13.4984 12.4474 13.5117 12.4369C13.577 12.3859 13.6629 12.373 13.7397 12.402C13.8163 12.4313 13.8735 12.4988 13.8915 12.5812C13.9633 12.9126 14.0093 13.2286 14.0372 13.5324C14.3789 13.3602 14.7292 13.1734 15.0861 12.9705C17.958 11.3362 21.7665 8.3108 23.755 3.16526C23.5039 3.09816 23.0657 3.00298 22.4905 2.94922ZM14.0656 11.3993C13.5781 11.3993 13.1829 10.9909 13.1829 10.4869C13.1829 9.98297 13.5781 9.57419 14.0656 9.57419C14.553 9.57419 14.9484 9.98297 14.9484 10.4869C14.9484 10.9909 14.553 11.3993 14.0656 11.3993ZM16.0431 9.85633C15.5554 9.85633 15.1604 9.44775 15.1604 8.94379C15.1604 8.43983 15.5554 8.03104 16.0431 8.03104C16.5305 8.03104 16.9259 8.43983 16.9259 8.94379C16.9259 9.44775 16.5305 9.85633 16.0431 9.85633ZM17.937 8.32972C17.4494 8.32972 17.0544 7.92113 17.0544 7.41717C17.0544 6.91321 17.4494 6.50463 17.937 6.50463C18.4245 6.50463 18.8199 6.91321 18.8199 7.41717C18.8199 7.92113 18.4245 8.32972 17.937 8.32972ZM7.22625 14.7032C7.17002 14.6341 7.11339 14.5732 7.05793 14.5236C6.97877 14.4529 6.90231 14.4039 6.83337 14.3844C6.75556 14.4453 6.68623 14.5013 6.62922 14.5483C6.68623 14.5013 6.75537 14.4453 6.83337 14.3844C6.82952 14.3834 6.82528 14.3806 6.82162 14.3796C6.62325 14.3322 6.00792 14.263 4.98873 14.7689C4.98083 14.7729 4.97255 14.7771 4.96465 14.7811C4.9581 14.7842 4.95194 14.7876 4.94559 14.7906C4.33931 15.0978 3.5934 15.6088 2.70941 16.4429C2.70247 16.4494 2.69554 16.4558 2.68842 16.4628C2.68302 16.4678 2.67802 16.4727 2.67262 16.4777C1.95561 17.1589 1.15 18.0503 0.254639 19.2215C1.02847 19.1929 2.58654 19.0788 4.07854 18.6403C4.08547 18.6381 4.09221 18.6365 4.09915 18.6345C4.10935 18.6313 4.11937 18.6284 4.12958 18.6254C5.1012 18.3345 6.03912 17.9034 6.71088 17.2676C6.71569 17.2628 6.72089 17.2584 6.7259 17.2537C6.73264 17.2473 6.74015 17.2411 6.74709 17.2346C7.11975 16.8724 7.40363 16.4433 7.56194 15.9381C7.5889 15.8521 7.61221 15.7643 7.63147 15.6739C7.64552 15.6084 7.66035 15.5433 7.67018 15.4756C7.66267 15.4565 7.65361 15.4379 7.64572 15.4188C7.53363 15.148 7.38244 14.8942 7.22625 14.7032ZM6.49884 14.6578C6.49884 14.6578 6.49903 14.6578 6.49903 14.6576C6.49884 14.658 6.49845 14.6582 6.49826 14.6584C6.49845 14.6582 6.49864 14.658 6.49884 14.6578ZM6.50038 14.6566C6.49999 14.657 6.49961 14.6572 6.49922 14.6576L6.49884 14.6578C6.49922 14.6574 6.4998 14.657 6.50038 14.6566ZM6.74786 15.3854C6.68661 15.4387 6.61458 15.4989 6.53524 15.5632C6.47284 15.6138 6.4062 15.6671 6.33571 15.7223C6.16931 15.8533 5.98481 15.9941 5.80088 16.1324C5.79337 16.138 5.78606 16.1436 5.77854 16.1492C5.77296 16.1534 5.76757 16.1575 5.76198 16.1617C5.20982 16.5763 4.67692 16.958 4.67692 16.958C4.67692 16.958 5.20655 15.6305 5.12643 15.6472C4.39343 15.8599 3.40486 16.7314 3.03989 17.0701C3.03277 17.0767 3.02507 17.0836 3.01871 17.0898C3.01274 17.0952 3.0087 17.099 3.0033 17.1041C2.9359 17.1675 2.89545 17.2069 2.89545 17.2069C2.89545 17.2069 2.92781 17.1587 2.98732 17.0757C2.99117 17.0705 2.99656 17.0631 3.00061 17.0573C3.00619 17.0496 3.01274 17.0406 3.0189 17.0325C3.30105 16.643 4.03983 15.6844 4.86951 15.0996C4.92768 15.0586 4.98603 15.0232 5.04439 14.9899C5.05036 14.9865 5.05633 14.982 5.06249 14.9786C5.07039 14.974 5.07847 14.9706 5.08656 14.966C5.55938 14.7108 6.0214 14.6998 6.37057 14.7785C6.46956 14.8006 6.55873 14.8296 6.63692 14.8627C6.73129 14.9025 6.80852 14.9469 6.86514 14.9911C6.94141 15.0507 6.98185 15.1084 6.97203 15.1494C6.96298 15.1863 6.87882 15.2713 6.74786 15.3854ZM8.88928 15.6052C8.88601 15.5548 8.88369 15.5242 8.87233 15.4989C8.87618 15.5361 8.88658 15.5666 8.88928 15.6052ZM9.95065 15.6317C9.88883 16.0399 9.80332 16.5211 9.69585 16.9341C9.96105 16.7899 10.3054 16.5647 10.6424 16.2467C10.5702 15.9722 10.4913 15.7199 10.4156 15.5011C10.2422 15.552 10.0866 15.5954 9.95065 15.6317ZM7.62665 14.4207C7.83003 14.6785 7.99585 14.9851 8.10235 15.2434C8.17804 15.2018 8.24795 15.1568 8.31208 15.1106C8.19884 14.7398 8.00894 14.4758 7.82675 14.2958C7.76281 14.3334 7.69579 14.3753 7.62665 14.4207ZM13.57 13.7612C13.5521 13.5372 13.523 13.3056 13.4835 13.0671C13.1149 13.3273 12.4457 13.7668 11.6031 14.1968C11.4981 14.2502 11.3908 14.3036 11.2809 14.3565C11.1012 14.4428 10.9148 14.5276 10.7229 14.6096C10.6852 14.6257 10.648 14.6421 10.6099 14.658C10.6388 14.7243 10.6721 14.8044 10.7085 14.8953C10.7366 14.9654 10.7669 15.0441 10.7979 15.1273C10.8248 15.1998 10.8524 15.2763 10.8807 15.3577C10.9304 15.5017 10.9812 15.6582 11.0309 15.8262C11.0582 15.919 11.0848 16.016 11.1108 16.1149C11.1353 16.2079 11.1588 16.3037 11.1813 16.4015C11.3026 16.9275 11.3918 17.5171 11.3918 18.1204C11.3918 18.254 11.3683 18.3874 11.3589 18.5212C12.0759 18.0248 13.5411 16.7155 13.5856 14.2974C13.5864 14.26 13.5897 14.2249 13.5897 14.1871C13.5897 14.1345 13.5872 14.0804 13.5852 14.0264C13.5823 13.9396 13.5773 13.8512 13.57 13.7612Z" fill="#434A51"/>
</svg>
