<svg width="20" height="20" viewBox="0 0 20 20" fill="none" xmlns="http://www.w3.org/2000/svg">
<g clip-path="url(#clip0)">
<path d="M15.7064 6.26903L12.4511 9.50002H14.9021C14.8766 10.8684 14.3979 12.0151 13.466 12.9401C12.534 13.865 11.3787 14.3402 10 14.3655C9.15746 14.3655 8.3915 14.1754 7.70214 13.7953L6.51491 14.9737C7.53618 15.6326 8.69788 15.9747 10 16C11.8638 15.9493 13.4085 15.3158 14.634 14.0994C15.8596 12.8831 16.4979 11.3499 16.5489 9.50002H19L15.7064 6.26903ZM5.09787 9.50002C5.1234 8.1316 5.60212 6.98492 6.53404 6.05997C7.46595 5.13502 8.62127 4.65988 9.99999 4.63453C10.8425 4.63453 11.6085 4.82459 12.2979 5.2047L13.4851 4.02634C12.4638 3.36747 11.3021 3.02537 9.99999 3.00003C8.13616 3.05071 6.59148 3.68424 5.36595 4.90061C4.14042 6.11698 3.50213 7.65012 3.45106 9.50002H1L4.29361 12.731L7.54893 9.50002L5.09787 9.50002Z" fill="black"/>
</g>
<defs>
<clipPath id="clip0">
<rect width="18" height="13" fill="white" transform="translate(1 3)"/>
</clipPath>
</defs>
</svg>
