<svg width="24" height="24" viewBox="0 0 24 24" fill="none" xmlns="http://www.w3.org/2000/svg">
<path d="M11.006 12C11.0201 12.5657 10.5676 13.0182 10.0019 13.0041C9.45034 13.0041 8.99779 12.5516 8.99779 12C8.99779 9.24229 11.2393 7.00076 13.997 7.00076L17.0034 7.00076C19.7611 7.00076 22.0026 9.24229 22.0026 12C22.0026 14.7577 19.7611 16.9993 17.0034 16.9993H14.8962C15.4831 16.4265 15.971 15.7547 16.3245 15.0052L16.9963 14.9981C18.658 15.0052 20.0015 13.6617 19.9944 12C20.0015 10.3383 18.658 8.9948 16.9963 9.00187L14.0041 9.00188C12.3424 8.9948 10.9989 10.3383 11.006 12ZM13.9982 10.9959C14.5497 10.9959 15.0022 11.4485 15.0022 12C15.0022 14.7577 12.7607 16.9993 10.003 16.9993L6.99668 16.9993C4.23896 16.9993 1.99744 14.7577 1.99744 12C1.99744 9.24229 4.23897 7.00076 6.99668 7.00076L9.10386 7.00076C8.51696 7.57352 8.02906 8.24527 7.66843 9.00187H7.00375C5.34205 8.9948 3.99855 10.3383 4.00562 12C3.99855 13.6617 5.34205 15.0052 7.00375 14.9981L9.99593 14.9981C11.6576 15.0052 13.0011 13.6617 12.9941 12C12.9799 11.4343 13.4325 10.9818 13.9982 10.9959Z" fill="#434A51"/>
</svg>
