<svg width="24" height="24" viewBox="0 0 24 24" fill="none" xmlns="http://www.w3.org/2000/svg">
<path d="M11.9979 24C11.6769 24 11.3569 23.916 11.0759 23.753L8.13991 22.016C7.70191 21.771 7.91591 21.684 8.05991 21.633C8.64491 21.43 8.76291 21.383 9.38791 21.029C9.45291 20.992 9.53891 21.006 9.60591 21.046L11.8619 22.385C11.9439 22.43 12.0589 22.43 12.1339 22.385L20.9289 17.309C21.0109 17.262 21.0629 17.168 21.0629 17.071V6.92101C21.0629 6.82201 21.0099 6.72901 20.9259 6.67901L12.1349 1.60701C12.0539 1.56001 11.9459 1.56001 11.8639 1.60701L3.07491 6.68001C2.98991 6.72901 2.93591 6.82501 2.93591 6.92101V17.071C2.93591 17.168 2.98991 17.26 3.07491 17.306L5.48391 18.698C6.79091 19.352 7.59191 18.582 7.59191 17.808V7.78701C7.59191 7.64501 7.70591 7.53401 7.84791 7.53401H8.96291C9.10191 7.53401 9.21791 7.64601 9.21791 7.78701V17.808C9.21791 19.553 8.26791 20.553 6.61391 20.553C6.10591 20.553 5.70491 20.553 4.58791 20.002L2.27991 18.675C1.70991 18.346 1.35791 17.73 1.35791 17.071V6.92101C1.35791 6.26201 1.71091 5.64601 2.27991 5.31801L11.0749 0.236006C11.6319 -0.0789941 12.3709 -0.0789941 12.9229 0.236006L21.7169 5.31801C22.2869 5.64701 22.6409 6.26201 22.6409 6.92101V17.071C22.6409 17.73 22.2869 18.344 21.7169 18.675L12.9229 23.753C12.6429 23.916 12.3239 24 11.9979 24ZM19.0989 13.993C19.0989 12.093 17.8149 11.587 15.1119 11.23C12.3809 10.869 12.1029 10.682 12.1029 10.043C12.1029 9.51501 12.3379 8.81001 14.3609 8.81001C16.1679 8.81001 16.8339 9.19901 17.1079 10.417C17.1319 10.532 17.2369 10.616 17.3549 10.616H18.4959C18.5669 10.616 18.6339 10.585 18.6819 10.535C18.7299 10.481 18.7559 10.412 18.7489 10.339C18.5719 8.241 17.1779 7.26301 14.3609 7.26301C11.8529 7.26301 10.3569 8.32101 10.3569 10.096C10.3569 12.021 11.8449 12.553 14.2519 12.791C17.1319 13.073 17.3549 13.494 17.3549 14.06C17.3549 15.043 16.5659 15.462 14.7129 15.462C12.3859 15.462 11.8739 14.878 11.7019 13.72C11.6819 13.596 11.5759 13.505 11.4489 13.505H10.3119C10.1709 13.505 10.0579 13.617 10.0579 13.758C10.0579 15.24 10.8639 17.006 14.7129 17.006C17.5009 17.007 19.0989 15.91 19.0989 13.993Z" fill="#646F7A"/>
</svg>
