<svg width="25" height="24" viewBox="0 0 25 24" fill="none" xmlns="http://www.w3.org/2000/svg">
<path d="M13.0921 24C12.906 24 12.72 23.894 12.6137 23.7086C12.5339 23.5232 12.5339 23.3377 12.6668 23.1788L18.3284 15.4172L8.41396 19.4437C8.33422 19.4702 8.28106 19.4967 8.20132 19.4967C7.9621 19.4967 7.74945 19.3377 7.69629 19.1258C7.61655 18.9139 7.72287 18.6755 7.90893 18.543L16.6273 13.4305L1.29043 12.5563C0.971469 12.5298 0.7854 12.2914 0.7854 12.0265C0.7854 11.7881 0.944889 11.5232 1.29043 11.4967L16.6273 10.6225L7.90893 5.50993C7.72287 5.37748 7.61655 5.13907 7.69629 4.92715C7.77603 4.71523 7.9621 4.55629 8.20132 4.55629C8.28106 4.55629 8.33422 4.58278 8.41396 4.60927L18.3284 8.63576L12.6668 0.847681C12.5605 0.688741 12.5339 0.47682 12.6137 0.31788C12.6934 0.13245 12.8795 0.0264893 13.0921 0.0264893C13.225 0.0264893 13.3579 0.0794694 13.4642 0.18543L24.7343 11.3907C24.8938 11.5497 24.9735 11.7881 24.9735 12C24.9735 12.2119 24.8938 12.4238 24.7343 12.6093L13.4642 23.8411C13.3579 23.947 13.225 24 13.0921 24Z" fill="white"/>
</svg>
