<svg width="24" height="24" viewBox="0 0 24 24" fill="none" xmlns="http://www.w3.org/2000/svg">
<path d="M16 12C17.66 12 18.99 10.66 18.99 9C18.99 7.34 17.66 6 16 6C14.34 6 13 7.34 13 9C13 10.66 14.34 12 16 12ZM16 14C15.71 14 15.38 14.02 15.03 14.05C16.19 14.89 17 16.02 17 17.5V19H23V17.5C23 15.17 18.33 14 16 14Z" fill="#434A51"/>
<path d="M8 5C9.93296 5 11.5 6.567 11.5 8.5C11.5 10.433 9.93296 12 8 12C6.067 12 4.5 10.433 4.5 8.5C4.5 6.567 6.067 5 8 5ZM8 13.75C11.866 13.75 15 15.317 15 17.25V19H1V17.25C1 15.317 4.134 13.75 8 13.75Z" fill="#434A51"/>
</svg>
