<svg width="24" height="24" viewBox="0 0 24 24" fill="none" xmlns="http://www.w3.org/2000/svg">
<path fill-rule="evenodd" clip-rule="evenodd" d="M14.2361 6C14.7111 5.46924 15 4.76835 15 4C15 2.34315 13.6569 1 12 1C10.3431 1 9 2.34315 9 4C9 4.76835 9.28885 5.46924 9.76389 6H5C4.44772 6 4 6.44772 4 7V11.7639C4.53076 11.2889 5.23165 11 6 11C7.65685 11 9 12.3431 9 14C9 15.6569 7.65685 17 6 17C5.23165 17 4.53076 16.7111 4 16.2361V21C4 21.5523 4.44772 22 5 22H19C19.5523 22 20 21.5523 20 21V7C20 6.44772 19.5523 6 19 6H14.2361Z" fill="#343A40"/>
</svg>
