<svg width="20" height="20" viewBox="0 0 20 20" fill="none" xmlns="http://www.w3.org/2000/svg">
<path d="M14.5071 9.26058H12.1127C11.9484 8.81457 11.6784 8.45072 11.3028 8.16903C10.9272 7.88733 10.493 7.74649 10 7.74649C9.50706 7.74649 9.07279 7.88733 8.6972 8.16903C8.32161 8.45072 8.05166 8.81457 7.88734 9.26058H5.49296C5.32864 9.28405 5.04695 9.20776 4.64789 9.03171C4.24883 8.85565 4.02582 8.42724 3.97888 7.74649V7.00705C4.02583 6.3263 4.23709 5.8979 4.61268 5.72184C4.98827 5.54578 5.2817 5.46949 5.49296 5.49297H13.1338C13.2981 5.93898 13.5681 6.29696 13.9437 6.56691C14.3192 6.83687 14.7535 6.98358 15.2465 7.00706C15.9038 6.98358 16.4437 6.76058 16.8662 6.33804C17.2887 5.9155 17.5 5.38147 17.5 4.73592C17.5 4.09038 17.2887 3.55634 16.8662 3.13381C16.4437 2.71127 15.9038 2.5 15.2465 2.5C14.7535 2.5 14.3192 2.63498 13.9437 2.90493C13.5681 3.17488 13.2981 3.53287 13.1338 3.97888H5.49296C4.83569 3.97888 4.18428 4.20775 3.53874 4.6655C2.8932 5.12325 2.54695 5.90376 2.5 7.00705V7.74649C2.54695 8.8263 2.89319 9.60095 3.53874 10.0704C4.18428 10.5399 4.83569 10.7629 5.49296 10.7394H7.88734C8.05165 11.1855 8.32161 11.5493 8.6972 11.831C9.07279 12.1127 9.50706 12.2535 10 12.2535C10.493 12.2535 10.9272 12.1127 11.3028 11.831C11.6784 11.5493 11.9484 11.1855 12.1127 10.7394H14.5071C14.6714 10.716 14.9531 10.7923 15.3521 10.9683C15.7512 11.1444 15.9742 11.5728 16.0212 12.2535V12.993C15.9742 13.6737 15.7629 14.1021 15.3874 14.2782C15.0118 14.4542 14.7183 14.5305 14.5071 14.5071H6.86624C6.70192 14.0611 6.43197 13.7031 6.05638 13.4331C5.68079 13.1632 5.24652 13.0164 4.75356 12.993C4.09628 13.0164 3.55638 13.2395 3.13384 13.662C2.7113 14.0845 2.50004 14.6186 2.50004 15.2641C2.50004 15.9096 2.7113 16.4437 3.13384 16.8662C3.55638 17.2888 4.09628 17.5 4.75356 17.5C5.24652 17.5 5.68079 17.3651 6.05638 17.0951C6.43197 16.8251 6.70192 16.4672 6.86624 16.0212H14.5071C15.1643 16.0212 15.8158 15.7923 16.4613 15.3345C17.1068 14.8768 17.4531 14.0963 17.5 12.993V12.2535C17.4531 11.1737 17.1068 10.3991 16.4613 9.92959C15.8158 9.46011 15.1643 9.2371 14.5071 9.26058V9.26058ZM15.2465 3.97888C15.4578 4.00235 15.6338 4.08451 15.7747 4.22536C15.9155 4.3662 15.9859 4.54226 15.9859 4.75353C15.9859 4.9648 15.9155 5.14085 15.7747 5.2817C15.6338 5.42254 15.4578 5.49297 15.2465 5.49297C15.0352 5.49297 14.8592 5.42254 14.7183 5.2817C14.5775 5.14085 14.5071 4.9648 14.5071 4.75353C14.5071 4.54226 14.5775 4.3662 14.7183 4.22536C14.8592 4.08451 15.0352 4.00235 15.2465 3.97888ZM4.75356 16.0212C4.54229 15.9977 4.36624 15.9155 4.22539 15.7747C4.08455 15.6339 4.01412 15.4578 4.01412 15.2465C4.01412 15.0353 4.08455 14.8592 4.22539 14.7184C4.36624 14.5775 4.54229 14.5071 4.75356 14.5071C4.96483 14.5071 5.14089 14.5775 5.28173 14.7184C5.42258 14.8592 5.493 15.0353 5.493 15.2465C5.493 15.4578 5.42258 15.6339 5.28173 15.7747C5.14089 15.9155 4.96483 15.9977 4.75356 16.0212Z" fill="black"/>
</svg>
