<svg width="24" height="24" viewBox="0 0 24 24" fill="none" xmlns="http://www.w3.org/2000/svg">
<path d="M16.34 9.85301L14.086 12.107V9.84701H12.13V15.591H14.087V13.261L16.44 15.591H18.9L15.912 12.601L18.389 10.125V13.536C18.389 14.669 19.068 15.713 20.782 15.713C21.597 15.713 22.342 15.251 22.704 14.833L23.584 15.592H24V9.85201H22.049V13.57C21.829 13.954 21.521 14.197 21.047 14.197C20.565 14.197 20.344 13.911 20.344 12.999V9.85301H16.34ZM11.749 12.722C11.7514 13.3164 11.5774 13.898 11.2491 14.3935C10.9207 14.8889 10.4528 15.2758 9.90453 15.5052C9.35624 15.7346 8.75222 15.7962 8.16891 15.6822C7.5856 15.5683 7.0492 15.2838 6.62761 14.8649C6.20601 14.4459 5.91817 13.9113 5.80049 13.3288C5.68282 12.7462 5.7406 12.1418 5.96654 11.5921C6.19247 11.0423 6.5764 10.572 7.06974 10.2405C7.56308 9.90906 8.14365 9.7314 8.738 9.73001C9.13216 9.72817 9.52281 9.80409 9.88759 9.95345C10.2524 10.1028 10.5841 10.3226 10.8638 10.6004C11.1435 10.8781 11.3656 11.2083 11.5175 11.572C11.6694 11.9357 11.7481 12.3258 11.749 12.72V12.722ZM8.738 11.15C8.22 11.15 7.782 11.854 7.782 12.722C7.782 13.589 8.22 14.292 8.738 14.292C9.266 14.292 9.706 13.59 9.706 12.722C9.706 11.853 9.268 11.15 8.738 11.15ZM6.532 15.597H4.313L2.55 13.153H1.956V15.593H0V8.26001H2.8C4.416 8.26001 5.735 9.36001 5.735 10.71C5.735 11.536 5.23 12.272 4.462 12.723L6.532 15.598V15.597ZM3.782 10.71C3.78279 10.5488 3.75179 10.3891 3.69078 10.2399C3.62978 10.0907 3.53995 9.95506 3.42645 9.84063C3.31295 9.7262 3.17801 9.63527 3.02933 9.57305C2.88065 9.51083 2.72117 9.47853 2.56 9.47801H1.956V11.931H2.561C2.88433 11.9297 3.19403 11.8006 3.42257 11.5719C3.65111 11.3431 3.77995 11.0333 3.781 10.71H3.782Z" fill="#646F7A"/>
</svg>
