<svg width="24" height="24" viewBox="0 0 24 24" fill="none" xmlns="http://www.w3.org/2000/svg">
<g clip-path="url(#clip0)">
<path d="M21.984 16.348C22.04 16.236 22.04 16.124 22.096 16.012C23.442 10.74 20.245 4.57197 14.749 1.31897C17.161 4.57197 18.114 8.44097 17.273 11.918C17.217 12.198 17.105 12.535 16.993 12.815C16.8383 12.7294 16.6881 12.6359 16.543 12.535C16.543 12.535 11.104 9.16997 5.27298 3.28197C5.10398 3.11397 8.41298 7.99197 12.114 11.862C10.376 10.852 5.44098 7.31997 2.35598 4.45897C2.69298 5.07597 3.19798 5.69297 3.70198 6.30997C6.28198 9.61897 9.64698 13.656 13.685 16.74C10.825 18.48 6.84298 18.591 2.80498 16.74C1.79498 16.292 0.954977 15.731 0.000976562 15.058C1.68298 17.694 4.31898 20.106 7.45998 21.395C11.217 23.022 15.03 22.91 17.778 21.395H17.835C17.947 21.339 18.059 21.283 18.171 21.171C19.517 20.498 22.153 19.769 23.611 22.573C24.003 23.358 24.732 19.713 21.985 16.348H21.984Z" fill="#646F7A"/>
</g>
<defs>
<clipPath id="clip0">
<rect width="24" height="24" fill="white"/>
</clipPath>
</defs>
</svg>
