<svg width="20" height="20" viewBox="0 0 20 20" fill="none" xmlns="http://www.w3.org/2000/svg">
<path d="M14.1667 5.83334H5.83341C4.72835 5.83334 3.66854 6.27233 2.88714 7.05373C2.10573 7.83513 1.66675 8.89494 1.66675 10C1.66675 11.1051 2.10573 12.1649 2.88714 12.9463C3.66854 13.7277 4.72835 14.1667 5.83341 14.1667H14.1667C15.2718 14.1667 16.3316 13.7277 17.113 12.9463C17.8944 12.1649 18.3334 11.1051 18.3334 10C18.3334 8.89494 17.8944 7.83513 17.113 7.05373C16.3316 6.27233 15.2718 5.83334 14.1667 5.83334V5.83334ZM14.1667 12.5C13.5037 12.5 12.8678 12.2366 12.399 11.7678C11.9301 11.2989 11.6667 10.6631 11.6667 10C11.6667 9.33697 11.9301 8.70108 12.399 8.23224C12.8678 7.7634 13.5037 7.50001 14.1667 7.50001C14.8298 7.50001 15.4657 7.7634 15.9345 8.23224C16.4034 8.70108 16.6667 9.33697 16.6667 10C16.6667 10.6631 16.4034 11.2989 15.9345 11.7678C15.4657 12.2366 14.8298 12.5 14.1667 12.5Z" fill="black"/>
</svg>
