<svg width="24" height="24" viewBox="0 0 24 24" fill="none" xmlns="http://www.w3.org/2000/svg">
<path d="M16 2H8C6.93913 2 5.92172 2.42143 5.17157 3.17157C4.42143 3.92172 4 4.93913 4 6C4 7.06087 4.42143 8.07828 5.17157 8.82843C5.92172 9.57857 6.93913 10 8 10H16C17.0609 10 18.0783 9.57857 18.8284 8.82843C19.5786 8.07828 20 7.06087 20 6C20 4.93913 19.5786 3.92172 18.8284 3.17157C18.0783 2.42143 17.0609 2 16 2ZM8 8.4C7.36348 8.4 6.75303 8.14714 6.30294 7.69706C5.85286 7.24697 5.6 6.63652 5.6 6C5.6 5.36348 5.85286 4.75303 6.30294 4.30294C6.75303 3.85286 7.36348 3.6 8 3.6C8.63652 3.6 9.24697 3.85286 9.69706 4.30294C10.1471 4.75303 10.4 5.36348 10.4 6C10.4 6.63652 10.1471 7.24697 9.69706 7.69706C9.24697 8.14714 8.63652 8.4 8 8.4Z" fill="#434A51"/>
<path d="M16 14H8C6.93913 14 5.92172 14.4214 5.17157 15.1716C4.42143 15.9217 4 16.9391 4 18C4 19.0609 4.42143 20.0783 5.17157 20.8284C5.92172 21.5786 6.93913 22 8 22H16C17.0609 22 18.0783 21.5786 18.8284 20.8284C19.5786 20.0783 20 19.0609 20 18C20 16.9391 19.5786 15.9217 18.8284 15.1716C18.0783 14.4214 17.0609 14 16 14V14ZM16 20.4C15.3635 20.4 14.753 20.1471 14.3029 19.6971C13.8529 19.247 13.6 18.6365 13.6 18C13.6 17.3635 13.8529 16.753 14.3029 16.3029C14.753 15.8529 15.3635 15.6 16 15.6C16.6365 15.6 17.247 15.8529 17.6971 16.3029C18.1471 16.753 18.4 17.3635 18.4 18C18.4 18.6365 18.1471 19.247 17.6971 19.6971C17.247 20.1471 16.6365 20.4 16 20.4Z" fill="#434A51"/>
</svg>
