<svg width="24" height="24" viewBox="0 0 24 24" fill="none" xmlns="http://www.w3.org/2000/svg">
<path d="M6.92511 1.323C6.5998 1.32763 6.28111 1.41555 5.99944 1.57836C5.71776 1.74116 5.48251 1.97343 5.31611 2.253L0.241109 11.07C0.0829781 11.3548 0 11.6752 0 12.001C0 12.3268 0.0829781 12.6472 0.241109 12.932L5.31611 21.748C5.64211 22.308 6.27611 22.677 6.92511 22.678H17.0751C17.4004 22.6734 17.7191 22.5854 18.0008 22.4226C18.2825 22.2598 18.5177 22.0276 18.6841 21.748L23.7591 12.932C23.9172 12.6472 24.0002 12.3268 24.0002 12.001C24.0002 11.6752 23.9172 11.3548 23.7591 11.07L18.6841 2.254C18.5177 1.97443 18.2825 1.74216 18.0008 1.57936C17.7191 1.41655 17.4004 1.32863 17.0751 1.324L6.92511 1.323ZM7.01711 6.48C7.03141 6.47859 7.04581 6.47859 7.06011 6.48H8.81011C8.84916 6.48113 8.88728 6.49219 8.92087 6.51214C8.95446 6.53208 8.98242 6.56025 9.00211 6.594L11.9721 11.886C11.9871 11.9125 11.9966 11.9417 12.0001 11.972C12.0036 11.9417 12.0131 11.9125 12.0281 11.886L14.9911 6.594C15.0114 6.55946 15.0403 6.53079 15.075 6.51081C15.1097 6.49082 15.1491 6.4802 15.1891 6.48H16.9401C17.0951 6.482 17.2111 6.677 17.1391 6.814L14.2391 12L17.1391 17.179C17.2191 17.317 17.0991 17.521 16.9401 17.519H15.1901C15.1491 17.5184 15.1091 17.507 15.0739 17.486C15.0388 17.4649 15.0099 17.4349 14.9901 17.399L12.0281 12.107C12.013 12.0802 12.0035 12.0506 12.0001 12.02C11.9966 12.0502 11.9871 12.0795 11.9721 12.106L9.00211 17.398C8.9831 17.4328 8.95545 17.4621 8.92182 17.4831C8.88819 17.5042 8.84972 17.5162 8.81011 17.518H7.06011C6.90011 17.52 6.78211 17.316 6.86111 17.178L9.76111 12L6.86111 6.814C6.79111 6.689 6.87611 6.507 7.01711 6.48Z" fill="#646F7A"/>
</svg>
